<?xml version="1.0" encoding="utf-8" standalone="no"?>
<!DOCTYPE svg PUBLIC "-//W3C//DTD SVG 1.1//EN"
  "http://www.w3.org/Graphics/SVG/1.1/DTD/svg11.dtd">
<svg xmlns:xlink="http://www.w3.org/1999/xlink" width="460.8pt" height="345.6pt" viewBox="0 0 460.8 345.6" xmlns="http://www.w3.org/2000/svg" version="1.1">
 <metadata>
  <rdf:RDF xmlns:dc="http://purl.org/dc/elements/1.1/" xmlns:cc="http://creativecommons.org/ns#" xmlns:rdf="http://www.w3.org/1999/02/22-rdf-syntax-ns#">
   <cc:Work>
    <dc:type rdf:resource="http://purl.org/dc/dcmitype/StillImage"/>
    <dc:date>2024-09-16T00:35:08.576535</dc:date>
    <dc:format>image/svg+xml</dc:format>
    <dc:creator>
     <cc:Agent>
      <dc:title>Matplotlib v3.9.2, https://matplotlib.org/</dc:title>
     </cc:Agent>
    </dc:creator>
   </cc:Work>
  </rdf:RDF>
 </metadata>
 <defs>
  <style type="text/css">*{stroke-linejoin: round; stroke-linecap: butt}</style>
 </defs>
 <g id="figure_1">
  <g id="patch_1">
   <path d="M 0 345.6 
L 460.8 345.6 
L 460.8 0 
L 0 0 
z
" style="fill: #ffffff"/>
  </g>
  <g id="axes_1">
   <g id="patch_2">
    <path d="M 57.6 307.584 
L 414.72 307.584 
L 414.72 41.472 
L 57.6 41.472 
z
" style="fill: #ffffff"/>
   </g>
   <g id="matplotlib.axis_1">
    <g id="xtick_1">
     <g id="line2d_1">
      <path d="M 57.6 307.584 
L 57.6 41.472 
" clip-path="url(#p35921cb1e6)" style="fill: none; stroke: #b0b0b0; stroke-width: 0.2; stroke-linecap: square"/>
     </g>
     <g id="line2d_2">
      <defs>
       <path id="m3c5588ecdc" d="M 0 0 
L 0 3.5 
" style="stroke: #000000; stroke-width: 0.8"/>
      </defs>
      <g>
       <use xlink:href="#m3c5588ecdc" x="57.6" y="307.584" style="stroke: #000000; stroke-width: 0.8"/>
      </g>
     </g>
     <g id="text_1">
      <!-- 0.88 -->
      <g transform="translate(49.807031 319.902906) scale(0.07 -0.07)">
       <defs>
        <path id="DejaVuSans-30" d="M 2034 4250 
Q 1547 4250 1301 3770 
Q 1056 3291 1056 2328 
Q 1056 1369 1301 889 
Q 1547 409 2034 409 
Q 2525 409 2770 889 
Q 3016 1369 3016 2328 
Q 3016 3291 2770 3770 
Q 2525 4250 2034 4250 
z
M 2034 4750 
Q 2819 4750 3233 4129 
Q 3647 3509 3647 2328 
Q 3647 1150 3233 529 
Q 2819 -91 2034 -91 
Q 1250 -91 836 529 
Q 422 1150 422 2328 
Q 422 3509 836 4129 
Q 1250 4750 2034 4750 
z
" transform="scale(0.015625)"/>
        <path id="DejaVuSans-2e" d="M 684 794 
L 1344 794 
L 1344 0 
L 684 0 
L 684 794 
z
" transform="scale(0.015625)"/>
        <path id="DejaVuSans-38" d="M 2034 2216 
Q 1584 2216 1326 1975 
Q 1069 1734 1069 1313 
Q 1069 891 1326 650 
Q 1584 409 2034 409 
Q 2484 409 2743 651 
Q 3003 894 3003 1313 
Q 3003 1734 2745 1975 
Q 2488 2216 2034 2216 
z
M 1403 2484 
Q 997 2584 770 2862 
Q 544 3141 544 3541 
Q 544 4100 942 4425 
Q 1341 4750 2034 4750 
Q 2731 4750 3128 4425 
Q 3525 4100 3525 3541 
Q 3525 3141 3298 2862 
Q 3072 2584 2669 2484 
Q 3125 2378 3379 2068 
Q 3634 1759 3634 1313 
Q 3634 634 3220 271 
Q 2806 -91 2034 -91 
Q 1263 -91 848 271 
Q 434 634 434 1313 
Q 434 1759 690 2068 
Q 947 2378 1403 2484 
z
M 1172 3481 
Q 1172 3119 1398 2916 
Q 1625 2713 2034 2713 
Q 2441 2713 2670 2916 
Q 2900 3119 2900 3481 
Q 2900 3844 2670 4047 
Q 2441 4250 2034 4250 
Q 1625 4250 1398 4047 
Q 1172 3844 1172 3481 
z
" transform="scale(0.015625)"/>
       </defs>
       <use xlink:href="#DejaVuSans-30"/>
       <use xlink:href="#DejaVuSans-2e" x="63.623047"/>
       <use xlink:href="#DejaVuSans-38" x="95.410156"/>
       <use xlink:href="#DejaVuSans-38" x="159.033203"/>
      </g>
     </g>
    </g>
    <g id="xtick_2">
     <g id="line2d_3">
      <path d="M 108.617143 307.584 
L 108.617143 41.472 
" clip-path="url(#p35921cb1e6)" style="fill: none; stroke: #b0b0b0; stroke-width: 0.2; stroke-linecap: square"/>
     </g>
     <g id="line2d_4">
      <g>
       <use xlink:href="#m3c5588ecdc" x="108.617143" y="307.584" style="stroke: #000000; stroke-width: 0.8"/>
      </g>
     </g>
     <g id="text_2">
      <!-- 0.91 -->
      <g transform="translate(100.824174 319.902906) scale(0.07 -0.07)">
       <defs>
        <path id="DejaVuSans-39" d="M 703 97 
L 703 672 
Q 941 559 1184 500 
Q 1428 441 1663 441 
Q 2288 441 2617 861 
Q 2947 1281 2994 2138 
Q 2813 1869 2534 1725 
Q 2256 1581 1919 1581 
Q 1219 1581 811 2004 
Q 403 2428 403 3163 
Q 403 3881 828 4315 
Q 1253 4750 1959 4750 
Q 2769 4750 3195 4129 
Q 3622 3509 3622 2328 
Q 3622 1225 3098 567 
Q 2575 -91 1691 -91 
Q 1453 -91 1209 -44 
Q 966 3 703 97 
z
M 1959 2075 
Q 2384 2075 2632 2365 
Q 2881 2656 2881 3163 
Q 2881 3666 2632 3958 
Q 2384 4250 1959 4250 
Q 1534 4250 1286 3958 
Q 1038 3666 1038 3163 
Q 1038 2656 1286 2365 
Q 1534 2075 1959 2075 
z
" transform="scale(0.015625)"/>
        <path id="DejaVuSans-31" d="M 794 531 
L 1825 531 
L 1825 4091 
L 703 3866 
L 703 4441 
L 1819 4666 
L 2450 4666 
L 2450 531 
L 3481 531 
L 3481 0 
L 794 0 
L 794 531 
z
" transform="scale(0.015625)"/>
       </defs>
       <use xlink:href="#DejaVuSans-30"/>
       <use xlink:href="#DejaVuSans-2e" x="63.623047"/>
       <use xlink:href="#DejaVuSans-39" x="95.410156"/>
       <use xlink:href="#DejaVuSans-31" x="159.033203"/>
      </g>
     </g>
    </g>
    <g id="xtick_3">
     <g id="line2d_5">
      <path d="M 159.634286 307.584 
L 159.634286 41.472 
" clip-path="url(#p35921cb1e6)" style="fill: none; stroke: #b0b0b0; stroke-width: 0.2; stroke-linecap: square"/>
     </g>
     <g id="line2d_6">
      <g>
       <use xlink:href="#m3c5588ecdc" x="159.634286" y="307.584" style="stroke: #000000; stroke-width: 0.8"/>
      </g>
     </g>
     <g id="text_3">
      <!-- 0.95 -->
      <g transform="translate(151.841317 319.902906) scale(0.07 -0.07)">
       <defs>
        <path id="DejaVuSans-35" d="M 691 4666 
L 3169 4666 
L 3169 4134 
L 1269 4134 
L 1269 2991 
Q 1406 3038 1543 3061 
Q 1681 3084 1819 3084 
Q 2600 3084 3056 2656 
Q 3513 2228 3513 1497 
Q 3513 744 3044 326 
Q 2575 -91 1722 -91 
Q 1428 -91 1123 -41 
Q 819 9 494 109 
L 494 744 
Q 775 591 1075 516 
Q 1375 441 1709 441 
Q 2250 441 2565 725 
Q 2881 1009 2881 1497 
Q 2881 1984 2565 2268 
Q 2250 2553 1709 2553 
Q 1456 2553 1204 2497 
Q 953 2441 691 2322 
L 691 4666 
z
" transform="scale(0.015625)"/>
       </defs>
       <use xlink:href="#DejaVuSans-30"/>
       <use xlink:href="#DejaVuSans-2e" x="63.623047"/>
       <use xlink:href="#DejaVuSans-39" x="95.410156"/>
       <use xlink:href="#DejaVuSans-35" x="159.033203"/>
      </g>
     </g>
    </g>
    <g id="xtick_4">
     <g id="line2d_7">
      <path d="M 210.651429 307.584 
L 210.651429 41.472 
" clip-path="url(#p35921cb1e6)" style="fill: none; stroke: #b0b0b0; stroke-width: 0.2; stroke-linecap: square"/>
     </g>
     <g id="line2d_8">
      <g>
       <use xlink:href="#m3c5588ecdc" x="210.651429" y="307.584" style="stroke: #000000; stroke-width: 0.8"/>
      </g>
     </g>
     <g id="text_4">
      <!-- 0.98 -->
      <g transform="translate(202.85846 319.902906) scale(0.07 -0.07)">
       <use xlink:href="#DejaVuSans-30"/>
       <use xlink:href="#DejaVuSans-2e" x="63.623047"/>
       <use xlink:href="#DejaVuSans-39" x="95.410156"/>
       <use xlink:href="#DejaVuSans-38" x="159.033203"/>
      </g>
     </g>
    </g>
    <g id="xtick_5">
     <g id="line2d_9">
      <path d="M 261.668571 307.584 
L 261.668571 41.472 
" clip-path="url(#p35921cb1e6)" style="fill: none; stroke: #b0b0b0; stroke-width: 0.2; stroke-linecap: square"/>
     </g>
     <g id="line2d_10">
      <g>
       <use xlink:href="#m3c5588ecdc" x="261.668571" y="307.584" style="stroke: #000000; stroke-width: 0.8"/>
      </g>
     </g>
     <g id="text_5">
      <!-- 1.02 -->
      <g transform="translate(253.875603 319.902906) scale(0.07 -0.07)">
       <defs>
        <path id="DejaVuSans-32" d="M 1228 531 
L 3431 531 
L 3431 0 
L 469 0 
L 469 531 
Q 828 903 1448 1529 
Q 2069 2156 2228 2338 
Q 2531 2678 2651 2914 
Q 2772 3150 2772 3378 
Q 2772 3750 2511 3984 
Q 2250 4219 1831 4219 
Q 1534 4219 1204 4116 
Q 875 4013 500 3803 
L 500 4441 
Q 881 4594 1212 4672 
Q 1544 4750 1819 4750 
Q 2544 4750 2975 4387 
Q 3406 4025 3406 3419 
Q 3406 3131 3298 2873 
Q 3191 2616 2906 2266 
Q 2828 2175 2409 1742 
Q 1991 1309 1228 531 
z
" transform="scale(0.015625)"/>
       </defs>
       <use xlink:href="#DejaVuSans-31"/>
       <use xlink:href="#DejaVuSans-2e" x="63.623047"/>
       <use xlink:href="#DejaVuSans-30" x="95.410156"/>
       <use xlink:href="#DejaVuSans-32" x="159.033203"/>
      </g>
     </g>
    </g>
    <g id="xtick_6">
     <g id="line2d_11">
      <path d="M 312.685714 307.584 
L 312.685714 41.472 
" clip-path="url(#p35921cb1e6)" style="fill: none; stroke: #b0b0b0; stroke-width: 0.2; stroke-linecap: square"/>
     </g>
     <g id="line2d_12">
      <g>
       <use xlink:href="#m3c5588ecdc" x="312.685714" y="307.584" style="stroke: #000000; stroke-width: 0.8"/>
      </g>
     </g>
     <g id="text_6">
      <!-- 1.05 -->
      <g transform="translate(304.892746 319.902906) scale(0.07 -0.07)">
       <use xlink:href="#DejaVuSans-31"/>
       <use xlink:href="#DejaVuSans-2e" x="63.623047"/>
       <use xlink:href="#DejaVuSans-30" x="95.410156"/>
       <use xlink:href="#DejaVuSans-35" x="159.033203"/>
      </g>
     </g>
    </g>
    <g id="xtick_7">
     <g id="line2d_13">
      <path d="M 363.702857 307.584 
L 363.702857 41.472 
" clip-path="url(#p35921cb1e6)" style="fill: none; stroke: #b0b0b0; stroke-width: 0.2; stroke-linecap: square"/>
     </g>
     <g id="line2d_14">
      <g>
       <use xlink:href="#m3c5588ecdc" x="363.702857" y="307.584" style="stroke: #000000; stroke-width: 0.8"/>
      </g>
     </g>
     <g id="text_7">
      <!-- 1.09 -->
      <g transform="translate(355.909888 319.902906) scale(0.07 -0.07)">
       <use xlink:href="#DejaVuSans-31"/>
       <use xlink:href="#DejaVuSans-2e" x="63.623047"/>
       <use xlink:href="#DejaVuSans-30" x="95.410156"/>
       <use xlink:href="#DejaVuSans-39" x="159.033203"/>
      </g>
     </g>
    </g>
    <g id="xtick_8">
     <g id="line2d_15">
      <path d="M 414.72 307.584 
L 414.72 41.472 
" clip-path="url(#p35921cb1e6)" style="fill: none; stroke: #b0b0b0; stroke-width: 0.2; stroke-linecap: square"/>
     </g>
     <g id="line2d_16">
      <g>
       <use xlink:href="#m3c5588ecdc" x="414.72" y="307.584" style="stroke: #000000; stroke-width: 0.8"/>
      </g>
     </g>
     <g id="text_8">
      <!-- 1.12 -->
      <g transform="translate(406.927031 319.902906) scale(0.07 -0.07)">
       <use xlink:href="#DejaVuSans-31"/>
       <use xlink:href="#DejaVuSans-2e" x="63.623047"/>
       <use xlink:href="#DejaVuSans-31" x="95.410156"/>
       <use xlink:href="#DejaVuSans-32" x="159.033203"/>
      </g>
     </g>
    </g>
    <g id="text_9">
     <!-- $\frac{f}{f_0}$ -->
     <g transform="translate(407.62 335.058687) scale(0.1 -0.1)">
      <defs>
       <path id="DejaVuSans-Oblique-66" d="M 3059 4863 
L 2969 4384 
L 2419 4384 
Q 2106 4384 1964 4261 
Q 1822 4138 1753 3809 
L 1691 3500 
L 2638 3500 
L 2553 3053 
L 1606 3053 
L 1013 0 
L 434 0 
L 1031 3053 
L 481 3053 
L 563 3500 
L 1113 3500 
L 1159 3744 
Q 1278 4363 1576 4613 
Q 1875 4863 2516 4863 
L 3059 4863 
z
" transform="scale(0.015625)"/>
      </defs>
      <use xlink:href="#DejaVuSans-Oblique-66" transform="translate(17 43.810938) scale(0.7)"/>
      <use xlink:href="#DejaVuSans-Oblique-66" transform="translate(0 -40.628125) scale(0.7)"/>
      <use xlink:href="#DejaVuSans-30" transform="translate(24.643555 -52.1125) scale(0.49)"/>
      <path d="M 0 18.810937 
L 0 25.060937 
L 57.73291 25.060937 
L 57.73291 18.810937 
L 0 18.810937 
z
"/>
     </g>
    </g>
   </g>
   <g id="matplotlib.axis_2">
    <g id="ytick_1">
     <g id="line2d_17">
      <path d="M 57.6 307.584 
L 414.72 307.584 
" clip-path="url(#p35921cb1e6)" style="fill: none; stroke: #b0b0b0; stroke-width: 0.2; stroke-linecap: square"/>
     </g>
     <g id="line2d_18">
      <defs>
       <path id="ma05afd1f18" d="M 0 0 
L -3.5 0 
" style="stroke: #000000; stroke-width: 0.8"/>
      </defs>
      <g>
       <use xlink:href="#ma05afd1f18" x="57.6" y="307.584" style="stroke: #000000; stroke-width: 0.8"/>
      </g>
     </g>
     <g id="text_10">
      <!-- 0.28 -->
      <g transform="translate(35.014062 310.243453) scale(0.07 -0.07)">
       <use xlink:href="#DejaVuSans-30"/>
       <use xlink:href="#DejaVuSans-2e" x="63.623047"/>
       <use xlink:href="#DejaVuSans-32" x="95.410156"/>
       <use xlink:href="#DejaVuSans-38" x="159.033203"/>
      </g>
     </g>
    </g>
    <g id="ytick_2">
     <g id="line2d_19">
      <path d="M 57.6 269.568 
L 414.72 269.568 
" clip-path="url(#p35921cb1e6)" style="fill: none; stroke: #b0b0b0; stroke-width: 0.2; stroke-linecap: square"/>
     </g>
     <g id="line2d_20">
      <g>
       <use xlink:href="#ma05afd1f18" x="57.6" y="269.568" style="stroke: #000000; stroke-width: 0.8"/>
      </g>
     </g>
     <g id="text_11">
      <!-- 0.39 -->
      <g transform="translate(35.014062 272.227453) scale(0.07 -0.07)">
       <defs>
        <path id="DejaVuSans-33" d="M 2597 2516 
Q 3050 2419 3304 2112 
Q 3559 1806 3559 1356 
Q 3559 666 3084 287 
Q 2609 -91 1734 -91 
Q 1441 -91 1130 -33 
Q 819 25 488 141 
L 488 750 
Q 750 597 1062 519 
Q 1375 441 1716 441 
Q 2309 441 2620 675 
Q 2931 909 2931 1356 
Q 2931 1769 2642 2001 
Q 2353 2234 1838 2234 
L 1294 2234 
L 1294 2753 
L 1863 2753 
Q 2328 2753 2575 2939 
Q 2822 3125 2822 3475 
Q 2822 3834 2567 4026 
Q 2313 4219 1838 4219 
Q 1578 4219 1281 4162 
Q 984 4106 628 3988 
L 628 4550 
Q 988 4650 1302 4700 
Q 1616 4750 1894 4750 
Q 2613 4750 3031 4423 
Q 3450 4097 3450 3541 
Q 3450 3153 3228 2886 
Q 3006 2619 2597 2516 
z
" transform="scale(0.015625)"/>
       </defs>
       <use xlink:href="#DejaVuSans-30"/>
       <use xlink:href="#DejaVuSans-2e" x="63.623047"/>
       <use xlink:href="#DejaVuSans-33" x="95.410156"/>
       <use xlink:href="#DejaVuSans-39" x="159.033203"/>
      </g>
     </g>
    </g>
    <g id="ytick_3">
     <g id="line2d_21">
      <path d="M 57.6 231.552 
L 414.72 231.552 
" clip-path="url(#p35921cb1e6)" style="fill: none; stroke: #b0b0b0; stroke-width: 0.2; stroke-linecap: square"/>
     </g>
     <g id="line2d_22">
      <g>
       <use xlink:href="#ma05afd1f18" x="57.6" y="231.552" style="stroke: #000000; stroke-width: 0.8"/>
      </g>
     </g>
     <g id="text_12">
      <!-- 0.51 -->
      <g transform="translate(35.014062 234.211453) scale(0.07 -0.07)">
       <use xlink:href="#DejaVuSans-30"/>
       <use xlink:href="#DejaVuSans-2e" x="63.623047"/>
       <use xlink:href="#DejaVuSans-35" x="95.410156"/>
       <use xlink:href="#DejaVuSans-31" x="159.033203"/>
      </g>
     </g>
    </g>
    <g id="ytick_4">
     <g id="line2d_23">
      <path d="M 57.6 193.536 
L 414.72 193.536 
" clip-path="url(#p35921cb1e6)" style="fill: none; stroke: #b0b0b0; stroke-width: 0.2; stroke-linecap: square"/>
     </g>
     <g id="line2d_24">
      <g>
       <use xlink:href="#ma05afd1f18" x="57.6" y="193.536" style="stroke: #000000; stroke-width: 0.8"/>
      </g>
     </g>
     <g id="text_13">
      <!-- 0.63 -->
      <g transform="translate(35.014062 196.195453) scale(0.07 -0.07)">
       <defs>
        <path id="DejaVuSans-36" d="M 2113 2584 
Q 1688 2584 1439 2293 
Q 1191 2003 1191 1497 
Q 1191 994 1439 701 
Q 1688 409 2113 409 
Q 2538 409 2786 701 
Q 3034 994 3034 1497 
Q 3034 2003 2786 2293 
Q 2538 2584 2113 2584 
z
M 3366 4563 
L 3366 3988 
Q 3128 4100 2886 4159 
Q 2644 4219 2406 4219 
Q 1781 4219 1451 3797 
Q 1122 3375 1075 2522 
Q 1259 2794 1537 2939 
Q 1816 3084 2150 3084 
Q 2853 3084 3261 2657 
Q 3669 2231 3669 1497 
Q 3669 778 3244 343 
Q 2819 -91 2113 -91 
Q 1303 -91 875 529 
Q 447 1150 447 2328 
Q 447 3434 972 4092 
Q 1497 4750 2381 4750 
Q 2619 4750 2861 4703 
Q 3103 4656 3366 4563 
z
" transform="scale(0.015625)"/>
       </defs>
       <use xlink:href="#DejaVuSans-30"/>
       <use xlink:href="#DejaVuSans-2e" x="63.623047"/>
       <use xlink:href="#DejaVuSans-36" x="95.410156"/>
       <use xlink:href="#DejaVuSans-33" x="159.033203"/>
      </g>
     </g>
    </g>
    <g id="ytick_5">
     <g id="line2d_25">
      <path d="M 57.6 155.52 
L 414.72 155.52 
" clip-path="url(#p35921cb1e6)" style="fill: none; stroke: #b0b0b0; stroke-width: 0.2; stroke-linecap: square"/>
     </g>
     <g id="line2d_26">
      <g>
       <use xlink:href="#ma05afd1f18" x="57.6" y="155.52" style="stroke: #000000; stroke-width: 0.8"/>
      </g>
     </g>
     <g id="text_14">
      <!-- 0.74 -->
      <g transform="translate(35.014062 158.179453) scale(0.07 -0.07)">
       <defs>
        <path id="DejaVuSans-37" d="M 525 4666 
L 3525 4666 
L 3525 4397 
L 1831 0 
L 1172 0 
L 2766 4134 
L 525 4134 
L 525 4666 
z
" transform="scale(0.015625)"/>
        <path id="DejaVuSans-34" d="M 2419 4116 
L 825 1625 
L 2419 1625 
L 2419 4116 
z
M 2253 4666 
L 3047 4666 
L 3047 1625 
L 3713 1625 
L 3713 1100 
L 3047 1100 
L 3047 0 
L 2419 0 
L 2419 1100 
L 313 1100 
L 313 1709 
L 2253 4666 
z
" transform="scale(0.015625)"/>
       </defs>
       <use xlink:href="#DejaVuSans-30"/>
       <use xlink:href="#DejaVuSans-2e" x="63.623047"/>
       <use xlink:href="#DejaVuSans-37" x="95.410156"/>
       <use xlink:href="#DejaVuSans-34" x="159.033203"/>
      </g>
     </g>
    </g>
    <g id="ytick_6">
     <g id="line2d_27">
      <path d="M 57.6 117.504 
L 414.72 117.504 
" clip-path="url(#p35921cb1e6)" style="fill: none; stroke: #b0b0b0; stroke-width: 0.2; stroke-linecap: square"/>
     </g>
     <g id="line2d_28">
      <g>
       <use xlink:href="#ma05afd1f18" x="57.6" y="117.504" style="stroke: #000000; stroke-width: 0.8"/>
      </g>
     </g>
     <g id="text_15">
      <!-- 0.86 -->
      <g transform="translate(35.014062 120.163453) scale(0.07 -0.07)">
       <use xlink:href="#DejaVuSans-30"/>
       <use xlink:href="#DejaVuSans-2e" x="63.623047"/>
       <use xlink:href="#DejaVuSans-38" x="95.410156"/>
       <use xlink:href="#DejaVuSans-36" x="159.033203"/>
      </g>
     </g>
    </g>
    <g id="ytick_7">
     <g id="line2d_29">
      <path d="M 57.6 79.488 
L 414.72 79.488 
" clip-path="url(#p35921cb1e6)" style="fill: none; stroke: #b0b0b0; stroke-width: 0.2; stroke-linecap: square"/>
     </g>
     <g id="line2d_30">
      <g>
       <use xlink:href="#ma05afd1f18" x="57.6" y="79.488" style="stroke: #000000; stroke-width: 0.8"/>
      </g>
     </g>
     <g id="text_16">
      <!-- 0.98 -->
      <g transform="translate(35.014062 82.147453) scale(0.07 -0.07)">
       <use xlink:href="#DejaVuSans-30"/>
       <use xlink:href="#DejaVuSans-2e" x="63.623047"/>
       <use xlink:href="#DejaVuSans-39" x="95.410156"/>
       <use xlink:href="#DejaVuSans-38" x="159.033203"/>
      </g>
     </g>
    </g>
    <g id="ytick_8">
     <g id="line2d_31">
      <path d="M 57.6 41.472 
L 414.72 41.472 
" clip-path="url(#p35921cb1e6)" style="fill: none; stroke: #b0b0b0; stroke-width: 0.2; stroke-linecap: square"/>
     </g>
     <g id="line2d_32">
      <g>
       <use xlink:href="#ma05afd1f18" x="57.6" y="41.472" style="stroke: #000000; stroke-width: 0.8"/>
      </g>
     </g>
     <g id="text_17">
      <!-- 1.10 -->
      <g transform="translate(35.014062 44.131453) scale(0.07 -0.07)">
       <use xlink:href="#DejaVuSans-31"/>
       <use xlink:href="#DejaVuSans-2e" x="63.623047"/>
       <use xlink:href="#DejaVuSans-31" x="95.410156"/>
       <use xlink:href="#DejaVuSans-30" x="159.033203"/>
      </g>
     </g>
    </g>
    <g id="text_18">
     <!-- $\frac{U_c}{U_{c0}}$ -->
     <g transform="translate(25.914062 53.872) rotate(-90) scale(0.1 -0.1)">
      <defs>
       <path id="DejaVuSans-Oblique-55" d="M 991 4666 
L 1625 4666 
L 1075 1831 
Q 1041 1641 1027 1517 
Q 1013 1394 1013 1300 
Q 1013 869 1253 645 
Q 1494 422 1959 422 
Q 2563 422 2898 753 
Q 3234 1084 3378 1831 
L 3928 4666 
L 4563 4666 
L 4000 1753 
Q 3816 809 3300 359 
Q 2784 -91 1888 -91 
Q 1188 -91 780 261 
Q 372 613 372 1216 
Q 372 1325 387 1461 
Q 403 1597 434 1753 
L 991 4666 
z
" transform="scale(0.015625)"/>
       <path id="DejaVuSans-Oblique-63" d="M 3431 3366 
L 3316 2797 
Q 3109 2947 2876 3022 
Q 2644 3097 2394 3097 
Q 2119 3097 1870 3000 
Q 1622 2903 1453 2725 
Q 1184 2453 1037 2087 
Q 891 1722 891 1331 
Q 891 859 1127 628 
Q 1363 397 1844 397 
Q 2081 397 2348 469 
Q 2616 541 2906 684 
L 2797 116 
Q 2547 13 2283 -39 
Q 2019 -91 1741 -91 
Q 1044 -91 669 257 
Q 294 606 294 1253 
Q 294 1797 489 2255 
Q 684 2713 1069 3078 
Q 1331 3328 1684 3456 
Q 2038 3584 2456 3584 
Q 2700 3584 2940 3529 
Q 3181 3475 3431 3366 
z
" transform="scale(0.015625)"/>
      </defs>
      <use xlink:href="#DejaVuSans-Oblique-55" transform="translate(16 56.965625) scale(0.7)"/>
      <use xlink:href="#DejaVuSans-Oblique-63" transform="translate(67.235352 45.48125) scale(0.49)"/>
      <use xlink:href="#DejaVuSans-Oblique-55" transform="translate(0 -37.499844) scale(0.7)"/>
      <use xlink:href="#DejaVuSans-Oblique-63" transform="translate(51.235352 -48.984219) scale(0.49)"/>
      <use xlink:href="#DejaVuSans-30" transform="translate(78.175781 -48.984219) scale(0.49)"/>
      <path d="M 0 19.784531 
L 0 26.034531 
L 111.265137 26.034531 
L 111.265137 19.784531 
L 0 19.784531 
z
"/>
     </g>
    </g>
   </g>
   <g id="LineCollection_1">
    <path d="M 84.001152 299.655644 
L 84.377179 299.655644 
" clip-path="url(#p35921cb1e6)" style="fill: none; stroke: #008000; stroke-width: 0.5"/>
    <path d="M 99.28012 290.468695 
L 99.66047 290.468695 
" clip-path="url(#p35921cb1e6)" style="fill: none; stroke: #008000; stroke-width: 0.5"/>
    <path d="M 114.559089 279.262048 
L 114.943761 279.262048 
" clip-path="url(#p35921cb1e6)" style="fill: none; stroke: #008000; stroke-width: 0.5"/>
    <path d="M 129.838058 265.320764 
L 130.227052 265.320764 
" clip-path="url(#p35921cb1e6)" style="fill: none; stroke: #008000; stroke-width: 0.5"/>
    <path d="M 145.117026 247.527753 
L 145.510342 247.527753 
" clip-path="url(#p35921cb1e6)" style="fill: none; stroke: #008000; stroke-width: 0.5"/>
    <path d="M 160.395995 224.37271 
L 160.793633 224.37271 
" clip-path="url(#p35921cb1e6)" style="fill: none; stroke: #008000; stroke-width: 0.5"/>
    <path d="M 175.674963 193.603581 
L 176.076924 193.603581 
" clip-path="url(#p35921cb1e6)" style="fill: none; stroke: #008000; stroke-width: 0.5"/>
    <path d="M 190.953932 153.272161 
L 191.360215 153.272161 
" clip-path="url(#p35921cb1e6)" style="fill: none; stroke: #008000; stroke-width: 0.5"/>
    <path d="M 206.2329 105.764555 
L 206.643505 105.764555 
" clip-path="url(#p35921cb1e6)" style="fill: none; stroke: #008000; stroke-width: 0.5"/>
    <path d="M 221.511869 66.469795 
L 221.926796 66.469795 
" clip-path="url(#p35921cb1e6)" style="fill: none; stroke: #008000; stroke-width: 0.5"/>
    <path d="M 236.790838 58.873582 
L 237.210087 58.873582 
" clip-path="url(#p35921cb1e6)" style="fill: none; stroke: #008000; stroke-width: 0.5"/>
    <path d="M 252.069806 84.611337 
L 252.493377 84.611337 
" clip-path="url(#p35921cb1e6)" style="fill: none; stroke: #008000; stroke-width: 0.5"/>
    <path d="M 267.348775 124.20101 
L 267.776668 124.20101 
" clip-path="url(#p35921cb1e6)" style="fill: none; stroke: #008000; stroke-width: 0.5"/>
    <path d="M 282.627743 163.52258 
L 283.059959 163.52258 
" clip-path="url(#p35921cb1e6)" style="fill: none; stroke: #008000; stroke-width: 0.5"/>
    <path d="M 297.906712 196.945915 
L 298.34325 196.945915 
" clip-path="url(#p35921cb1e6)" style="fill: none; stroke: #008000; stroke-width: 0.5"/>
    <path d="M 313.18568 224.587191 
L 313.62654 224.587191 
" clip-path="url(#p35921cb1e6)" style="fill: none; stroke: #008000; stroke-width: 0.5"/>
    <path d="M 328.464649 246.660891 
L 328.909831 246.660891 
" clip-path="url(#p35921cb1e6)" style="fill: none; stroke: #008000; stroke-width: 0.5"/>
    <path d="M 343.743618 264.641573 
L 344.193122 264.641573 
" clip-path="url(#p35921cb1e6)" style="fill: none; stroke: #008000; stroke-width: 0.5"/>
    <path d="M 359.022586 279.342478 
L 359.476413 279.342478 
" clip-path="url(#p35921cb1e6)" style="fill: none; stroke: #008000; stroke-width: 0.5"/>
    <path d="M 374.301555 296.871856 
L 374.759703 296.871856 
" clip-path="url(#p35921cb1e6)" style="fill: none; stroke: #008000; stroke-width: 0.5"/>
    <path d="M 381.941039 296.715463 
L 382.401349 296.715463 
" clip-path="url(#p35921cb1e6)" style="fill: none; stroke: #008000; stroke-width: 0.5"/>
    <path d="M 199.357365 127.498659 
L 199.766024 127.498659 
" clip-path="url(#p35921cb1e6)" style="fill: none; stroke: #008000; stroke-width: 0.5"/>
    <path d="M 228.31101 58.390999 
L 228.72786 58.390999 
" clip-path="url(#p35921cb1e6)" style="fill: none; stroke: #008000; stroke-width: 0.5"/>
    <path d="M 244.430322 68.641418 
L 244.851732 68.641418 
" clip-path="url(#p35921cb1e6)" style="fill: none; stroke: #008000; stroke-width: 0.5"/>
    <path d="M 200.121313 125.094682 
L 200.530189 125.094682 
" clip-path="url(#p35921cb1e6)" style="fill: none; stroke: #008000; stroke-width: 0.5"/>
    <path d="M 213.872385 83.985767 
L 214.285151 83.985767 
" clip-path="url(#p35921cb1e6)" style="fill: none; stroke: #008000; stroke-width: 0.5"/>
    <path d="M 258.181394 99.89313 
L 258.606694 99.89313 
" clip-path="url(#p35921cb1e6)" style="fill: none; stroke: #008000; stroke-width: 0.5"/>
    <path d="M 259.70929 103.646552 
L 260.135023 103.646552 
" clip-path="url(#p35921cb1e6)" style="fill: none; stroke: #008000; stroke-width: 0.5"/>
   </g>
   <g id="LineCollection_2">
    <path d="M 84.189166 299.724315 
L 84.189166 299.586973 
" clip-path="url(#p35921cb1e6)" style="fill: none; stroke: #008000; stroke-width: 0.5"/>
    <path d="M 99.470295 290.543862 
L 99.470295 290.393528 
" clip-path="url(#p35921cb1e6)" style="fill: none; stroke: #008000; stroke-width: 0.5"/>
    <path d="M 114.751425 279.345139 
L 114.751425 279.178956 
" clip-path="url(#p35921cb1e6)" style="fill: none; stroke: #008000; stroke-width: 0.5"/>
    <path d="M 130.032555 265.413713 
L 130.032555 265.227814 
" clip-path="url(#p35921cb1e6)" style="fill: none; stroke: #008000; stroke-width: 0.5"/>
    <path d="M 145.313684 247.633284 
L 145.313684 247.422222 
" clip-path="url(#p35921cb1e6)" style="fill: none; stroke: #008000; stroke-width: 0.5"/>
    <path d="M 160.594814 224.494614 
L 160.594814 224.250806 
" clip-path="url(#p35921cb1e6)" style="fill: none; stroke: #008000; stroke-width: 0.5"/>
    <path d="M 175.875944 193.747242 
L 175.875944 193.45992 
" clip-path="url(#p35921cb1e6)" style="fill: none; stroke: #008000; stroke-width: 0.5"/>
    <path d="M 191.157073 153.444341 
L 191.157073 153.099982 
" clip-path="url(#p35921cb1e6)" style="fill: none; stroke: #008000; stroke-width: 0.5"/>
    <path d="M 206.438203 105.970328 
L 206.438203 105.558782 
" clip-path="url(#p35921cb1e6)" style="fill: none; stroke: #008000; stroke-width: 0.5"/>
    <path d="M 221.719332 66.703353 
L 221.719332 66.236237 
" clip-path="url(#p35921cb1e6)" style="fill: none; stroke: #008000; stroke-width: 0.5"/>
    <path d="M 237.000462 59.112512 
L 237.000462 58.634653 
" clip-path="url(#p35921cb1e6)" style="fill: none; stroke: #008000; stroke-width: 0.5"/>
    <path d="M 252.281592 84.832068 
L 252.281592 84.390607 
" clip-path="url(#p35921cb1e6)" style="fill: none; stroke: #008000; stroke-width: 0.5"/>
    <path d="M 267.562721 124.393746 
L 267.562721 124.008273 
" clip-path="url(#p35921cb1e6)" style="fill: none; stroke: #008000; stroke-width: 0.5"/>
    <path d="M 282.843851 163.687511 
L 282.843851 163.357648 
" clip-path="url(#p35921cb1e6)" style="fill: none; stroke: #008000; stroke-width: 0.5"/>
    <path d="M 298.124981 197.087212 
L 298.124981 196.804617 
" clip-path="url(#p35921cb1e6)" style="fill: none; stroke: #008000; stroke-width: 0.5"/>
    <path d="M 313.40611 224.708944 
L 313.40611 224.465439 
" clip-path="url(#p35921cb1e6)" style="fill: none; stroke: #008000; stroke-width: 0.5"/>
    <path d="M 328.68724 246.767035 
L 328.68724 246.554747 
" clip-path="url(#p35921cb1e6)" style="fill: none; stroke: #008000; stroke-width: 0.5"/>
    <path d="M 343.96837 264.735003 
L 343.96837 264.548143 
" clip-path="url(#p35921cb1e6)" style="fill: none; stroke: #008000; stroke-width: 0.5"/>
    <path d="M 359.249499 279.425513 
L 359.249499 279.259444 
" clip-path="url(#p35921cb1e6)" style="fill: none; stroke: #008000; stroke-width: 0.5"/>
    <path d="M 374.530629 296.942495 
L 374.530629 296.801216 
" clip-path="url(#p35921cb1e6)" style="fill: none; stroke: #008000; stroke-width: 0.5"/>
    <path d="M 382.171194 296.786213 
L 382.171194 296.644713 
" clip-path="url(#p35921cb1e6)" style="fill: none; stroke: #008000; stroke-width: 0.5"/>
    <path d="M 199.561694 127.689064 
L 199.561694 127.308255 
" clip-path="url(#p35921cb1e6)" style="fill: none; stroke: #008000; stroke-width: 0.5"/>
    <path d="M 228.519435 58.63027 
L 228.519435 58.151729 
" clip-path="url(#p35921cb1e6)" style="fill: none; stroke: #008000; stroke-width: 0.5"/>
    <path d="M 244.641027 68.87344 
L 244.641027 68.409395 
" clip-path="url(#p35921cb1e6)" style="fill: none; stroke: #008000; stroke-width: 0.5"/>
    <path d="M 200.325751 125.286786 
L 200.325751 124.902577 
" clip-path="url(#p35921cb1e6)" style="fill: none; stroke: #008000; stroke-width: 0.5"/>
    <path d="M 214.078768 84.20694 
L 214.078768 83.764594 
" clip-path="url(#p35921cb1e6)" style="fill: none; stroke: #008000; stroke-width: 0.5"/>
    <path d="M 258.394044 100.103054 
L 258.394044 99.683205 
" clip-path="url(#p35921cb1e6)" style="fill: none; stroke: #008000; stroke-width: 0.5"/>
    <path d="M 259.922157 103.853823 
L 259.922157 103.439282 
" clip-path="url(#p35921cb1e6)" style="fill: none; stroke: #008000; stroke-width: 0.5"/>
   </g>
   <g id="LineCollection_3">
    <path d="M 102.540654 298.164468 
L 102.921926 298.164468 
" clip-path="url(#p35921cb1e6)" style="fill: none; stroke: #0000ff; stroke-width: 0.5"/>
    <path d="M 123.710441 282.778071 
L 124.097701 282.778071 
" clip-path="url(#p35921cb1e6)" style="fill: none; stroke: #0000ff; stroke-width: 0.5"/>
    <path d="M 144.880228 261.396764 
L 145.273477 261.396764 
" clip-path="url(#p35921cb1e6)" style="fill: none; stroke: #0000ff; stroke-width: 0.5"/>
    <path d="M 166.050015 230.28187 
L 166.449252 230.28187 
" clip-path="url(#p35921cb1e6)" style="fill: none; stroke: #0000ff; stroke-width: 0.5"/>
    <path d="M 187.219801 182.795004 
L 187.625028 182.795004 
" clip-path="url(#p35921cb1e6)" style="fill: none; stroke: #0000ff; stroke-width: 0.5"/>
    <path d="M 208.389588 116.354117 
L 208.800803 116.354117 
" clip-path="url(#p35921cb1e6)" style="fill: none; stroke: #0000ff; stroke-width: 0.5"/>
    <path d="M 229.559375 66.887953 
L 229.976579 66.887953 
" clip-path="url(#p35921cb1e6)" style="fill: none; stroke: #0000ff; stroke-width: 0.5"/>
    <path d="M 250.729162 88.065629 
L 251.152354 88.065629 
" clip-path="url(#p35921cb1e6)" style="fill: none; stroke: #0000ff; stroke-width: 0.5"/>
    <path d="M 271.898949 144.919544 
L 272.32813 144.919544 
" clip-path="url(#p35921cb1e6)" style="fill: none; stroke: #0000ff; stroke-width: 0.5"/>
    <path d="M 293.068736 196.641946 
L 293.503905 196.641946 
" clip-path="url(#p35921cb1e6)" style="fill: none; stroke: #0000ff; stroke-width: 0.5"/>
    <path d="M 314.238523 235.576289 
L 314.679681 235.576289 
" clip-path="url(#p35921cb1e6)" style="fill: none; stroke: #0000ff; stroke-width: 0.5"/>
    <path d="M 335.40831 264.174297 
L 335.855456 264.174297 
" clip-path="url(#p35921cb1e6)" style="fill: none; stroke: #0000ff; stroke-width: 0.5"/>
    <path d="M 356.578097 285.286812 
L 357.031232 285.286812 
" clip-path="url(#p35921cb1e6)" style="fill: none; stroke: #0000ff; stroke-width: 0.5"/>
    <path d="M 370.691288 296.388801 
L 371.148415 296.388801 
" clip-path="url(#p35921cb1e6)" style="fill: none; stroke: #0000ff; stroke-width: 0.5"/>
    <path d="M 201.332993 139.78803 
L 201.742211 139.78803 
" clip-path="url(#p35921cb1e6)" style="fill: none; stroke: #0000ff; stroke-width: 0.5"/>
    <path d="M 216.857503 90.264849 
L 217.271114 90.264849 
" clip-path="url(#p35921cb1e6)" style="fill: none; stroke: #0000ff; stroke-width: 0.5"/>
    <path d="M 243.672567 73.811424 
L 244.093762 73.811424 
" clip-path="url(#p35921cb1e6)" style="fill: none; stroke: #0000ff; stroke-width: 0.5"/>
    <path d="M 264.842354 125.533825 
L 265.269538 125.533825 
" clip-path="url(#p35921cb1e6)" style="fill: none; stroke: #0000ff; stroke-width: 0.5"/>
    <path d="M 282.483843 172.287618 
L 282.916018 172.287618 
" clip-path="url(#p35921cb1e6)" style="fill: none; stroke: #0000ff; stroke-width: 0.5"/>
   </g>
   <g id="LineCollection_4">
    <path d="M 102.73129 298.234193 
L 102.73129 298.094742 
" clip-path="url(#p35921cb1e6)" style="fill: none; stroke: #0000ff; stroke-width: 0.5"/>
    <path d="M 123.904071 282.858677 
L 123.904071 282.697466 
" clip-path="url(#p35921cb1e6)" style="fill: none; stroke: #0000ff; stroke-width: 0.5"/>
    <path d="M 145.076852 261.492488 
L 145.076852 261.30104 
" clip-path="url(#p35921cb1e6)" style="fill: none; stroke: #0000ff; stroke-width: 0.5"/>
    <path d="M 166.249633 230.399596 
L 166.249633 230.164145 
" clip-path="url(#p35921cb1e6)" style="fill: none; stroke: #0000ff; stroke-width: 0.5"/>
    <path d="M 187.422415 182.946308 
L 187.422415 182.6437 
" clip-path="url(#p35921cb1e6)" style="fill: none; stroke: #0000ff; stroke-width: 0.5"/>
    <path d="M 208.595196 116.552402 
L 208.595196 116.155833 
" clip-path="url(#p35921cb1e6)" style="fill: none; stroke: #0000ff; stroke-width: 0.5"/>
    <path d="M 229.767977 67.121215 
L 229.767977 66.65469 
" clip-path="url(#p35921cb1e6)" style="fill: none; stroke: #0000ff; stroke-width: 0.5"/>
    <path d="M 250.940758 88.283917 
L 250.940758 87.847341 
" clip-path="url(#p35921cb1e6)" style="fill: none; stroke: #0000ff; stroke-width: 0.5"/>
    <path d="M 272.113539 145.09763 
L 272.113539 144.741458 
" clip-path="url(#p35921cb1e6)" style="fill: none; stroke: #0000ff; stroke-width: 0.5"/>
    <path d="M 293.286321 196.783459 
L 293.286321 196.500433 
" clip-path="url(#p35921cb1e6)" style="fill: none; stroke: #0000ff; stroke-width: 0.5"/>
    <path d="M 314.459102 235.690271 
L 314.459102 235.462307 
" clip-path="url(#p35921cb1e6)" style="fill: none; stroke: #0000ff; stroke-width: 0.5"/>
    <path d="M 335.631883 264.268057 
L 335.631883 264.080537 
" clip-path="url(#p35921cb1e6)" style="fill: none; stroke: #0000ff; stroke-width: 0.5"/>
    <path d="M 356.804664 285.365643 
L 356.804664 285.20798 
" clip-path="url(#p35921cb1e6)" style="fill: none; stroke: #0000ff; stroke-width: 0.5"/>
    <path d="M 370.919852 296.459782 
L 370.919852 296.31782 
" clip-path="url(#p35921cb1e6)" style="fill: none; stroke: #0000ff; stroke-width: 0.5"/>
    <path d="M 201.537602 139.969745 
L 201.537602 139.606316 
" clip-path="url(#p35921cb1e6)" style="fill: none; stroke: #0000ff; stroke-width: 0.5"/>
    <path d="M 217.064308 90.481582 
L 217.064308 90.048117 
" clip-path="url(#p35921cb1e6)" style="fill: none; stroke: #0000ff; stroke-width: 0.5"/>
    <path d="M 243.883165 74.039791 
L 243.883165 73.583057 
" clip-path="url(#p35921cb1e6)" style="fill: none; stroke: #0000ff; stroke-width: 0.5"/>
    <path d="M 265.055946 125.725619 
L 265.055946 125.342032 
" clip-path="url(#p35921cb1e6)" style="fill: none; stroke: #0000ff; stroke-width: 0.5"/>
    <path d="M 282.69993 172.446352 
L 282.69993 172.128885 
" clip-path="url(#p35921cb1e6)" style="fill: none; stroke: #0000ff; stroke-width: 0.5"/>
   </g>
   <g id="line2d_33">
    <path d="M 84.189166 286.37684 
L 99.470295 276.63435 
L 114.751425 264.864236 
L 130.032555 250.458693 
L 145.313684 232.606486 
L 160.594814 210.281941 
L 175.875944 182.404966 
L 191.157073 148.59668 
L 199.561694 128.185934 
L 200.325751 126.311048 
L 206.438203 111.494931 
L 214.078768 94.426785 
L 221.719332 80.979167 
L 228.519435 73.933314 
L 237.000462 73.526823 
L 244.641027 81.403195 
L 252.281592 95.716284 
L 258.394044 110.268768 
L 259.922157 114.175976 
L 267.562721 134.477506 
L 282.843851 174.263543 
L 298.124981 208.279178 
L 313.40611 235.617349 
L 328.68724 257.295883 
L 343.96837 274.580631 
L 359.249499 288.531468 
L 374.530629 299.950113 
L 382.171194 304.900734 
" clip-path="url(#p35921cb1e6)" style="fill: none; stroke: #008000; stroke-width: 0.5; stroke-linecap: square"/>
   </g>
   <g id="line2d_34">
    <path d="M 102.73129 284.50038 
L 123.904071 267.775951 
L 145.076852 245.071188 
L 166.249633 213.385252 
L 187.422415 169.027963 
L 201.537602 132.293382 
L 208.595196 113.246053 
L 217.064308 92.432666 
L 229.767977 73.61896 
L 243.883165 81.477815 
L 250.940758 96.092202 
L 265.055946 135.558234 
L 272.113539 156.195541 
L 282.69993 184.933635 
L 293.286321 209.852729 
L 314.459102 248.516239 
L 335.631883 275.787395 
L 356.804664 295.506039 
L 370.919852 305.763857 
" clip-path="url(#p35921cb1e6)" style="fill: none; stroke: #0000ff; stroke-width: 0.5; stroke-linecap: square"/>
   </g>
   <g id="line2d_35">
    <defs>
     <path id="m4813add132" d="M 0 1.5 
C 0.397805 1.5 0.77937 1.341951 1.06066 1.06066 
C 1.341951 0.77937 1.5 0.397805 1.5 0 
C 1.5 -0.397805 1.341951 -0.77937 1.06066 -1.06066 
C 0.77937 -1.341951 0.397805 -1.5 0 -1.5 
C -0.397805 -1.5 -0.77937 -1.341951 -1.06066 -1.06066 
C -1.341951 -0.77937 -1.5 -0.397805 -1.5 0 
C -1.5 0.397805 -1.341951 0.77937 -1.06066 1.06066 
C -0.77937 1.341951 -0.397805 1.5 0 1.5 
z
" style="stroke: #008000"/>
    </defs>
    <g clip-path="url(#p35921cb1e6)">
     <use xlink:href="#m4813add132" x="84.189166" y="299.655644" style="fill: #008000; stroke: #008000"/>
     <use xlink:href="#m4813add132" x="99.470295" y="290.468695" style="fill: #008000; stroke: #008000"/>
     <use xlink:href="#m4813add132" x="114.751425" y="279.262048" style="fill: #008000; stroke: #008000"/>
     <use xlink:href="#m4813add132" x="130.032555" y="265.320764" style="fill: #008000; stroke: #008000"/>
     <use xlink:href="#m4813add132" x="145.313684" y="247.527753" style="fill: #008000; stroke: #008000"/>
     <use xlink:href="#m4813add132" x="160.594814" y="224.37271" style="fill: #008000; stroke: #008000"/>
     <use xlink:href="#m4813add132" x="175.875944" y="193.603581" style="fill: #008000; stroke: #008000"/>
     <use xlink:href="#m4813add132" x="191.157073" y="153.272161" style="fill: #008000; stroke: #008000"/>
     <use xlink:href="#m4813add132" x="206.438203" y="105.764555" style="fill: #008000; stroke: #008000"/>
     <use xlink:href="#m4813add132" x="221.719332" y="66.469795" style="fill: #008000; stroke: #008000"/>
     <use xlink:href="#m4813add132" x="237.000462" y="58.873582" style="fill: #008000; stroke: #008000"/>
     <use xlink:href="#m4813add132" x="252.281592" y="84.611337" style="fill: #008000; stroke: #008000"/>
     <use xlink:href="#m4813add132" x="267.562721" y="124.20101" style="fill: #008000; stroke: #008000"/>
     <use xlink:href="#m4813add132" x="282.843851" y="163.52258" style="fill: #008000; stroke: #008000"/>
     <use xlink:href="#m4813add132" x="298.124981" y="196.945915" style="fill: #008000; stroke: #008000"/>
     <use xlink:href="#m4813add132" x="313.40611" y="224.587191" style="fill: #008000; stroke: #008000"/>
     <use xlink:href="#m4813add132" x="328.68724" y="246.660891" style="fill: #008000; stroke: #008000"/>
     <use xlink:href="#m4813add132" x="343.96837" y="264.641573" style="fill: #008000; stroke: #008000"/>
     <use xlink:href="#m4813add132" x="359.249499" y="279.342478" style="fill: #008000; stroke: #008000"/>
     <use xlink:href="#m4813add132" x="374.530629" y="296.871856" style="fill: #008000; stroke: #008000"/>
     <use xlink:href="#m4813add132" x="382.171194" y="296.715463" style="fill: #008000; stroke: #008000"/>
     <use xlink:href="#m4813add132" x="199.561694" y="127.498659" style="fill: #008000; stroke: #008000"/>
     <use xlink:href="#m4813add132" x="228.519435" y="58.390999" style="fill: #008000; stroke: #008000"/>
     <use xlink:href="#m4813add132" x="244.641027" y="68.641418" style="fill: #008000; stroke: #008000"/>
     <use xlink:href="#m4813add132" x="200.325751" y="125.094682" style="fill: #008000; stroke: #008000"/>
     <use xlink:href="#m4813add132" x="214.078768" y="83.985767" style="fill: #008000; stroke: #008000"/>
     <use xlink:href="#m4813add132" x="258.394044" y="99.89313" style="fill: #008000; stroke: #008000"/>
     <use xlink:href="#m4813add132" x="259.922157" y="103.646552" style="fill: #008000; stroke: #008000"/>
    </g>
   </g>
   <g id="line2d_36">
    <defs>
     <path id="m228e191e9b" d="M 0 1.5 
C 0.397805 1.5 0.77937 1.341951 1.06066 1.06066 
C 1.341951 0.77937 1.5 0.397805 1.5 0 
C 1.5 -0.397805 1.341951 -0.77937 1.06066 -1.06066 
C 0.77937 -1.341951 0.397805 -1.5 0 -1.5 
C -0.397805 -1.5 -0.77937 -1.341951 -1.06066 -1.06066 
C -1.341951 -0.77937 -1.5 -0.397805 -1.5 0 
C -1.5 0.397805 -1.341951 0.77937 -1.06066 1.06066 
C -0.77937 1.341951 -0.397805 1.5 0 1.5 
z
" style="stroke: #0000ff"/>
    </defs>
    <g clip-path="url(#p35921cb1e6)">
     <use xlink:href="#m228e191e9b" x="102.73129" y="298.164468" style="fill: #0000ff; stroke: #0000ff"/>
     <use xlink:href="#m228e191e9b" x="123.904071" y="282.778071" style="fill: #0000ff; stroke: #0000ff"/>
     <use xlink:href="#m228e191e9b" x="145.076852" y="261.396764" style="fill: #0000ff; stroke: #0000ff"/>
     <use xlink:href="#m228e191e9b" x="166.249633" y="230.28187" style="fill: #0000ff; stroke: #0000ff"/>
     <use xlink:href="#m228e191e9b" x="187.422415" y="182.795004" style="fill: #0000ff; stroke: #0000ff"/>
     <use xlink:href="#m228e191e9b" x="208.595196" y="116.354117" style="fill: #0000ff; stroke: #0000ff"/>
     <use xlink:href="#m228e191e9b" x="229.767977" y="66.887953" style="fill: #0000ff; stroke: #0000ff"/>
     <use xlink:href="#m228e191e9b" x="250.940758" y="88.065629" style="fill: #0000ff; stroke: #0000ff"/>
     <use xlink:href="#m228e191e9b" x="272.113539" y="144.919544" style="fill: #0000ff; stroke: #0000ff"/>
     <use xlink:href="#m228e191e9b" x="293.286321" y="196.641946" style="fill: #0000ff; stroke: #0000ff"/>
     <use xlink:href="#m228e191e9b" x="314.459102" y="235.576289" style="fill: #0000ff; stroke: #0000ff"/>
     <use xlink:href="#m228e191e9b" x="335.631883" y="264.174297" style="fill: #0000ff; stroke: #0000ff"/>
     <use xlink:href="#m228e191e9b" x="356.804664" y="285.286812" style="fill: #0000ff; stroke: #0000ff"/>
     <use xlink:href="#m228e191e9b" x="370.919852" y="296.388801" style="fill: #0000ff; stroke: #0000ff"/>
     <use xlink:href="#m228e191e9b" x="201.537602" y="139.78803" style="fill: #0000ff; stroke: #0000ff"/>
     <use xlink:href="#m228e191e9b" x="217.064308" y="90.264849" style="fill: #0000ff; stroke: #0000ff"/>
     <use xlink:href="#m228e191e9b" x="243.883165" y="73.811424" style="fill: #0000ff; stroke: #0000ff"/>
     <use xlink:href="#m228e191e9b" x="265.055946" y="125.533825" style="fill: #0000ff; stroke: #0000ff"/>
     <use xlink:href="#m228e191e9b" x="282.69993" y="172.287618" style="fill: #0000ff; stroke: #0000ff"/>
    </g>
   </g>
   <g id="patch_3">
    <path d="M 57.6 307.584 
L 57.6 41.472 
" style="fill: none; stroke: #000000; stroke-width: 0.8; stroke-linejoin: miter; stroke-linecap: square"/>
   </g>
   <g id="patch_4">
    <path d="M 414.72 307.584 
L 414.72 41.472 
" style="fill: none; stroke: #000000; stroke-width: 0.8; stroke-linejoin: miter; stroke-linecap: square"/>
   </g>
   <g id="patch_5">
    <path d="M 57.6 307.584 
L 414.72 307.584 
" style="fill: none; stroke: #000000; stroke-width: 0.8; stroke-linejoin: miter; stroke-linecap: square"/>
   </g>
   <g id="patch_6">
    <path d="M 57.6 41.472 
L 414.72 41.472 
" style="fill: none; stroke: #000000; stroke-width: 0.8; stroke-linejoin: miter; stroke-linecap: square"/>
   </g>
   <g id="legend_1">
    <g id="patch_7">
     <path d="M 284.82 108.22825 
L 407.72 108.22825 
Q 409.72 108.22825 409.72 106.22825 
L 409.72 48.472 
Q 409.72 46.472 407.72 46.472 
L 284.82 46.472 
Q 282.82 46.472 282.82 48.472 
L 282.82 106.22825 
Q 282.82 108.22825 284.82 108.22825 
z
" style="fill: #ffffff; opacity: 0.8; stroke: #cccccc; stroke-linejoin: miter"/>
    </g>
    <g id="line2d_37">
     <path d="M 286.82 54.572 
L 296.82 54.572 
L 306.82 54.572 
" style="fill: none; stroke: #008000; stroke-width: 0.5; stroke-linecap: square"/>
    </g>
    <g id="text_19">
     <!-- $C_5$, approximation -->
     <g transform="translate(314.82 58.072) scale(0.1 -0.1)">
      <defs>
       <path id="DejaVuSans-Oblique-43" d="M 4447 4306 
L 4319 3641 
Q 4019 3944 3683 4091 
Q 3347 4238 2956 4238 
Q 2422 4238 2017 3981 
Q 1613 3725 1319 3200 
Q 1131 2863 1032 2486 
Q 934 2109 934 1728 
Q 934 1091 1264 756 
Q 1594 422 2222 422 
Q 2656 422 3056 561 
Q 3456 700 3834 978 
L 3688 231 
Q 3316 72 2936 -9 
Q 2556 -91 2175 -91 
Q 1278 -91 773 396 
Q 269 884 269 1753 
Q 269 2309 461 2846 
Q 653 3384 1013 3828 
Q 1394 4300 1883 4525 
Q 2372 4750 3022 4750 
Q 3422 4750 3780 4639 
Q 4138 4528 4447 4306 
z
" transform="scale(0.015625)"/>
       <path id="DejaVuSans-2c" d="M 750 794 
L 1409 794 
L 1409 256 
L 897 -744 
L 494 -744 
L 750 256 
L 750 794 
z
" transform="scale(0.015625)"/>
       <path id="DejaVuSans-20" transform="scale(0.015625)"/>
       <path id="DejaVuSans-61" d="M 2194 1759 
Q 1497 1759 1228 1600 
Q 959 1441 959 1056 
Q 959 750 1161 570 
Q 1363 391 1709 391 
Q 2188 391 2477 730 
Q 2766 1069 2766 1631 
L 2766 1759 
L 2194 1759 
z
M 3341 1997 
L 3341 0 
L 2766 0 
L 2766 531 
Q 2569 213 2275 61 
Q 1981 -91 1556 -91 
Q 1019 -91 701 211 
Q 384 513 384 1019 
Q 384 1609 779 1909 
Q 1175 2209 1959 2209 
L 2766 2209 
L 2766 2266 
Q 2766 2663 2505 2880 
Q 2244 3097 1772 3097 
Q 1472 3097 1187 3025 
Q 903 2953 641 2809 
L 641 3341 
Q 956 3463 1253 3523 
Q 1550 3584 1831 3584 
Q 2591 3584 2966 3190 
Q 3341 2797 3341 1997 
z
" transform="scale(0.015625)"/>
       <path id="DejaVuSans-70" d="M 1159 525 
L 1159 -1331 
L 581 -1331 
L 581 3500 
L 1159 3500 
L 1159 2969 
Q 1341 3281 1617 3432 
Q 1894 3584 2278 3584 
Q 2916 3584 3314 3078 
Q 3713 2572 3713 1747 
Q 3713 922 3314 415 
Q 2916 -91 2278 -91 
Q 1894 -91 1617 61 
Q 1341 213 1159 525 
z
M 3116 1747 
Q 3116 2381 2855 2742 
Q 2594 3103 2138 3103 
Q 1681 3103 1420 2742 
Q 1159 2381 1159 1747 
Q 1159 1113 1420 752 
Q 1681 391 2138 391 
Q 2594 391 2855 752 
Q 3116 1113 3116 1747 
z
" transform="scale(0.015625)"/>
       <path id="DejaVuSans-72" d="M 2631 2963 
Q 2534 3019 2420 3045 
Q 2306 3072 2169 3072 
Q 1681 3072 1420 2755 
Q 1159 2438 1159 1844 
L 1159 0 
L 581 0 
L 581 3500 
L 1159 3500 
L 1159 2956 
Q 1341 3275 1631 3429 
Q 1922 3584 2338 3584 
Q 2397 3584 2469 3576 
Q 2541 3569 2628 3553 
L 2631 2963 
z
" transform="scale(0.015625)"/>
       <path id="DejaVuSans-6f" d="M 1959 3097 
Q 1497 3097 1228 2736 
Q 959 2375 959 1747 
Q 959 1119 1226 758 
Q 1494 397 1959 397 
Q 2419 397 2687 759 
Q 2956 1122 2956 1747 
Q 2956 2369 2687 2733 
Q 2419 3097 1959 3097 
z
M 1959 3584 
Q 2709 3584 3137 3096 
Q 3566 2609 3566 1747 
Q 3566 888 3137 398 
Q 2709 -91 1959 -91 
Q 1206 -91 779 398 
Q 353 888 353 1747 
Q 353 2609 779 3096 
Q 1206 3584 1959 3584 
z
" transform="scale(0.015625)"/>
       <path id="DejaVuSans-78" d="M 3513 3500 
L 2247 1797 
L 3578 0 
L 2900 0 
L 1881 1375 
L 863 0 
L 184 0 
L 1544 1831 
L 300 3500 
L 978 3500 
L 1906 2253 
L 2834 3500 
L 3513 3500 
z
" transform="scale(0.015625)"/>
       <path id="DejaVuSans-69" d="M 603 3500 
L 1178 3500 
L 1178 0 
L 603 0 
L 603 3500 
z
M 603 4863 
L 1178 4863 
L 1178 4134 
L 603 4134 
L 603 4863 
z
" transform="scale(0.015625)"/>
       <path id="DejaVuSans-6d" d="M 3328 2828 
Q 3544 3216 3844 3400 
Q 4144 3584 4550 3584 
Q 5097 3584 5394 3201 
Q 5691 2819 5691 2113 
L 5691 0 
L 5113 0 
L 5113 2094 
Q 5113 2597 4934 2840 
Q 4756 3084 4391 3084 
Q 3944 3084 3684 2787 
Q 3425 2491 3425 1978 
L 3425 0 
L 2847 0 
L 2847 2094 
Q 2847 2600 2669 2842 
Q 2491 3084 2119 3084 
Q 1678 3084 1418 2786 
Q 1159 2488 1159 1978 
L 1159 0 
L 581 0 
L 581 3500 
L 1159 3500 
L 1159 2956 
Q 1356 3278 1631 3431 
Q 1906 3584 2284 3584 
Q 2666 3584 2933 3390 
Q 3200 3197 3328 2828 
z
" transform="scale(0.015625)"/>
       <path id="DejaVuSans-74" d="M 1172 4494 
L 1172 3500 
L 2356 3500 
L 2356 3053 
L 1172 3053 
L 1172 1153 
Q 1172 725 1289 603 
Q 1406 481 1766 481 
L 2356 481 
L 2356 0 
L 1766 0 
Q 1100 0 847 248 
Q 594 497 594 1153 
L 594 3053 
L 172 3053 
L 172 3500 
L 594 3500 
L 594 4494 
L 1172 4494 
z
" transform="scale(0.015625)"/>
       <path id="DejaVuSans-6e" d="M 3513 2113 
L 3513 0 
L 2938 0 
L 2938 2094 
Q 2938 2591 2744 2837 
Q 2550 3084 2163 3084 
Q 1697 3084 1428 2787 
Q 1159 2491 1159 1978 
L 1159 0 
L 581 0 
L 581 3500 
L 1159 3500 
L 1159 2956 
Q 1366 3272 1645 3428 
Q 1925 3584 2291 3584 
Q 2894 3584 3203 3211 
Q 3513 2838 3513 2113 
z
" transform="scale(0.015625)"/>
      </defs>
      <use xlink:href="#DejaVuSans-Oblique-43" transform="translate(0 0.015625)"/>
      <use xlink:href="#DejaVuSans-35" transform="translate(69.824219 -16.390625) scale(0.7)"/>
      <use xlink:href="#DejaVuSans-2c" transform="translate(117.094727 0.015625)"/>
      <use xlink:href="#DejaVuSans-20" transform="translate(148.881836 0.015625)"/>
      <use xlink:href="#DejaVuSans-61" transform="translate(180.668945 0.015625)"/>
      <use xlink:href="#DejaVuSans-70" transform="translate(241.948242 0.015625)"/>
      <use xlink:href="#DejaVuSans-70" transform="translate(305.424805 0.015625)"/>
      <use xlink:href="#DejaVuSans-72" transform="translate(368.901367 0.015625)"/>
      <use xlink:href="#DejaVuSans-6f" transform="translate(410.014648 0.015625)"/>
      <use xlink:href="#DejaVuSans-78" transform="translate(471.196289 0.015625)"/>
      <use xlink:href="#DejaVuSans-69" transform="translate(530.375977 0.015625)"/>
      <use xlink:href="#DejaVuSans-6d" transform="translate(558.15918 0.015625)"/>
      <use xlink:href="#DejaVuSans-61" transform="translate(655.571289 0.015625)"/>
      <use xlink:href="#DejaVuSans-74" transform="translate(716.850586 0.015625)"/>
      <use xlink:href="#DejaVuSans-69" transform="translate(756.05957 0.015625)"/>
      <use xlink:href="#DejaVuSans-6f" transform="translate(783.842773 0.015625)"/>
      <use xlink:href="#DejaVuSans-6e" transform="translate(845.024414 0.015625)"/>
     </g>
    </g>
    <g id="line2d_38">
     <path d="M 286.82 69.272 
L 296.82 69.272 
L 306.82 69.272 
" style="fill: none; stroke: #0000ff; stroke-width: 0.5; stroke-linecap: square"/>
    </g>
    <g id="text_20">
     <!-- $C_4$, approximation -->
     <g transform="translate(314.82 72.772) scale(0.1 -0.1)">
      <use xlink:href="#DejaVuSans-Oblique-43" transform="translate(0 0.015625)"/>
      <use xlink:href="#DejaVuSans-34" transform="translate(69.824219 -16.390625) scale(0.7)"/>
      <use xlink:href="#DejaVuSans-2c" transform="translate(117.094727 0.015625)"/>
      <use xlink:href="#DejaVuSans-20" transform="translate(148.881836 0.015625)"/>
      <use xlink:href="#DejaVuSans-61" transform="translate(180.668945 0.015625)"/>
      <use xlink:href="#DejaVuSans-70" transform="translate(241.948242 0.015625)"/>
      <use xlink:href="#DejaVuSans-70" transform="translate(305.424805 0.015625)"/>
      <use xlink:href="#DejaVuSans-72" transform="translate(368.901367 0.015625)"/>
      <use xlink:href="#DejaVuSans-6f" transform="translate(410.014648 0.015625)"/>
      <use xlink:href="#DejaVuSans-78" transform="translate(471.196289 0.015625)"/>
      <use xlink:href="#DejaVuSans-69" transform="translate(530.375977 0.015625)"/>
      <use xlink:href="#DejaVuSans-6d" transform="translate(558.15918 0.015625)"/>
      <use xlink:href="#DejaVuSans-61" transform="translate(655.571289 0.015625)"/>
      <use xlink:href="#DejaVuSans-74" transform="translate(716.850586 0.015625)"/>
      <use xlink:href="#DejaVuSans-69" transform="translate(756.05957 0.015625)"/>
      <use xlink:href="#DejaVuSans-6f" transform="translate(783.842773 0.015625)"/>
      <use xlink:href="#DejaVuSans-6e" transform="translate(845.024414 0.015625)"/>
     </g>
    </g>
    <g id="LineCollection_5">
     <path d="M 291.82 83.970438 
L 301.82 83.970438 
" style="fill: none; stroke: #008000; stroke-width: 0.5"/>
    </g>
    <g id="LineCollection_6">
     <path d="M 296.82 88.970438 
L 296.82 78.970438 
" style="fill: none; stroke: #008000; stroke-width: 0.5"/>
    </g>
    <g id="line2d_39"/>
    <g id="line2d_40">
     <g>
      <use xlink:href="#m4813add132" x="296.82" y="83.970438" style="fill: #008000; stroke: #008000"/>
     </g>
    </g>
    <g id="text_21">
     <!-- $C_5$=67.4  -->
     <g transform="translate(314.82 87.470438) scale(0.1 -0.1)">
      <defs>
       <path id="DejaVuSans-3d" d="M 678 2906 
L 4684 2906 
L 4684 2381 
L 678 2381 
L 678 2906 
z
M 678 1631 
L 4684 1631 
L 4684 1100 
L 678 1100 
L 678 1631 
z
" transform="scale(0.015625)"/>
       <path id="DejaVuSans-43d" d="M 581 3500 
L 1159 3500 
L 1159 2072 
L 3025 2072 
L 3025 3500 
L 3603 3500 
L 3603 0 
L 3025 0 
L 3025 1613 
L 1159 1613 
L 1159 0 
L 581 0 
L 581 3500 
z
" transform="scale(0.015625)"/>
       <path id="DejaVuSans-424" d="M 2441 3706 
Q 1763 3644 1403 3325 
Q 1044 3006 1044 2391 
Q 1044 1775 1403 1458 
Q 1763 1141 2441 1078 
L 2441 3706 
z
M 3075 1078 
Q 3753 1141 4109 1458 
Q 4466 1775 4466 2391 
Q 4466 3006 4109 3325 
Q 3753 3644 3075 3706 
L 3075 1078 
z
M 2441 556 
Q 1450 628 914 1095 
Q 378 1563 378 2391 
Q 378 3219 914 3689 
Q 1450 4159 2441 4231 
L 2441 4666 
L 3075 4666 
L 3075 4231 
Q 4066 4159 4598 3692 
Q 5131 3225 5131 2391 
Q 5131 1563 4598 1095 
Q 4066 628 3075 556 
L 3075 0 
L 2441 0 
L 2441 556 
z
" transform="scale(0.015625)"/>
      </defs>
      <use xlink:href="#DejaVuSans-Oblique-43" transform="translate(0 0.78125)"/>
      <use xlink:href="#DejaVuSans-35" transform="translate(69.824219 -15.625) scale(0.7)"/>
      <use xlink:href="#DejaVuSans-3d" transform="translate(117.094727 0.78125)"/>
      <use xlink:href="#DejaVuSans-36" transform="translate(200.883789 0.78125)"/>
      <use xlink:href="#DejaVuSans-37" transform="translate(264.506836 0.78125)"/>
      <use xlink:href="#DejaVuSans-2e" transform="translate(328.129883 0.78125)"/>
      <use xlink:href="#DejaVuSans-34" transform="translate(359.916992 0.78125)"/>
      <use xlink:href="#DejaVuSans-20" transform="translate(423.540039 0.78125)"/>
      <use xlink:href="#DejaVuSans-43d" transform="translate(455.327148 0.78125)"/>
      <use xlink:href="#DejaVuSans-424" transform="translate(520.708008 0.78125)"/>
     </g>
    </g>
    <g id="LineCollection_7">
     <path d="M 291.82 98.648562 
L 301.82 98.648562 
" style="fill: none; stroke: #0000ff; stroke-width: 0.5"/>
    </g>
    <g id="LineCollection_8">
     <path d="M 296.82 103.648562 
L 296.82 93.648562 
" style="fill: none; stroke: #0000ff; stroke-width: 0.5"/>
    </g>
    <g id="line2d_41"/>
    <g id="line2d_42">
     <g>
      <use xlink:href="#m228e191e9b" x="296.82" y="98.648562" style="fill: #0000ff; stroke: #0000ff"/>
     </g>
    </g>
    <g id="text_22">
     <!-- $C_4$=57.2  -->
     <g transform="translate(314.82 102.148562) scale(0.1 -0.1)">
      <use xlink:href="#DejaVuSans-Oblique-43" transform="translate(0 0.78125)"/>
      <use xlink:href="#DejaVuSans-34" transform="translate(69.824219 -15.625) scale(0.7)"/>
      <use xlink:href="#DejaVuSans-3d" transform="translate(117.094727 0.78125)"/>
      <use xlink:href="#DejaVuSans-35" transform="translate(200.883789 0.78125)"/>
      <use xlink:href="#DejaVuSans-37" transform="translate(257.256836 0.78125)"/>
      <use xlink:href="#DejaVuSans-2e" transform="translate(320.879883 0.78125)"/>
      <use xlink:href="#DejaVuSans-32" transform="translate(347.166992 0.78125)"/>
      <use xlink:href="#DejaVuSans-20" transform="translate(410.790039 0.78125)"/>
      <use xlink:href="#DejaVuSans-43d" transform="translate(442.577148 0.78125)"/>
      <use xlink:href="#DejaVuSans-424" transform="translate(507.958008 0.78125)"/>
     </g>
    </g>
   </g>
  </g>
  <g id="text_23">
   <!--   $0.3U_{c0}$ -->
   <g transform="translate(171.46 17.549812) scale(0.14 -0.14)">
    <defs>
     <path id="DejaVuSans-Bold-410" d="M 3419 850 
L 1538 850 
L 1241 0 
L 31 0 
L 1759 4666 
L 3194 4666 
L 4922 0 
L 3713 0 
L 3419 850 
z
M 1838 1716 
L 3116 1716 
L 2478 3572 
L 1838 1716 
z
" transform="scale(0.015625)"/>
     <path id="DejaVuSans-Bold-427" d="M 3381 0 
L 3381 1781 
L 1750 1781 
Q 1156 1781 836 2147 
Q 516 2513 516 3234 
L 516 4666 
L 1719 4666 
L 1719 3806 
Q 1719 3069 1834 2880 
Q 1950 2691 2244 2691 
L 3381 2691 
L 3381 4666 
L 4584 4666 
L 4584 0 
L 3381 0 
z
" transform="scale(0.015625)"/>
     <path id="DejaVuSans-Bold-425" d="M 3188 2381 
L 4806 0 
L 3553 0 
L 2463 1594 
L 1381 0 
L 122 0 
L 1741 2381 
L 184 4666 
L 1441 4666 
L 2463 3163 
L 3481 4666 
L 4744 4666 
L 3188 2381 
z
" transform="scale(0.015625)"/>
     <path id="DejaVuSans-Bold-20" transform="scale(0.015625)"/>
     <path id="DejaVuSans-Bold-434" d="M 547 800 
Q 903 919 1053 1314 
Q 1203 1709 1203 2838 
L 1203 3500 
L 4228 3500 
L 4228 800 
L 4809 800 
L 4809 -884 
L 4009 -884 
L 4009 0 
L 1159 0 
L 1159 -884 
L 359 -884 
L 359 800 
L 547 800 
z
M 3109 2700 
L 2322 2700 
L 2322 2603 
Q 2322 1456 2063 800 
L 3109 800 
L 3109 2700 
z
" transform="scale(0.015625)"/>
     <path id="DejaVuSans-Bold-43b" d="M 353 0 
L 353 800 
Q 906 913 1031 1278 
Q 1125 1556 1125 2928 
L 1125 3500 
L 4150 3500 
L 4150 0 
L 3031 0 
L 3031 2700 
L 2244 2700 
L 2244 2584 
Q 2244 1213 2028 813 
Q 1591 0 353 0 
z
" transform="scale(0.015625)"/>
     <path id="DejaVuSans-Bold-44f" d="M 1528 2394 
Q 1528 2169 1651 2069 
Q 1775 1969 2059 1969 
L 2463 1969 
L 2463 2816 
L 2059 2816 
Q 1775 2816 1651 2719 
Q 1528 2622 1528 2394 
z
M 197 0 
L 1113 1497 
Q 847 1650 650 1917 
Q 453 2184 453 2516 
Q 453 3013 789 3256 
Q 1125 3500 1878 3500 
L 3581 3500 
L 3581 0 
L 2463 0 
L 2463 1278 
L 2069 1278 
L 1288 0 
L 197 0 
z
" transform="scale(0.015625)"/>
    </defs>
    <use xlink:href="#DejaVuSans-Bold-410" transform="translate(0 0.78125)"/>
    <use xlink:href="#DejaVuSans-Bold-427" transform="translate(77.392578 0.78125)"/>
    <use xlink:href="#DejaVuSans-Bold-425" transform="translate(158.203125 0.78125)"/>
    <use xlink:href="#DejaVuSans-Bold-20" transform="translate(235.302734 0.78125)"/>
    <use xlink:href="#DejaVuSans-Bold-434" transform="translate(270.117188 0.78125)"/>
    <use xlink:href="#DejaVuSans-Bold-43b" transform="translate(350.878906 0.78125)"/>
    <use xlink:href="#DejaVuSans-Bold-44f" transform="translate(424.121094 0.78125)"/>
    <use xlink:href="#DejaVuSans-Bold-20" transform="translate(488.330078 0.78125)"/>
    <use xlink:href="#DejaVuSans-30" transform="translate(523.144531 0.78125)"/>
    <use xlink:href="#DejaVuSans-2e" transform="translate(586.767578 0.78125)"/>
    <use xlink:href="#DejaVuSans-33" transform="translate(618.554688 0.78125)"/>
    <use xlink:href="#DejaVuSans-Oblique-55" transform="translate(682.177734 0.78125)"/>
    <use xlink:href="#DejaVuSans-Oblique-63" transform="translate(755.371094 -15.625) scale(0.7)"/>
    <use xlink:href="#DejaVuSans-30" transform="translate(793.857422 -15.625) scale(0.7)"/>
   </g>
  </g>
 </g>
 <defs>
  <clipPath id="p35921cb1e6">
   <rect x="57.6" y="41.472" width="357.12" height="266.112"/>
  </clipPath>
 </defs>
</svg>
