<?xml version="1.0" encoding="utf-8" standalone="no"?>
<!DOCTYPE svg PUBLIC "-//W3C//DTD SVG 1.1//EN"
  "http://www.w3.org/Graphics/SVG/1.1/DTD/svg11.dtd">
<svg xmlns:xlink="http://www.w3.org/1999/xlink" width="460.8pt" height="345.6pt" viewBox="0 0 460.8 345.6" xmlns="http://www.w3.org/2000/svg" version="1.1">
 <metadata>
  <rdf:RDF xmlns:dc="http://purl.org/dc/elements/1.1/" xmlns:cc="http://creativecommons.org/ns#" xmlns:rdf="http://www.w3.org/1999/02/22-rdf-syntax-ns#">
   <cc:Work>
    <dc:type rdf:resource="http://purl.org/dc/dcmitype/StillImage"/>
    <dc:date>2024-09-15T15:47:59.213508</dc:date>
    <dc:format>image/svg+xml</dc:format>
    <dc:creator>
     <cc:Agent>
      <dc:title>Matplotlib v3.9.2, https://matplotlib.org/</dc:title>
     </cc:Agent>
    </dc:creator>
   </cc:Work>
  </rdf:RDF>
 </metadata>
 <defs>
  <style type="text/css">*{stroke-linejoin: round; stroke-linecap: butt}</style>
 </defs>
 <g id="figure_1">
  <g id="patch_1">
   <path d="M 0 345.6 
L 460.8 345.6 
L 460.8 0 
L 0 0 
z
" style="fill: #ffffff"/>
  </g>
  <g id="axes_1">
   <g id="patch_2">
    <path d="M 57.6 307.584 
L 414.72 307.584 
L 414.72 41.472 
L 57.6 41.472 
z
" style="fill: #ffffff"/>
   </g>
   <g id="matplotlib.axis_1">
    <g id="xtick_1">
     <g id="line2d_1">
      <path d="M 57.6 307.584 
L 57.6 41.472 
" clip-path="url(#pdbaa356fa4)" style="fill: none; stroke: #b0b0b0; stroke-width: 0.2; stroke-linecap: square"/>
     </g>
     <g id="line2d_2">
      <defs>
       <path id="mc99b0103f7" d="M 0 0 
L 0 3.5 
" style="stroke: #000000; stroke-width: 0.8"/>
      </defs>
      <g>
       <use xlink:href="#mc99b0103f7" x="57.6" y="307.584" style="stroke: #000000; stroke-width: 0.8"/>
      </g>
     </g>
     <g id="text_1">
      <!-- 0.95 -->
      <g transform="translate(49.807031 319.902906) scale(0.07 -0.07)">
       <defs>
        <path id="DejaVuSans-30" d="M 2034 4250 
Q 1547 4250 1301 3770 
Q 1056 3291 1056 2328 
Q 1056 1369 1301 889 
Q 1547 409 2034 409 
Q 2525 409 2770 889 
Q 3016 1369 3016 2328 
Q 3016 3291 2770 3770 
Q 2525 4250 2034 4250 
z
M 2034 4750 
Q 2819 4750 3233 4129 
Q 3647 3509 3647 2328 
Q 3647 1150 3233 529 
Q 2819 -91 2034 -91 
Q 1250 -91 836 529 
Q 422 1150 422 2328 
Q 422 3509 836 4129 
Q 1250 4750 2034 4750 
z
" transform="scale(0.015625)"/>
        <path id="DejaVuSans-2e" d="M 684 794 
L 1344 794 
L 1344 0 
L 684 0 
L 684 794 
z
" transform="scale(0.015625)"/>
        <path id="DejaVuSans-39" d="M 703 97 
L 703 672 
Q 941 559 1184 500 
Q 1428 441 1663 441 
Q 2288 441 2617 861 
Q 2947 1281 2994 2138 
Q 2813 1869 2534 1725 
Q 2256 1581 1919 1581 
Q 1219 1581 811 2004 
Q 403 2428 403 3163 
Q 403 3881 828 4315 
Q 1253 4750 1959 4750 
Q 2769 4750 3195 4129 
Q 3622 3509 3622 2328 
Q 3622 1225 3098 567 
Q 2575 -91 1691 -91 
Q 1453 -91 1209 -44 
Q 966 3 703 97 
z
M 1959 2075 
Q 2384 2075 2632 2365 
Q 2881 2656 2881 3163 
Q 2881 3666 2632 3958 
Q 2384 4250 1959 4250 
Q 1534 4250 1286 3958 
Q 1038 3666 1038 3163 
Q 1038 2656 1286 2365 
Q 1534 2075 1959 2075 
z
" transform="scale(0.015625)"/>
        <path id="DejaVuSans-35" d="M 691 4666 
L 3169 4666 
L 3169 4134 
L 1269 4134 
L 1269 2991 
Q 1406 3038 1543 3061 
Q 1681 3084 1819 3084 
Q 2600 3084 3056 2656 
Q 3513 2228 3513 1497 
Q 3513 744 3044 326 
Q 2575 -91 1722 -91 
Q 1428 -91 1123 -41 
Q 819 9 494 109 
L 494 744 
Q 775 591 1075 516 
Q 1375 441 1709 441 
Q 2250 441 2565 725 
Q 2881 1009 2881 1497 
Q 2881 1984 2565 2268 
Q 2250 2553 1709 2553 
Q 1456 2553 1204 2497 
Q 953 2441 691 2322 
L 691 4666 
z
" transform="scale(0.015625)"/>
       </defs>
       <use xlink:href="#DejaVuSans-30"/>
       <use xlink:href="#DejaVuSans-2e" x="63.623047"/>
       <use xlink:href="#DejaVuSans-39" x="95.410156"/>
       <use xlink:href="#DejaVuSans-35" x="159.033203"/>
      </g>
     </g>
    </g>
    <g id="xtick_2">
     <g id="line2d_3">
      <path d="M 108.617143 307.584 
L 108.617143 41.472 
" clip-path="url(#pdbaa356fa4)" style="fill: none; stroke: #b0b0b0; stroke-width: 0.2; stroke-linecap: square"/>
     </g>
     <g id="line2d_4">
      <g>
       <use xlink:href="#mc99b0103f7" x="108.617143" y="307.584" style="stroke: #000000; stroke-width: 0.8"/>
      </g>
     </g>
     <g id="text_2">
      <!-- 0.97 -->
      <g transform="translate(100.824174 319.902906) scale(0.07 -0.07)">
       <defs>
        <path id="DejaVuSans-37" d="M 525 4666 
L 3525 4666 
L 3525 4397 
L 1831 0 
L 1172 0 
L 2766 4134 
L 525 4134 
L 525 4666 
z
" transform="scale(0.015625)"/>
       </defs>
       <use xlink:href="#DejaVuSans-30"/>
       <use xlink:href="#DejaVuSans-2e" x="63.623047"/>
       <use xlink:href="#DejaVuSans-39" x="95.410156"/>
       <use xlink:href="#DejaVuSans-37" x="159.033203"/>
      </g>
     </g>
    </g>
    <g id="xtick_3">
     <g id="line2d_5">
      <path d="M 159.634286 307.584 
L 159.634286 41.472 
" clip-path="url(#pdbaa356fa4)" style="fill: none; stroke: #b0b0b0; stroke-width: 0.2; stroke-linecap: square"/>
     </g>
     <g id="line2d_6">
      <g>
       <use xlink:href="#mc99b0103f7" x="159.634286" y="307.584" style="stroke: #000000; stroke-width: 0.8"/>
      </g>
     </g>
     <g id="text_3">
      <!-- 0.98 -->
      <g transform="translate(151.841317 319.902906) scale(0.07 -0.07)">
       <defs>
        <path id="DejaVuSans-38" d="M 2034 2216 
Q 1584 2216 1326 1975 
Q 1069 1734 1069 1313 
Q 1069 891 1326 650 
Q 1584 409 2034 409 
Q 2484 409 2743 651 
Q 3003 894 3003 1313 
Q 3003 1734 2745 1975 
Q 2488 2216 2034 2216 
z
M 1403 2484 
Q 997 2584 770 2862 
Q 544 3141 544 3541 
Q 544 4100 942 4425 
Q 1341 4750 2034 4750 
Q 2731 4750 3128 4425 
Q 3525 4100 3525 3541 
Q 3525 3141 3298 2862 
Q 3072 2584 2669 2484 
Q 3125 2378 3379 2068 
Q 3634 1759 3634 1313 
Q 3634 634 3220 271 
Q 2806 -91 2034 -91 
Q 1263 -91 848 271 
Q 434 634 434 1313 
Q 434 1759 690 2068 
Q 947 2378 1403 2484 
z
M 1172 3481 
Q 1172 3119 1398 2916 
Q 1625 2713 2034 2713 
Q 2441 2713 2670 2916 
Q 2900 3119 2900 3481 
Q 2900 3844 2670 4047 
Q 2441 4250 2034 4250 
Q 1625 4250 1398 4047 
Q 1172 3844 1172 3481 
z
" transform="scale(0.015625)"/>
       </defs>
       <use xlink:href="#DejaVuSans-30"/>
       <use xlink:href="#DejaVuSans-2e" x="63.623047"/>
       <use xlink:href="#DejaVuSans-39" x="95.410156"/>
       <use xlink:href="#DejaVuSans-38" x="159.033203"/>
      </g>
     </g>
    </g>
    <g id="xtick_4">
     <g id="line2d_7">
      <path d="M 210.651429 307.584 
L 210.651429 41.472 
" clip-path="url(#pdbaa356fa4)" style="fill: none; stroke: #b0b0b0; stroke-width: 0.2; stroke-linecap: square"/>
     </g>
     <g id="line2d_8">
      <g>
       <use xlink:href="#mc99b0103f7" x="210.651429" y="307.584" style="stroke: #000000; stroke-width: 0.8"/>
      </g>
     </g>
     <g id="text_4">
      <!-- 0.99 -->
      <g transform="translate(202.85846 319.902906) scale(0.07 -0.07)">
       <use xlink:href="#DejaVuSans-30"/>
       <use xlink:href="#DejaVuSans-2e" x="63.623047"/>
       <use xlink:href="#DejaVuSans-39" x="95.410156"/>
       <use xlink:href="#DejaVuSans-39" x="159.033203"/>
      </g>
     </g>
    </g>
    <g id="xtick_5">
     <g id="line2d_9">
      <path d="M 261.668571 307.584 
L 261.668571 41.472 
" clip-path="url(#pdbaa356fa4)" style="fill: none; stroke: #b0b0b0; stroke-width: 0.2; stroke-linecap: square"/>
     </g>
     <g id="line2d_10">
      <g>
       <use xlink:href="#mc99b0103f7" x="261.668571" y="307.584" style="stroke: #000000; stroke-width: 0.8"/>
      </g>
     </g>
     <g id="text_5">
      <!-- 1.01 -->
      <g transform="translate(253.875603 319.902906) scale(0.07 -0.07)">
       <defs>
        <path id="DejaVuSans-31" d="M 794 531 
L 1825 531 
L 1825 4091 
L 703 3866 
L 703 4441 
L 1819 4666 
L 2450 4666 
L 2450 531 
L 3481 531 
L 3481 0 
L 794 0 
L 794 531 
z
" transform="scale(0.015625)"/>
       </defs>
       <use xlink:href="#DejaVuSans-31"/>
       <use xlink:href="#DejaVuSans-2e" x="63.623047"/>
       <use xlink:href="#DejaVuSans-30" x="95.410156"/>
       <use xlink:href="#DejaVuSans-31" x="159.033203"/>
      </g>
     </g>
    </g>
    <g id="xtick_6">
     <g id="line2d_11">
      <path d="M 312.685714 307.584 
L 312.685714 41.472 
" clip-path="url(#pdbaa356fa4)" style="fill: none; stroke: #b0b0b0; stroke-width: 0.2; stroke-linecap: square"/>
     </g>
     <g id="line2d_12">
      <g>
       <use xlink:href="#mc99b0103f7" x="312.685714" y="307.584" style="stroke: #000000; stroke-width: 0.8"/>
      </g>
     </g>
     <g id="text_6">
      <!-- 1.02 -->
      <g transform="translate(304.892746 319.902906) scale(0.07 -0.07)">
       <defs>
        <path id="DejaVuSans-32" d="M 1228 531 
L 3431 531 
L 3431 0 
L 469 0 
L 469 531 
Q 828 903 1448 1529 
Q 2069 2156 2228 2338 
Q 2531 2678 2651 2914 
Q 2772 3150 2772 3378 
Q 2772 3750 2511 3984 
Q 2250 4219 1831 4219 
Q 1534 4219 1204 4116 
Q 875 4013 500 3803 
L 500 4441 
Q 881 4594 1212 4672 
Q 1544 4750 1819 4750 
Q 2544 4750 2975 4387 
Q 3406 4025 3406 3419 
Q 3406 3131 3298 2873 
Q 3191 2616 2906 2266 
Q 2828 2175 2409 1742 
Q 1991 1309 1228 531 
z
" transform="scale(0.015625)"/>
       </defs>
       <use xlink:href="#DejaVuSans-31"/>
       <use xlink:href="#DejaVuSans-2e" x="63.623047"/>
       <use xlink:href="#DejaVuSans-30" x="95.410156"/>
       <use xlink:href="#DejaVuSans-32" x="159.033203"/>
      </g>
     </g>
    </g>
    <g id="xtick_7">
     <g id="line2d_13">
      <path d="M 363.702857 307.584 
L 363.702857 41.472 
" clip-path="url(#pdbaa356fa4)" style="fill: none; stroke: #b0b0b0; stroke-width: 0.2; stroke-linecap: square"/>
     </g>
     <g id="line2d_14">
      <g>
       <use xlink:href="#mc99b0103f7" x="363.702857" y="307.584" style="stroke: #000000; stroke-width: 0.8"/>
      </g>
     </g>
     <g id="text_7">
      <!-- 1.03 -->
      <g transform="translate(355.909888 319.902906) scale(0.07 -0.07)">
       <defs>
        <path id="DejaVuSans-33" d="M 2597 2516 
Q 3050 2419 3304 2112 
Q 3559 1806 3559 1356 
Q 3559 666 3084 287 
Q 2609 -91 1734 -91 
Q 1441 -91 1130 -33 
Q 819 25 488 141 
L 488 750 
Q 750 597 1062 519 
Q 1375 441 1716 441 
Q 2309 441 2620 675 
Q 2931 909 2931 1356 
Q 2931 1769 2642 2001 
Q 2353 2234 1838 2234 
L 1294 2234 
L 1294 2753 
L 1863 2753 
Q 2328 2753 2575 2939 
Q 2822 3125 2822 3475 
Q 2822 3834 2567 4026 
Q 2313 4219 1838 4219 
Q 1578 4219 1281 4162 
Q 984 4106 628 3988 
L 628 4550 
Q 988 4650 1302 4700 
Q 1616 4750 1894 4750 
Q 2613 4750 3031 4423 
Q 3450 4097 3450 3541 
Q 3450 3153 3228 2886 
Q 3006 2619 2597 2516 
z
" transform="scale(0.015625)"/>
       </defs>
       <use xlink:href="#DejaVuSans-31"/>
       <use xlink:href="#DejaVuSans-2e" x="63.623047"/>
       <use xlink:href="#DejaVuSans-30" x="95.410156"/>
       <use xlink:href="#DejaVuSans-33" x="159.033203"/>
      </g>
     </g>
    </g>
    <g id="xtick_8">
     <g id="line2d_15">
      <path d="M 414.72 307.584 
L 414.72 41.472 
" clip-path="url(#pdbaa356fa4)" style="fill: none; stroke: #b0b0b0; stroke-width: 0.2; stroke-linecap: square"/>
     </g>
     <g id="line2d_16">
      <g>
       <use xlink:href="#mc99b0103f7" x="414.72" y="307.584" style="stroke: #000000; stroke-width: 0.8"/>
      </g>
     </g>
     <g id="text_8">
      <!-- 1.05 -->
      <g transform="translate(406.927031 319.902906) scale(0.07 -0.07)">
       <use xlink:href="#DejaVuSans-31"/>
       <use xlink:href="#DejaVuSans-2e" x="63.623047"/>
       <use xlink:href="#DejaVuSans-30" x="95.410156"/>
       <use xlink:href="#DejaVuSans-35" x="159.033203"/>
      </g>
     </g>
    </g>
    <g id="text_9">
     <!-- $\frac{f}{f_0}$ -->
     <g transform="translate(407.62 335.058687) scale(0.1 -0.1)">
      <defs>
       <path id="DejaVuSans-Oblique-66" d="M 3059 4863 
L 2969 4384 
L 2419 4384 
Q 2106 4384 1964 4261 
Q 1822 4138 1753 3809 
L 1691 3500 
L 2638 3500 
L 2553 3053 
L 1606 3053 
L 1013 0 
L 434 0 
L 1031 3053 
L 481 3053 
L 563 3500 
L 1113 3500 
L 1159 3744 
Q 1278 4363 1576 4613 
Q 1875 4863 2516 4863 
L 3059 4863 
z
" transform="scale(0.015625)"/>
      </defs>
      <use xlink:href="#DejaVuSans-Oblique-66" transform="translate(17 43.810938) scale(0.7)"/>
      <use xlink:href="#DejaVuSans-Oblique-66" transform="translate(0 -40.628125) scale(0.7)"/>
      <use xlink:href="#DejaVuSans-30" transform="translate(24.643555 -52.1125) scale(0.49)"/>
      <path d="M 0 18.810937 
L 0 25.060937 
L 57.73291 25.060937 
L 57.73291 18.810937 
L 0 18.810937 
z
"/>
     </g>
    </g>
   </g>
   <g id="matplotlib.axis_2">
    <g id="ytick_1">
     <g id="line2d_17">
      <path d="M 57.6 307.584 
L 414.72 307.584 
" clip-path="url(#pdbaa356fa4)" style="fill: none; stroke: #b0b0b0; stroke-width: 0.2; stroke-linecap: square"/>
     </g>
     <g id="line2d_18">
      <defs>
       <path id="m58a588cbcc" d="M 0 0 
L -3.5 0 
" style="stroke: #000000; stroke-width: 0.8"/>
      </defs>
      <g>
       <use xlink:href="#m58a588cbcc" x="57.6" y="307.584" style="stroke: #000000; stroke-width: 0.8"/>
      </g>
     </g>
     <g id="text_10">
      <!-- 0.45 -->
      <g transform="translate(35.014063 310.243453) scale(0.07 -0.07)">
       <defs>
        <path id="DejaVuSans-34" d="M 2419 4116 
L 825 1625 
L 2419 1625 
L 2419 4116 
z
M 2253 4666 
L 3047 4666 
L 3047 1625 
L 3713 1625 
L 3713 1100 
L 3047 1100 
L 3047 0 
L 2419 0 
L 2419 1100 
L 313 1100 
L 313 1709 
L 2253 4666 
z
" transform="scale(0.015625)"/>
       </defs>
       <use xlink:href="#DejaVuSans-30"/>
       <use xlink:href="#DejaVuSans-2e" x="63.623047"/>
       <use xlink:href="#DejaVuSans-34" x="95.410156"/>
       <use xlink:href="#DejaVuSans-35" x="159.033203"/>
      </g>
     </g>
    </g>
    <g id="ytick_2">
     <g id="line2d_19">
      <path d="M 57.6 269.568 
L 414.72 269.568 
" clip-path="url(#pdbaa356fa4)" style="fill: none; stroke: #b0b0b0; stroke-width: 0.2; stroke-linecap: square"/>
     </g>
     <g id="line2d_20">
      <g>
       <use xlink:href="#m58a588cbcc" x="57.6" y="269.568" style="stroke: #000000; stroke-width: 0.8"/>
      </g>
     </g>
     <g id="text_11">
      <!-- 0.54 -->
      <g transform="translate(35.014063 272.227453) scale(0.07 -0.07)">
       <use xlink:href="#DejaVuSans-30"/>
       <use xlink:href="#DejaVuSans-2e" x="63.623047"/>
       <use xlink:href="#DejaVuSans-35" x="95.410156"/>
       <use xlink:href="#DejaVuSans-34" x="159.033203"/>
      </g>
     </g>
    </g>
    <g id="ytick_3">
     <g id="line2d_21">
      <path d="M 57.6 231.552 
L 414.72 231.552 
" clip-path="url(#pdbaa356fa4)" style="fill: none; stroke: #b0b0b0; stroke-width: 0.2; stroke-linecap: square"/>
     </g>
     <g id="line2d_22">
      <g>
       <use xlink:href="#m58a588cbcc" x="57.6" y="231.552" style="stroke: #000000; stroke-width: 0.8"/>
      </g>
     </g>
     <g id="text_12">
      <!-- 0.63 -->
      <g transform="translate(35.014063 234.211453) scale(0.07 -0.07)">
       <defs>
        <path id="DejaVuSans-36" d="M 2113 2584 
Q 1688 2584 1439 2293 
Q 1191 2003 1191 1497 
Q 1191 994 1439 701 
Q 1688 409 2113 409 
Q 2538 409 2786 701 
Q 3034 994 3034 1497 
Q 3034 2003 2786 2293 
Q 2538 2584 2113 2584 
z
M 3366 4563 
L 3366 3988 
Q 3128 4100 2886 4159 
Q 2644 4219 2406 4219 
Q 1781 4219 1451 3797 
Q 1122 3375 1075 2522 
Q 1259 2794 1537 2939 
Q 1816 3084 2150 3084 
Q 2853 3084 3261 2657 
Q 3669 2231 3669 1497 
Q 3669 778 3244 343 
Q 2819 -91 2113 -91 
Q 1303 -91 875 529 
Q 447 1150 447 2328 
Q 447 3434 972 4092 
Q 1497 4750 2381 4750 
Q 2619 4750 2861 4703 
Q 3103 4656 3366 4563 
z
" transform="scale(0.015625)"/>
       </defs>
       <use xlink:href="#DejaVuSans-30"/>
       <use xlink:href="#DejaVuSans-2e" x="63.623047"/>
       <use xlink:href="#DejaVuSans-36" x="95.410156"/>
       <use xlink:href="#DejaVuSans-33" x="159.033203"/>
      </g>
     </g>
    </g>
    <g id="ytick_4">
     <g id="line2d_23">
      <path d="M 57.6 193.536 
L 414.72 193.536 
" clip-path="url(#pdbaa356fa4)" style="fill: none; stroke: #b0b0b0; stroke-width: 0.2; stroke-linecap: square"/>
     </g>
     <g id="line2d_24">
      <g>
       <use xlink:href="#m58a588cbcc" x="57.6" y="193.536" style="stroke: #000000; stroke-width: 0.8"/>
      </g>
     </g>
     <g id="text_13">
      <!-- 0.73 -->
      <g transform="translate(35.014063 196.195453) scale(0.07 -0.07)">
       <use xlink:href="#DejaVuSans-30"/>
       <use xlink:href="#DejaVuSans-2e" x="63.623047"/>
       <use xlink:href="#DejaVuSans-37" x="95.410156"/>
       <use xlink:href="#DejaVuSans-33" x="159.033203"/>
      </g>
     </g>
    </g>
    <g id="ytick_5">
     <g id="line2d_25">
      <path d="M 57.6 155.52 
L 414.72 155.52 
" clip-path="url(#pdbaa356fa4)" style="fill: none; stroke: #b0b0b0; stroke-width: 0.2; stroke-linecap: square"/>
     </g>
     <g id="line2d_26">
      <g>
       <use xlink:href="#m58a588cbcc" x="57.6" y="155.52" style="stroke: #000000; stroke-width: 0.8"/>
      </g>
     </g>
     <g id="text_14">
      <!-- 0.82 -->
      <g transform="translate(35.014063 158.179453) scale(0.07 -0.07)">
       <use xlink:href="#DejaVuSans-30"/>
       <use xlink:href="#DejaVuSans-2e" x="63.623047"/>
       <use xlink:href="#DejaVuSans-38" x="95.410156"/>
       <use xlink:href="#DejaVuSans-32" x="159.033203"/>
      </g>
     </g>
    </g>
    <g id="ytick_6">
     <g id="line2d_27">
      <path d="M 57.6 117.504 
L 414.72 117.504 
" clip-path="url(#pdbaa356fa4)" style="fill: none; stroke: #b0b0b0; stroke-width: 0.2; stroke-linecap: square"/>
     </g>
     <g id="line2d_28">
      <g>
       <use xlink:href="#m58a588cbcc" x="57.6" y="117.504" style="stroke: #000000; stroke-width: 0.8"/>
      </g>
     </g>
     <g id="text_15">
      <!-- 0.91 -->
      <g transform="translate(35.014063 120.163453) scale(0.07 -0.07)">
       <use xlink:href="#DejaVuSans-30"/>
       <use xlink:href="#DejaVuSans-2e" x="63.623047"/>
       <use xlink:href="#DejaVuSans-39" x="95.410156"/>
       <use xlink:href="#DejaVuSans-31" x="159.033203"/>
      </g>
     </g>
    </g>
    <g id="ytick_7">
     <g id="line2d_29">
      <path d="M 57.6 79.488 
L 414.72 79.488 
" clip-path="url(#pdbaa356fa4)" style="fill: none; stroke: #b0b0b0; stroke-width: 0.2; stroke-linecap: square"/>
     </g>
     <g id="line2d_30">
      <g>
       <use xlink:href="#m58a588cbcc" x="57.6" y="79.488" style="stroke: #000000; stroke-width: 0.8"/>
      </g>
     </g>
     <g id="text_16">
      <!-- 1.01 -->
      <g transform="translate(35.014063 82.147453) scale(0.07 -0.07)">
       <use xlink:href="#DejaVuSans-31"/>
       <use xlink:href="#DejaVuSans-2e" x="63.623047"/>
       <use xlink:href="#DejaVuSans-30" x="95.410156"/>
       <use xlink:href="#DejaVuSans-31" x="159.033203"/>
      </g>
     </g>
    </g>
    <g id="ytick_8">
     <g id="line2d_31">
      <path d="M 57.6 41.472 
L 414.72 41.472 
" clip-path="url(#pdbaa356fa4)" style="fill: none; stroke: #b0b0b0; stroke-width: 0.2; stroke-linecap: square"/>
     </g>
     <g id="line2d_32">
      <g>
       <use xlink:href="#m58a588cbcc" x="57.6" y="41.472" style="stroke: #000000; stroke-width: 0.8"/>
      </g>
     </g>
     <g id="text_17">
      <!-- 1.10 -->
      <g transform="translate(35.014063 44.131453) scale(0.07 -0.07)">
       <use xlink:href="#DejaVuSans-31"/>
       <use xlink:href="#DejaVuSans-2e" x="63.623047"/>
       <use xlink:href="#DejaVuSans-31" x="95.410156"/>
       <use xlink:href="#DejaVuSans-30" x="159.033203"/>
      </g>
     </g>
    </g>
    <g id="text_18">
     <!-- $\frac{U_c}{U_{c0}}$ -->
     <g transform="translate(25.914063 53.872) rotate(-90) scale(0.1 -0.1)">
      <defs>
       <path id="DejaVuSans-Oblique-55" d="M 991 4666 
L 1625 4666 
L 1075 1831 
Q 1041 1641 1027 1517 
Q 1013 1394 1013 1300 
Q 1013 869 1253 645 
Q 1494 422 1959 422 
Q 2563 422 2898 753 
Q 3234 1084 3378 1831 
L 3928 4666 
L 4563 4666 
L 4000 1753 
Q 3816 809 3300 359 
Q 2784 -91 1888 -91 
Q 1188 -91 780 261 
Q 372 613 372 1216 
Q 372 1325 387 1461 
Q 403 1597 434 1753 
L 991 4666 
z
" transform="scale(0.015625)"/>
       <path id="DejaVuSans-Oblique-63" d="M 3431 3366 
L 3316 2797 
Q 3109 2947 2876 3022 
Q 2644 3097 2394 3097 
Q 2119 3097 1870 3000 
Q 1622 2903 1453 2725 
Q 1184 2453 1037 2087 
Q 891 1722 891 1331 
Q 891 859 1127 628 
Q 1363 397 1844 397 
Q 2081 397 2348 469 
Q 2616 541 2906 684 
L 2797 116 
Q 2547 13 2283 -39 
Q 2019 -91 1741 -91 
Q 1044 -91 669 257 
Q 294 606 294 1253 
Q 294 1797 489 2255 
Q 684 2713 1069 3078 
Q 1331 3328 1684 3456 
Q 2038 3584 2456 3584 
Q 2700 3584 2940 3529 
Q 3181 3475 3431 3366 
z
" transform="scale(0.015625)"/>
      </defs>
      <use xlink:href="#DejaVuSans-Oblique-55" transform="translate(16 56.965625) scale(0.7)"/>
      <use xlink:href="#DejaVuSans-Oblique-63" transform="translate(67.235352 45.48125) scale(0.49)"/>
      <use xlink:href="#DejaVuSans-Oblique-55" transform="translate(0 -37.499844) scale(0.7)"/>
      <use xlink:href="#DejaVuSans-Oblique-63" transform="translate(51.235352 -48.984219) scale(0.49)"/>
      <use xlink:href="#DejaVuSans-30" transform="translate(78.175781 -48.984219) scale(0.49)"/>
      <path d="M 0 19.784531 
L 0 26.034531 
L 111.265137 26.034531 
L 111.265137 19.784531 
L 0 19.784531 
z
"/>
     </g>
    </g>
   </g>
   <g id="LineCollection_1">
    <path d="M 176.998892 101.855008 
L 178.064607 101.855008 
" clip-path="url(#pdbaa356fa4)" style="fill: none; stroke: #008000; stroke-width: 0.5"/>
    <path d="M 157.243573 131.760715 
L 158.303699 131.760715 
" clip-path="url(#pdbaa356fa4)" style="fill: none; stroke: #008000; stroke-width: 0.5"/>
    <path d="M 64.393571 240.798051 
L 65.427433 240.798051 
" clip-path="url(#pdbaa356fa4)" style="fill: none; stroke: #008000; stroke-width: 0.5"/>
    <path d="M 261.946765 76.508511 
L 263.036511 76.508511 
" clip-path="url(#pdbaa356fa4)" style="fill: none; stroke: #008000; stroke-width: 0.5"/>
    <path d="M 301.457404 121.130083 
L 302.558326 121.130083 
" clip-path="url(#pdbaa356fa4)" style="fill: none; stroke: #008000; stroke-width: 0.5"/>
    <path d="M 406.160597 244.161033 
L 407.291138 244.161033 
" clip-path="url(#pdbaa356fa4)" style="fill: none; stroke: #008000; stroke-width: 0.5"/>
    <path d="M 366.649958 202.609028 
L 367.769322 202.609028 
" clip-path="url(#pdbaa356fa4)" style="fill: none; stroke: #008000; stroke-width: 0.5"/>
    <path d="M 287.62868 102.983525 
L 288.725691 102.983525 
" clip-path="url(#pdbaa356fa4)" style="fill: none; stroke: #008000; stroke-width: 0.5"/>
    <path d="M 123.65953 174.080112 
L 124.710156 174.080112 
" clip-path="url(#pdbaa356fa4)" style="fill: none; stroke: #008000; stroke-width: 0.5"/>
    <path d="M 90.075487 227.436407 
L 91.116613 227.436407 
" clip-path="url(#pdbaa356fa4)" style="fill: none; stroke: #008000; stroke-width: 0.5"/>
    <path d="M 109.830806 202.575172 
L 110.877521 202.575172 
" clip-path="url(#pdbaa356fa4)" style="fill: none; stroke: #008000; stroke-width: 0.5"/>
    <path d="M 346.894639 179.305147 
L 348.008414 179.305147 
" clip-path="url(#pdbaa356fa4)" style="fill: none; stroke: #008000; stroke-width: 0.5"/>
    <path d="M 380.478682 219.220802 
L 381.601958 219.220802 
" clip-path="url(#pdbaa356fa4)" style="fill: none; stroke: #008000; stroke-width: 0.5"/>
    <path d="M 252.069106 68.868449 
L 253.156057 68.868449 
" clip-path="url(#pdbaa356fa4)" style="fill: none; stroke: #008000; stroke-width: 0.5"/>
    <path d="M 212.558467 66.724266 
L 213.634241 66.724266 
" clip-path="url(#pdbaa356fa4)" style="fill: none; stroke: #008000; stroke-width: 0.5"/>
    <path d="M 331.090383 159.510954 
L 332.199688 159.510954 
" clip-path="url(#pdbaa356fa4)" style="fill: none; stroke: #008000; stroke-width: 0.5"/>
    <path d="M 123.65953 183.45809 
L 124.710156 183.45809 
" clip-path="url(#pdbaa356fa4)" style="fill: none; stroke: #008000; stroke-width: 0.5"/>
    <path d="M 192.803147 83.381181 
L 193.873333 83.381181 
" clip-path="url(#pdbaa356fa4)" style="fill: none; stroke: #008000; stroke-width: 0.5"/>
    <path d="M 222.436126 62.887308 
L 223.514695 62.887308 
" clip-path="url(#pdbaa356fa4)" style="fill: none; stroke: #008000; stroke-width: 0.5"/>
    <path d="M 123.65953 183.446805 
L 124.710156 183.446805 
" clip-path="url(#pdbaa356fa4)" style="fill: none; stroke: #008000; stroke-width: 0.5"/>
    <path d="M 167.121232 117.541398 
L 168.184153 117.541398 
" clip-path="url(#pdbaa356fa4)" style="fill: none; stroke: #008000; stroke-width: 0.5"/>
    <path d="M 275.182829 89.441318 
L 276.276319 89.441318 
" clip-path="url(#pdbaa356fa4)" style="fill: none; stroke: #008000; stroke-width: 0.5"/>
    <path d="M 237.252616 62.921163 
L 238.335376 62.921163 
" clip-path="url(#pdbaa356fa4)" style="fill: none; stroke: #008000; stroke-width: 0.5"/>
    <path d="M 133.537189 168.979214 
L 134.59061 168.979214 
" clip-path="url(#pdbaa356fa4)" style="fill: none; stroke: #008000; stroke-width: 0.5"/>
    <path d="M 315.286128 138.667241 
L 316.390962 138.667241 
" clip-path="url(#pdbaa356fa4)" style="fill: none; stroke: #008000; stroke-width: 0.5"/>
    <path d="M 145.390381 150.889082 
L 146.447155 150.889082 
" clip-path="url(#pdbaa356fa4)" style="fill: none; stroke: #008000; stroke-width: 0.5"/>
    <path d="M 200.507722 75.921682 
L 201.580087 75.921682 
" clip-path="url(#pdbaa356fa4)" style="fill: none; stroke: #008000; stroke-width: 0.5"/>
   </g>
   <g id="LineCollection_2">
    <path d="M 177.53175 102.130312 
L 177.53175 101.579704 
" clip-path="url(#pdbaa356fa4)" style="fill: none; stroke: #008000; stroke-width: 0.5"/>
    <path d="M 157.773636 132.014872 
L 157.773636 131.506558 
" clip-path="url(#pdbaa356fa4)" style="fill: none; stroke: #008000; stroke-width: 0.5"/>
    <path d="M 64.910502 240.975108 
L 64.910502 240.620995 
" clip-path="url(#pdbaa356fa4)" style="fill: none; stroke: #008000; stroke-width: 0.5"/>
    <path d="M 262.491638 76.801737 
L 262.491638 76.215284 
" clip-path="url(#pdbaa356fa4)" style="fill: none; stroke: #008000; stroke-width: 0.5"/>
    <path d="M 302.007865 121.391757 
L 302.007865 120.868408 
" clip-path="url(#pdbaa356fa4)" style="fill: none; stroke: #008000; stroke-width: 0.5"/>
    <path d="M 406.725867 244.335711 
L 406.725867 243.986354 
" clip-path="url(#pdbaa356fa4)" style="fill: none; stroke: #008000; stroke-width: 0.5"/>
    <path d="M 367.20964 202.813088 
L 367.20964 202.404968 
" clip-path="url(#pdbaa356fa4)" style="fill: none; stroke: #008000; stroke-width: 0.5"/>
    <path d="M 288.177186 103.258031 
L 288.177186 102.709019 
" clip-path="url(#pdbaa356fa4)" style="fill: none; stroke: #008000; stroke-width: 0.5"/>
    <path d="M 124.184843 174.304345 
L 124.184843 173.855879 
" clip-path="url(#pdbaa356fa4)" style="fill: none; stroke: #008000; stroke-width: 0.5"/>
    <path d="M 90.59605 227.622912 
L 90.59605 227.249903 
" clip-path="url(#pdbaa356fa4)" style="fill: none; stroke: #008000; stroke-width: 0.5"/>
    <path d="M 110.354163 202.779256 
L 110.354163 202.371088 
" clip-path="url(#pdbaa356fa4)" style="fill: none; stroke: #008000; stroke-width: 0.5"/>
    <path d="M 347.451526 179.525685 
L 347.451526 179.084608 
" clip-path="url(#pdbaa356fa4)" style="fill: none; stroke: #008000; stroke-width: 0.5"/>
    <path d="M 381.04032 219.413115 
L 381.04032 219.028488 
" clip-path="url(#pdbaa356fa4)" style="fill: none; stroke: #008000; stroke-width: 0.5"/>
    <path d="M 252.612581 69.167078 
L 252.612581 68.56982 
" clip-path="url(#pdbaa356fa4)" style="fill: none; stroke: #008000; stroke-width: 0.5"/>
    <path d="M 213.096354 67.024411 
L 213.096354 66.424121 
" clip-path="url(#pdbaa356fa4)" style="fill: none; stroke: #008000; stroke-width: 0.5"/>
    <path d="M 331.645036 159.745489 
L 331.645036 159.276419 
" clip-path="url(#pdbaa356fa4)" style="fill: none; stroke: #008000; stroke-width: 0.5"/>
    <path d="M 124.184843 183.675692 
L 124.184843 183.240488 
" clip-path="url(#pdbaa356fa4)" style="fill: none; stroke: #008000; stroke-width: 0.5"/>
    <path d="M 193.33824 83.669548 
L 193.33824 83.092814 
" clip-path="url(#pdbaa356fa4)" style="fill: none; stroke: #008000; stroke-width: 0.5"/>
    <path d="M 222.975411 63.190166 
L 222.975411 62.584449 
" clip-path="url(#pdbaa356fa4)" style="fill: none; stroke: #008000; stroke-width: 0.5"/>
    <path d="M 124.184843 183.664415 
L 124.184843 183.229195 
" clip-path="url(#pdbaa356fa4)" style="fill: none; stroke: #008000; stroke-width: 0.5"/>
    <path d="M 167.652693 117.80561 
L 167.652693 117.277186 
" clip-path="url(#pdbaa356fa4)" style="fill: none; stroke: #008000; stroke-width: 0.5"/>
    <path d="M 275.729574 89.7254 
L 275.729574 89.157237 
" clip-path="url(#pdbaa356fa4)" style="fill: none; stroke: #008000; stroke-width: 0.5"/>
    <path d="M 237.793996 63.223997 
L 237.793996 62.618329 
" clip-path="url(#pdbaa356fa4)" style="fill: none; stroke: #008000; stroke-width: 0.5"/>
    <path d="M 134.0639 169.207054 
L 134.0639 168.751374 
" clip-path="url(#pdbaa356fa4)" style="fill: none; stroke: #008000; stroke-width: 0.5"/>
    <path d="M 315.838545 138.916514 
L 315.838545 138.417967 
" clip-path="url(#pdbaa356fa4)" style="fill: none; stroke: #008000; stroke-width: 0.5"/>
    <path d="M 145.918768 151.129714 
L 145.918768 150.648451 
" clip-path="url(#pdbaa356fa4)" style="fill: none; stroke: #008000; stroke-width: 0.5"/>
    <path d="M 201.043905 76.215323 
L 201.043905 75.62804 
" clip-path="url(#pdbaa356fa4)" style="fill: none; stroke: #008000; stroke-width: 0.5"/>
   </g>
   <g id="LineCollection_3">
    <path d="M 90.280859 249.89031 
L 91.322043 249.89031 
" clip-path="url(#pdbaa356fa4)" style="fill: none; stroke: #0000ff; stroke-width: 0.5"/>
    <path d="M 126.776857 203.193111 
L 127.828365 203.193111 
" clip-path="url(#pdbaa356fa4)" style="fill: none; stroke: #0000ff; stroke-width: 0.5"/>
    <path d="M 163.272855 145.695899 
L 164.334687 145.695899 
" clip-path="url(#pdbaa356fa4)" style="fill: none; stroke: #0000ff; stroke-width: 0.5"/>
    <path d="M 199.768852 92.415835 
L 200.841009 92.415835 
" clip-path="url(#pdbaa356fa4)" style="fill: none; stroke: #0000ff; stroke-width: 0.5"/>
    <path d="M 236.26485 72.255811 
L 237.347331 72.255811 
" clip-path="url(#pdbaa356fa4)" style="fill: none; stroke: #0000ff; stroke-width: 0.5"/>
    <path d="M 272.760848 95.254696 
L 273.853652 95.254696 
" clip-path="url(#pdbaa356fa4)" style="fill: none; stroke: #0000ff; stroke-width: 0.5"/>
    <path d="M 309.256846 141.046751 
L 310.359974 141.046751 
" clip-path="url(#pdbaa356fa4)" style="fill: none; stroke: #0000ff; stroke-width: 0.5"/>
    <path d="M 345.752843 189.615952 
L 346.866296 189.615952 
" clip-path="url(#pdbaa356fa4)" style="fill: none; stroke: #0000ff; stroke-width: 0.5"/>
    <path d="M 382.248841 232.558861 
L 383.372618 232.558861 
" clip-path="url(#pdbaa356fa4)" style="fill: none; stroke: #0000ff; stroke-width: 0.5"/>
    <path d="M 400.49684 251.227455 
L 401.625779 251.227455 
" clip-path="url(#pdbaa356fa4)" style="fill: none; stroke: #0000ff; stroke-width: 0.5"/>
    <path d="M 405.97124 256.483461 
L 407.101727 256.483461 
" clip-path="url(#pdbaa356fa4)" style="fill: none; stroke: #0000ff; stroke-width: 0.5"/>
    <path d="M 205.243252 86.768971 
L 206.316957 86.768971 
" clip-path="url(#pdbaa356fa4)" style="fill: none; stroke: #0000ff; stroke-width: 0.5"/>
    <path d="M 181.520853 116.854722 
L 182.587848 116.854722 
" clip-path="url(#pdbaa356fa4)" style="fill: none; stroke: #0000ff; stroke-width: 0.5"/>
    <path d="M 256.337649 80.484392 
L 257.425808 80.484392 
" clip-path="url(#pdbaa356fa4)" style="fill: none; stroke: #0000ff; stroke-width: 0.5"/>
    <path d="M 289.184047 114.530148 
L 290.281497 114.530148 
" clip-path="url(#pdbaa356fa4)" style="fill: none; stroke: #0000ff; stroke-width: 0.5"/>
    <path d="M 220.571571 75.464958 
L 221.649612 75.464958 
" clip-path="url(#pdbaa356fa4)" style="fill: none; stroke: #0000ff; stroke-width: 0.5"/>
    <path d="M 298.308046 126.050161 
L 299.408078 126.050161 
" clip-path="url(#pdbaa356fa4)" style="fill: none; stroke: #0000ff; stroke-width: 0.5"/>
    <path d="M 150.499255 166.421639 
L 151.557474 166.421639 
" clip-path="url(#pdbaa356fa4)" style="fill: none; stroke: #0000ff; stroke-width: 0.5"/>
    <path d="M 141.375256 180.975942 
L 142.430894 180.975942 
" clip-path="url(#pdbaa356fa4)" style="fill: none; stroke: #0000ff; stroke-width: 0.5"/>
    <path d="M 190.644853 104.141564 
L 191.714428 104.141564 
" clip-path="url(#pdbaa356fa4)" style="fill: none; stroke: #0000ff; stroke-width: 0.5"/>
    <path d="M 278.235247 100.952988 
L 279.329601 100.952988 
" clip-path="url(#pdbaa356fa4)" style="fill: none; stroke: #0000ff; stroke-width: 0.5"/>
    <path d="M 332.979244 173.364504 
L 334.089083 173.364504 
" clip-path="url(#pdbaa356fa4)" style="fill: none; stroke: #0000ff; stroke-width: 0.5"/>
    <path d="M 176.046454 125.330161 
L 177.1119 125.330161 
" clip-path="url(#pdbaa356fa4)" style="fill: none; stroke: #0000ff; stroke-width: 0.5"/>
    <path d="M 320.205645 155.570197 
L 321.311871 155.570197 
" clip-path="url(#pdbaa356fa4)" style="fill: none; stroke: #0000ff; stroke-width: 0.5"/>
    <path d="M 110.353658 225.718853 
L 111.40052 225.718853 
" clip-path="url(#pdbaa356fa4)" style="fill: none; stroke: #0000ff; stroke-width: 0.5"/>
    <path d="M 364.000842 211.935979 
L 365.119457 211.935979 
" clip-path="url(#pdbaa356fa4)" style="fill: none; stroke: #0000ff; stroke-width: 0.5"/>
   </g>
   <g id="LineCollection_4">
    <path d="M 90.801451 250.060938 
L 90.801451 249.719683 
" clip-path="url(#pdbaa356fa4)" style="fill: none; stroke: #0000ff; stroke-width: 0.5"/>
    <path d="M 127.302611 203.396758 
L 127.302611 202.989464 
" clip-path="url(#pdbaa356fa4)" style="fill: none; stroke: #0000ff; stroke-width: 0.5"/>
    <path d="M 163.803771 145.940203 
L 163.803771 145.451596 
" clip-path="url(#pdbaa356fa4)" style="fill: none; stroke: #0000ff; stroke-width: 0.5"/>
    <path d="M 200.304931 92.697814 
L 200.304931 92.133857 
" clip-path="url(#pdbaa356fa4)" style="fill: none; stroke: #0000ff; stroke-width: 0.5"/>
    <path d="M 236.80609 72.552045 
L 236.80609 71.959577 
" clip-path="url(#pdbaa356fa4)" style="fill: none; stroke: #0000ff; stroke-width: 0.5"/>
    <path d="M 273.30725 95.534667 
L 273.30725 94.974725 
" clip-path="url(#pdbaa356fa4)" style="fill: none; stroke: #0000ff; stroke-width: 0.5"/>
    <path d="M 309.80841 141.294342 
L 309.80841 140.79916 
" clip-path="url(#pdbaa356fa4)" style="fill: none; stroke: #0000ff; stroke-width: 0.5"/>
    <path d="M 346.30957 189.8292 
L 346.30957 189.402705 
" clip-path="url(#pdbaa356fa4)" style="fill: none; stroke: #0000ff; stroke-width: 0.5"/>
    <path d="M 382.810729 232.741743 
L 382.810729 232.375979 
" clip-path="url(#pdbaa356fa4)" style="fill: none; stroke: #0000ff; stroke-width: 0.5"/>
    <path d="M 401.061309 251.397136 
L 401.061309 251.057773 
" clip-path="url(#pdbaa356fa4)" style="fill: none; stroke: #0000ff; stroke-width: 0.5"/>
    <path d="M 406.536483 256.649426 
L 406.536483 256.317496 
" clip-path="url(#pdbaa356fa4)" style="fill: none; stroke: #0000ff; stroke-width: 0.5"/>
    <path d="M 205.780104 87.054943 
L 205.780104 86.483 
" clip-path="url(#pdbaa356fa4)" style="fill: none; stroke: #0000ff; stroke-width: 0.5"/>
    <path d="M 182.054351 117.119419 
L 182.054351 116.590024 
" clip-path="url(#pdbaa356fa4)" style="fill: none; stroke: #0000ff; stroke-width: 0.5"/>
    <path d="M 256.881728 80.774807 
L 256.881728 80.193977 
" clip-path="url(#pdbaa356fa4)" style="fill: none; stroke: #0000ff; stroke-width: 0.5"/>
    <path d="M 289.732772 114.796489 
L 289.732772 114.263806 
" clip-path="url(#pdbaa356fa4)" style="fill: none; stroke: #0000ff; stroke-width: 0.5"/>
    <path d="M 221.110592 75.758922 
L 221.110592 75.170993 
" clip-path="url(#pdbaa356fa4)" style="fill: none; stroke: #0000ff; stroke-width: 0.5"/>
    <path d="M 298.858062 126.308357 
L 298.858062 125.791966 
" clip-path="url(#pdbaa356fa4)" style="fill: none; stroke: #0000ff; stroke-width: 0.5"/>
    <path d="M 151.028365 166.651287 
L 151.028365 166.19199 
" clip-path="url(#pdbaa356fa4)" style="fill: none; stroke: #0000ff; stroke-width: 0.5"/>
    <path d="M 141.903075 181.195299 
L 141.903075 180.756585 
" clip-path="url(#pdbaa356fa4)" style="fill: none; stroke: #0000ff; stroke-width: 0.5"/>
    <path d="M 191.179641 104.415251 
L 191.179641 103.867877 
" clip-path="url(#pdbaa356fa4)" style="fill: none; stroke: #0000ff; stroke-width: 0.5"/>
    <path d="M 278.782424 101.22893 
L 278.782424 100.677047 
" clip-path="url(#pdbaa356fa4)" style="fill: none; stroke: #0000ff; stroke-width: 0.5"/>
    <path d="M 333.534164 173.589243 
L 333.534164 173.139765 
" clip-path="url(#pdbaa356fa4)" style="fill: none; stroke: #0000ff; stroke-width: 0.5"/>
    <path d="M 176.579177 125.588865 
L 176.579177 125.071456 
" clip-path="url(#pdbaa356fa4)" style="fill: none; stroke: #0000ff; stroke-width: 0.5"/>
    <path d="M 320.758758 155.807518 
L 320.758758 155.332875 
" clip-path="url(#pdbaa356fa4)" style="fill: none; stroke: #0000ff; stroke-width: 0.5"/>
    <path d="M 110.877089 225.906572 
L 110.877089 225.531134 
" clip-path="url(#pdbaa356fa4)" style="fill: none; stroke: #0000ff; stroke-width: 0.5"/>
    <path d="M 364.56015 212.133444 
L 364.56015 211.738514 
" clip-path="url(#pdbaa356fa4)" style="fill: none; stroke: #0000ff; stroke-width: 0.5"/>
   </g>
   <g id="line2d_33">
    <path d="M 64.910502 232.294444 
L 90.59605 208.042987 
L 110.354163 187.41851 
L 124.184843 172.130324 
L 124.184843 172.130324 
L 124.184843 172.130324 
L 134.0639 160.913941 
L 145.918768 147.319849 
L 157.773636 133.854946 
L 167.652693 123.004705 
L 177.53175 112.776143 
L 193.33824 98.47968 
L 201.043905 92.781286 
L 213.096354 86.013391 
L 222.975411 82.723424 
L 237.793996 82.031434 
L 252.612581 86.562452 
L 262.491638 92.315291 
L 275.729574 102.978508 
L 288.177186 115.469352 
L 302.007865 131.296751 
L 315.838545 148.313882 
L 331.645036 168.263471 
L 347.451526 187.957038 
L 367.20964 211.406829 
L 381.04032 226.765003 
L 406.725867 252.696885 
" clip-path="url(#pdbaa356fa4)" style="fill: none; stroke: #008000; stroke-width: 0.5; stroke-linecap: square"/>
   </g>
   <g id="line2d_34">
    <path d="M 90.801451 230.587719 
L 110.877089 208.991057 
L 127.302611 189.646001 
L 141.903075 171.393861 
L 151.028365 159.646363 
L 163.803771 143.080393 
L 176.579177 126.89097 
L 182.054351 120.248508 
L 191.179641 109.828825 
L 200.304931 100.534608 
L 205.780104 95.654532 
L 221.110592 85.532682 
L 236.80609 81.728016 
L 256.881728 87.589815 
L 273.30725 100.600612 
L 278.782424 106.26642 
L 289.732772 119.106335 
L 298.858062 130.947047 
L 309.80841 145.987328 
L 320.758758 161.432847 
L 333.534164 179.406569 
L 346.30957 196.879002 
L 364.56015 220.394932 
L 382.810729 241.850299 
L 401.061309 261.15272 
L 406.536483 266.534632 
" clip-path="url(#pdbaa356fa4)" style="fill: none; stroke: #0000ff; stroke-width: 0.5; stroke-linecap: square"/>
   </g>
   <g id="line2d_35">
    <defs>
     <path id="m6b4eb087eb" d="M 0 1.5 
C 0.397805 1.5 0.77937 1.341951 1.06066 1.06066 
C 1.341951 0.77937 1.5 0.397805 1.5 0 
C 1.5 -0.397805 1.341951 -0.77937 1.06066 -1.06066 
C 0.77937 -1.341951 0.397805 -1.5 0 -1.5 
C -0.397805 -1.5 -0.77937 -1.341951 -1.06066 -1.06066 
C -1.341951 -0.77937 -1.5 -0.397805 -1.5 0 
C -1.5 0.397805 -1.341951 0.77937 -1.06066 1.06066 
C -0.77937 1.341951 -0.397805 1.5 0 1.5 
z
" style="stroke: #008000"/>
    </defs>
    <g clip-path="url(#pdbaa356fa4)">
     <use xlink:href="#m6b4eb087eb" x="177.53175" y="101.855008" style="fill: #008000; stroke: #008000"/>
     <use xlink:href="#m6b4eb087eb" x="157.773636" y="131.760715" style="fill: #008000; stroke: #008000"/>
     <use xlink:href="#m6b4eb087eb" x="64.910502" y="240.798051" style="fill: #008000; stroke: #008000"/>
     <use xlink:href="#m6b4eb087eb" x="262.491638" y="76.508511" style="fill: #008000; stroke: #008000"/>
     <use xlink:href="#m6b4eb087eb" x="302.007865" y="121.130083" style="fill: #008000; stroke: #008000"/>
     <use xlink:href="#m6b4eb087eb" x="406.725867" y="244.161033" style="fill: #008000; stroke: #008000"/>
     <use xlink:href="#m6b4eb087eb" x="367.20964" y="202.609028" style="fill: #008000; stroke: #008000"/>
     <use xlink:href="#m6b4eb087eb" x="288.177186" y="102.983525" style="fill: #008000; stroke: #008000"/>
     <use xlink:href="#m6b4eb087eb" x="124.184843" y="174.080112" style="fill: #008000; stroke: #008000"/>
     <use xlink:href="#m6b4eb087eb" x="90.59605" y="227.436407" style="fill: #008000; stroke: #008000"/>
     <use xlink:href="#m6b4eb087eb" x="110.354163" y="202.575172" style="fill: #008000; stroke: #008000"/>
     <use xlink:href="#m6b4eb087eb" x="347.451526" y="179.305147" style="fill: #008000; stroke: #008000"/>
     <use xlink:href="#m6b4eb087eb" x="381.04032" y="219.220802" style="fill: #008000; stroke: #008000"/>
     <use xlink:href="#m6b4eb087eb" x="252.612581" y="68.868449" style="fill: #008000; stroke: #008000"/>
     <use xlink:href="#m6b4eb087eb" x="213.096354" y="66.724266" style="fill: #008000; stroke: #008000"/>
     <use xlink:href="#m6b4eb087eb" x="331.645036" y="159.510954" style="fill: #008000; stroke: #008000"/>
     <use xlink:href="#m6b4eb087eb" x="124.184843" y="183.45809" style="fill: #008000; stroke: #008000"/>
     <use xlink:href="#m6b4eb087eb" x="193.33824" y="83.381181" style="fill: #008000; stroke: #008000"/>
     <use xlink:href="#m6b4eb087eb" x="222.975411" y="62.887308" style="fill: #008000; stroke: #008000"/>
     <use xlink:href="#m6b4eb087eb" x="124.184843" y="183.446805" style="fill: #008000; stroke: #008000"/>
     <use xlink:href="#m6b4eb087eb" x="167.652693" y="117.541398" style="fill: #008000; stroke: #008000"/>
     <use xlink:href="#m6b4eb087eb" x="275.729574" y="89.441318" style="fill: #008000; stroke: #008000"/>
     <use xlink:href="#m6b4eb087eb" x="237.793996" y="62.921163" style="fill: #008000; stroke: #008000"/>
     <use xlink:href="#m6b4eb087eb" x="134.0639" y="168.979214" style="fill: #008000; stroke: #008000"/>
     <use xlink:href="#m6b4eb087eb" x="315.838545" y="138.667241" style="fill: #008000; stroke: #008000"/>
     <use xlink:href="#m6b4eb087eb" x="145.918768" y="150.889082" style="fill: #008000; stroke: #008000"/>
     <use xlink:href="#m6b4eb087eb" x="201.043905" y="75.921682" style="fill: #008000; stroke: #008000"/>
    </g>
   </g>
   <g id="line2d_36">
    <defs>
     <path id="m3268972320" d="M 0 1.5 
C 0.397805 1.5 0.77937 1.341951 1.06066 1.06066 
C 1.341951 0.77937 1.5 0.397805 1.5 0 
C 1.5 -0.397805 1.341951 -0.77937 1.06066 -1.06066 
C 0.77937 -1.341951 0.397805 -1.5 0 -1.5 
C -0.397805 -1.5 -0.77937 -1.341951 -1.06066 -1.06066 
C -1.341951 -0.77937 -1.5 -0.397805 -1.5 0 
C -1.5 0.397805 -1.341951 0.77937 -1.06066 1.06066 
C -0.77937 1.341951 -0.397805 1.5 0 1.5 
z
" style="stroke: #0000ff"/>
    </defs>
    <g clip-path="url(#pdbaa356fa4)">
     <use xlink:href="#m3268972320" x="90.801451" y="249.89031" style="fill: #0000ff; stroke: #0000ff"/>
     <use xlink:href="#m3268972320" x="127.302611" y="203.193111" style="fill: #0000ff; stroke: #0000ff"/>
     <use xlink:href="#m3268972320" x="163.803771" y="145.695899" style="fill: #0000ff; stroke: #0000ff"/>
     <use xlink:href="#m3268972320" x="200.304931" y="92.415835" style="fill: #0000ff; stroke: #0000ff"/>
     <use xlink:href="#m3268972320" x="236.80609" y="72.255811" style="fill: #0000ff; stroke: #0000ff"/>
     <use xlink:href="#m3268972320" x="273.30725" y="95.254696" style="fill: #0000ff; stroke: #0000ff"/>
     <use xlink:href="#m3268972320" x="309.80841" y="141.046751" style="fill: #0000ff; stroke: #0000ff"/>
     <use xlink:href="#m3268972320" x="346.30957" y="189.615952" style="fill: #0000ff; stroke: #0000ff"/>
     <use xlink:href="#m3268972320" x="382.810729" y="232.558861" style="fill: #0000ff; stroke: #0000ff"/>
     <use xlink:href="#m3268972320" x="401.061309" y="251.227455" style="fill: #0000ff; stroke: #0000ff"/>
     <use xlink:href="#m3268972320" x="406.536483" y="256.483461" style="fill: #0000ff; stroke: #0000ff"/>
     <use xlink:href="#m3268972320" x="205.780104" y="86.768971" style="fill: #0000ff; stroke: #0000ff"/>
     <use xlink:href="#m3268972320" x="182.054351" y="116.854722" style="fill: #0000ff; stroke: #0000ff"/>
     <use xlink:href="#m3268972320" x="256.881728" y="80.484392" style="fill: #0000ff; stroke: #0000ff"/>
     <use xlink:href="#m3268972320" x="289.732772" y="114.530148" style="fill: #0000ff; stroke: #0000ff"/>
     <use xlink:href="#m3268972320" x="221.110592" y="75.464958" style="fill: #0000ff; stroke: #0000ff"/>
     <use xlink:href="#m3268972320" x="298.858062" y="126.050161" style="fill: #0000ff; stroke: #0000ff"/>
     <use xlink:href="#m3268972320" x="151.028365" y="166.421639" style="fill: #0000ff; stroke: #0000ff"/>
     <use xlink:href="#m3268972320" x="141.903075" y="180.975942" style="fill: #0000ff; stroke: #0000ff"/>
     <use xlink:href="#m3268972320" x="191.179641" y="104.141564" style="fill: #0000ff; stroke: #0000ff"/>
     <use xlink:href="#m3268972320" x="278.782424" y="100.952988" style="fill: #0000ff; stroke: #0000ff"/>
     <use xlink:href="#m3268972320" x="333.534164" y="173.364504" style="fill: #0000ff; stroke: #0000ff"/>
     <use xlink:href="#m3268972320" x="176.579177" y="125.330161" style="fill: #0000ff; stroke: #0000ff"/>
     <use xlink:href="#m3268972320" x="320.758758" y="155.570197" style="fill: #0000ff; stroke: #0000ff"/>
     <use xlink:href="#m3268972320" x="110.877089" y="225.718853" style="fill: #0000ff; stroke: #0000ff"/>
     <use xlink:href="#m3268972320" x="364.56015" y="211.935979" style="fill: #0000ff; stroke: #0000ff"/>
    </g>
   </g>
   <g id="patch_3">
    <path d="M 57.6 307.584 
L 57.6 41.472 
" style="fill: none; stroke: #000000; stroke-width: 0.8; stroke-linejoin: miter; stroke-linecap: square"/>
   </g>
   <g id="patch_4">
    <path d="M 414.72 307.584 
L 414.72 41.472 
" style="fill: none; stroke: #000000; stroke-width: 0.8; stroke-linejoin: miter; stroke-linecap: square"/>
   </g>
   <g id="patch_5">
    <path d="M 57.6 307.584 
L 414.72 307.584 
" style="fill: none; stroke: #000000; stroke-width: 0.8; stroke-linejoin: miter; stroke-linecap: square"/>
   </g>
   <g id="patch_6">
    <path d="M 57.6 41.472 
L 414.72 41.472 
" style="fill: none; stroke: #000000; stroke-width: 0.8; stroke-linejoin: miter; stroke-linecap: square"/>
   </g>
   <g id="legend_1">
    <g id="patch_7">
     <path d="M 332.44 103 
L 455.34 103 
Q 457.34 103 457.34 101 
L 457.34 43.24375 
Q 457.34 41.24375 455.34 41.24375 
L 332.44 41.24375 
Q 330.44 41.24375 330.44 43.24375 
L 330.44 101 
Q 330.44 103 332.44 103 
z
" style="fill: #ffffff; opacity: 0.8; stroke: #cccccc; stroke-linejoin: miter"/>
    </g>
    <g id="line2d_37">
     <path d="M 334.44 49.34375 
L 344.44 49.34375 
L 354.44 49.34375 
" style="fill: none; stroke: #008000; stroke-width: 0.5; stroke-linecap: square"/>
    </g>
    <g id="text_19">
     <!-- $C_5$, approximation -->
     <g transform="translate(362.44 52.84375) scale(0.1 -0.1)">
      <defs>
       <path id="DejaVuSans-Oblique-43" d="M 4447 4306 
L 4319 3641 
Q 4019 3944 3683 4091 
Q 3347 4238 2956 4238 
Q 2422 4238 2017 3981 
Q 1613 3725 1319 3200 
Q 1131 2863 1032 2486 
Q 934 2109 934 1728 
Q 934 1091 1264 756 
Q 1594 422 2222 422 
Q 2656 422 3056 561 
Q 3456 700 3834 978 
L 3688 231 
Q 3316 72 2936 -9 
Q 2556 -91 2175 -91 
Q 1278 -91 773 396 
Q 269 884 269 1753 
Q 269 2309 461 2846 
Q 653 3384 1013 3828 
Q 1394 4300 1883 4525 
Q 2372 4750 3022 4750 
Q 3422 4750 3780 4639 
Q 4138 4528 4447 4306 
z
" transform="scale(0.015625)"/>
       <path id="DejaVuSans-2c" d="M 750 794 
L 1409 794 
L 1409 256 
L 897 -744 
L 494 -744 
L 750 256 
L 750 794 
z
" transform="scale(0.015625)"/>
       <path id="DejaVuSans-20" transform="scale(0.015625)"/>
       <path id="DejaVuSans-61" d="M 2194 1759 
Q 1497 1759 1228 1600 
Q 959 1441 959 1056 
Q 959 750 1161 570 
Q 1363 391 1709 391 
Q 2188 391 2477 730 
Q 2766 1069 2766 1631 
L 2766 1759 
L 2194 1759 
z
M 3341 1997 
L 3341 0 
L 2766 0 
L 2766 531 
Q 2569 213 2275 61 
Q 1981 -91 1556 -91 
Q 1019 -91 701 211 
Q 384 513 384 1019 
Q 384 1609 779 1909 
Q 1175 2209 1959 2209 
L 2766 2209 
L 2766 2266 
Q 2766 2663 2505 2880 
Q 2244 3097 1772 3097 
Q 1472 3097 1187 3025 
Q 903 2953 641 2809 
L 641 3341 
Q 956 3463 1253 3523 
Q 1550 3584 1831 3584 
Q 2591 3584 2966 3190 
Q 3341 2797 3341 1997 
z
" transform="scale(0.015625)"/>
       <path id="DejaVuSans-70" d="M 1159 525 
L 1159 -1331 
L 581 -1331 
L 581 3500 
L 1159 3500 
L 1159 2969 
Q 1341 3281 1617 3432 
Q 1894 3584 2278 3584 
Q 2916 3584 3314 3078 
Q 3713 2572 3713 1747 
Q 3713 922 3314 415 
Q 2916 -91 2278 -91 
Q 1894 -91 1617 61 
Q 1341 213 1159 525 
z
M 3116 1747 
Q 3116 2381 2855 2742 
Q 2594 3103 2138 3103 
Q 1681 3103 1420 2742 
Q 1159 2381 1159 1747 
Q 1159 1113 1420 752 
Q 1681 391 2138 391 
Q 2594 391 2855 752 
Q 3116 1113 3116 1747 
z
" transform="scale(0.015625)"/>
       <path id="DejaVuSans-72" d="M 2631 2963 
Q 2534 3019 2420 3045 
Q 2306 3072 2169 3072 
Q 1681 3072 1420 2755 
Q 1159 2438 1159 1844 
L 1159 0 
L 581 0 
L 581 3500 
L 1159 3500 
L 1159 2956 
Q 1341 3275 1631 3429 
Q 1922 3584 2338 3584 
Q 2397 3584 2469 3576 
Q 2541 3569 2628 3553 
L 2631 2963 
z
" transform="scale(0.015625)"/>
       <path id="DejaVuSans-6f" d="M 1959 3097 
Q 1497 3097 1228 2736 
Q 959 2375 959 1747 
Q 959 1119 1226 758 
Q 1494 397 1959 397 
Q 2419 397 2687 759 
Q 2956 1122 2956 1747 
Q 2956 2369 2687 2733 
Q 2419 3097 1959 3097 
z
M 1959 3584 
Q 2709 3584 3137 3096 
Q 3566 2609 3566 1747 
Q 3566 888 3137 398 
Q 2709 -91 1959 -91 
Q 1206 -91 779 398 
Q 353 888 353 1747 
Q 353 2609 779 3096 
Q 1206 3584 1959 3584 
z
" transform="scale(0.015625)"/>
       <path id="DejaVuSans-78" d="M 3513 3500 
L 2247 1797 
L 3578 0 
L 2900 0 
L 1881 1375 
L 863 0 
L 184 0 
L 1544 1831 
L 300 3500 
L 978 3500 
L 1906 2253 
L 2834 3500 
L 3513 3500 
z
" transform="scale(0.015625)"/>
       <path id="DejaVuSans-69" d="M 603 3500 
L 1178 3500 
L 1178 0 
L 603 0 
L 603 3500 
z
M 603 4863 
L 1178 4863 
L 1178 4134 
L 603 4134 
L 603 4863 
z
" transform="scale(0.015625)"/>
       <path id="DejaVuSans-6d" d="M 3328 2828 
Q 3544 3216 3844 3400 
Q 4144 3584 4550 3584 
Q 5097 3584 5394 3201 
Q 5691 2819 5691 2113 
L 5691 0 
L 5113 0 
L 5113 2094 
Q 5113 2597 4934 2840 
Q 4756 3084 4391 3084 
Q 3944 3084 3684 2787 
Q 3425 2491 3425 1978 
L 3425 0 
L 2847 0 
L 2847 2094 
Q 2847 2600 2669 2842 
Q 2491 3084 2119 3084 
Q 1678 3084 1418 2786 
Q 1159 2488 1159 1978 
L 1159 0 
L 581 0 
L 581 3500 
L 1159 3500 
L 1159 2956 
Q 1356 3278 1631 3431 
Q 1906 3584 2284 3584 
Q 2666 3584 2933 3390 
Q 3200 3197 3328 2828 
z
" transform="scale(0.015625)"/>
       <path id="DejaVuSans-74" d="M 1172 4494 
L 1172 3500 
L 2356 3500 
L 2356 3053 
L 1172 3053 
L 1172 1153 
Q 1172 725 1289 603 
Q 1406 481 1766 481 
L 2356 481 
L 2356 0 
L 1766 0 
Q 1100 0 847 248 
Q 594 497 594 1153 
L 594 3053 
L 172 3053 
L 172 3500 
L 594 3500 
L 594 4494 
L 1172 4494 
z
" transform="scale(0.015625)"/>
       <path id="DejaVuSans-6e" d="M 3513 2113 
L 3513 0 
L 2938 0 
L 2938 2094 
Q 2938 2591 2744 2837 
Q 2550 3084 2163 3084 
Q 1697 3084 1428 2787 
Q 1159 2491 1159 1978 
L 1159 0 
L 581 0 
L 581 3500 
L 1159 3500 
L 1159 2956 
Q 1366 3272 1645 3428 
Q 1925 3584 2291 3584 
Q 2894 3584 3203 3211 
Q 3513 2838 3513 2113 
z
" transform="scale(0.015625)"/>
      </defs>
      <use xlink:href="#DejaVuSans-Oblique-43" transform="translate(0 0.015625)"/>
      <use xlink:href="#DejaVuSans-35" transform="translate(69.824219 -16.390625) scale(0.7)"/>
      <use xlink:href="#DejaVuSans-2c" transform="translate(117.094727 0.015625)"/>
      <use xlink:href="#DejaVuSans-20" transform="translate(148.881836 0.015625)"/>
      <use xlink:href="#DejaVuSans-61" transform="translate(180.668945 0.015625)"/>
      <use xlink:href="#DejaVuSans-70" transform="translate(241.948242 0.015625)"/>
      <use xlink:href="#DejaVuSans-70" transform="translate(305.424805 0.015625)"/>
      <use xlink:href="#DejaVuSans-72" transform="translate(368.901367 0.015625)"/>
      <use xlink:href="#DejaVuSans-6f" transform="translate(410.014648 0.015625)"/>
      <use xlink:href="#DejaVuSans-78" transform="translate(471.196289 0.015625)"/>
      <use xlink:href="#DejaVuSans-69" transform="translate(530.375977 0.015625)"/>
      <use xlink:href="#DejaVuSans-6d" transform="translate(558.15918 0.015625)"/>
      <use xlink:href="#DejaVuSans-61" transform="translate(655.571289 0.015625)"/>
      <use xlink:href="#DejaVuSans-74" transform="translate(716.850586 0.015625)"/>
      <use xlink:href="#DejaVuSans-69" transform="translate(756.05957 0.015625)"/>
      <use xlink:href="#DejaVuSans-6f" transform="translate(783.842773 0.015625)"/>
      <use xlink:href="#DejaVuSans-6e" transform="translate(845.024414 0.015625)"/>
     </g>
    </g>
    <g id="line2d_38">
     <path d="M 334.44 64.04375 
L 344.44 64.04375 
L 354.44 64.04375 
" style="fill: none; stroke: #0000ff; stroke-width: 0.5; stroke-linecap: square"/>
    </g>
    <g id="text_20">
     <!-- $C_4$, approximation -->
     <g transform="translate(362.44 67.54375) scale(0.1 -0.1)">
      <use xlink:href="#DejaVuSans-Oblique-43" transform="translate(0 0.015625)"/>
      <use xlink:href="#DejaVuSans-34" transform="translate(69.824219 -16.390625) scale(0.7)"/>
      <use xlink:href="#DejaVuSans-2c" transform="translate(117.094727 0.015625)"/>
      <use xlink:href="#DejaVuSans-20" transform="translate(148.881836 0.015625)"/>
      <use xlink:href="#DejaVuSans-61" transform="translate(180.668945 0.015625)"/>
      <use xlink:href="#DejaVuSans-70" transform="translate(241.948242 0.015625)"/>
      <use xlink:href="#DejaVuSans-70" transform="translate(305.424805 0.015625)"/>
      <use xlink:href="#DejaVuSans-72" transform="translate(368.901367 0.015625)"/>
      <use xlink:href="#DejaVuSans-6f" transform="translate(410.014648 0.015625)"/>
      <use xlink:href="#DejaVuSans-78" transform="translate(471.196289 0.015625)"/>
      <use xlink:href="#DejaVuSans-69" transform="translate(530.375977 0.015625)"/>
      <use xlink:href="#DejaVuSans-6d" transform="translate(558.15918 0.015625)"/>
      <use xlink:href="#DejaVuSans-61" transform="translate(655.571289 0.015625)"/>
      <use xlink:href="#DejaVuSans-74" transform="translate(716.850586 0.015625)"/>
      <use xlink:href="#DejaVuSans-69" transform="translate(756.05957 0.015625)"/>
      <use xlink:href="#DejaVuSans-6f" transform="translate(783.842773 0.015625)"/>
      <use xlink:href="#DejaVuSans-6e" transform="translate(845.024414 0.015625)"/>
     </g>
    </g>
    <g id="LineCollection_5">
     <path d="M 339.44 78.742188 
L 349.44 78.742188 
" style="fill: none; stroke: #008000; stroke-width: 0.5"/>
    </g>
    <g id="LineCollection_6">
     <path d="M 344.44 83.742188 
L 344.44 73.742188 
" style="fill: none; stroke: #008000; stroke-width: 0.5"/>
    </g>
    <g id="line2d_39"/>
    <g id="line2d_40">
     <g>
      <use xlink:href="#m6b4eb087eb" x="344.44" y="78.742188" style="fill: #008000; stroke: #008000"/>
     </g>
    </g>
    <g id="text_21">
     <!-- $C_5$=67.4  -->
     <g transform="translate(362.44 82.242188) scale(0.1 -0.1)">
      <defs>
       <path id="DejaVuSans-3d" d="M 678 2906 
L 4684 2906 
L 4684 2381 
L 678 2381 
L 678 2906 
z
M 678 1631 
L 4684 1631 
L 4684 1100 
L 678 1100 
L 678 1631 
z
" transform="scale(0.015625)"/>
       <path id="DejaVuSans-43d" d="M 581 3500 
L 1159 3500 
L 1159 2072 
L 3025 2072 
L 3025 3500 
L 3603 3500 
L 3603 0 
L 3025 0 
L 3025 1613 
L 1159 1613 
L 1159 0 
L 581 0 
L 581 3500 
z
" transform="scale(0.015625)"/>
       <path id="DejaVuSans-424" d="M 2441 3706 
Q 1763 3644 1403 3325 
Q 1044 3006 1044 2391 
Q 1044 1775 1403 1458 
Q 1763 1141 2441 1078 
L 2441 3706 
z
M 3075 1078 
Q 3753 1141 4109 1458 
Q 4466 1775 4466 2391 
Q 4466 3006 4109 3325 
Q 3753 3644 3075 3706 
L 3075 1078 
z
M 2441 556 
Q 1450 628 914 1095 
Q 378 1563 378 2391 
Q 378 3219 914 3689 
Q 1450 4159 2441 4231 
L 2441 4666 
L 3075 4666 
L 3075 4231 
Q 4066 4159 4598 3692 
Q 5131 3225 5131 2391 
Q 5131 1563 4598 1095 
Q 4066 628 3075 556 
L 3075 0 
L 2441 0 
L 2441 556 
z
" transform="scale(0.015625)"/>
      </defs>
      <use xlink:href="#DejaVuSans-Oblique-43" transform="translate(0 0.78125)"/>
      <use xlink:href="#DejaVuSans-35" transform="translate(69.824219 -15.625) scale(0.7)"/>
      <use xlink:href="#DejaVuSans-3d" transform="translate(117.094727 0.78125)"/>
      <use xlink:href="#DejaVuSans-36" transform="translate(200.883789 0.78125)"/>
      <use xlink:href="#DejaVuSans-37" transform="translate(264.506836 0.78125)"/>
      <use xlink:href="#DejaVuSans-2e" transform="translate(328.129883 0.78125)"/>
      <use xlink:href="#DejaVuSans-34" transform="translate(359.916992 0.78125)"/>
      <use xlink:href="#DejaVuSans-20" transform="translate(423.540039 0.78125)"/>
      <use xlink:href="#DejaVuSans-43d" transform="translate(455.327148 0.78125)"/>
      <use xlink:href="#DejaVuSans-424" transform="translate(520.708008 0.78125)"/>
     </g>
    </g>
    <g id="LineCollection_7">
     <path d="M 339.44 93.420312 
L 349.44 93.420312 
" style="fill: none; stroke: #0000ff; stroke-width: 0.5"/>
    </g>
    <g id="LineCollection_8">
     <path d="M 344.44 98.420312 
L 344.44 88.420312 
" style="fill: none; stroke: #0000ff; stroke-width: 0.5"/>
    </g>
    <g id="line2d_41"/>
    <g id="line2d_42">
     <g>
      <use xlink:href="#m3268972320" x="344.44" y="93.420312" style="fill: #0000ff; stroke: #0000ff"/>
     </g>
    </g>
    <g id="text_22">
     <!-- $C_4$=57.2  -->
     <g transform="translate(362.44 96.920312) scale(0.1 -0.1)">
      <use xlink:href="#DejaVuSans-Oblique-43" transform="translate(0 0.78125)"/>
      <use xlink:href="#DejaVuSans-34" transform="translate(69.824219 -15.625) scale(0.7)"/>
      <use xlink:href="#DejaVuSans-3d" transform="translate(117.094727 0.78125)"/>
      <use xlink:href="#DejaVuSans-35" transform="translate(200.883789 0.78125)"/>
      <use xlink:href="#DejaVuSans-37" transform="translate(257.256836 0.78125)"/>
      <use xlink:href="#DejaVuSans-2e" transform="translate(320.879883 0.78125)"/>
      <use xlink:href="#DejaVuSans-32" transform="translate(347.166992 0.78125)"/>
      <use xlink:href="#DejaVuSans-20" transform="translate(410.790039 0.78125)"/>
      <use xlink:href="#DejaVuSans-43d" transform="translate(442.577148 0.78125)"/>
      <use xlink:href="#DejaVuSans-424" transform="translate(507.958008 0.78125)"/>
     </g>
    </g>
   </g>
  </g>
  <g id="text_23">
   <!--   $0.5U_{c0}$ -->
   <g transform="translate(171.46 17.549812) scale(0.14 -0.14)">
    <defs>
     <path id="DejaVuSans-Bold-410" d="M 3419 850 
L 1538 850 
L 1241 0 
L 31 0 
L 1759 4666 
L 3194 4666 
L 4922 0 
L 3713 0 
L 3419 850 
z
M 1838 1716 
L 3116 1716 
L 2478 3572 
L 1838 1716 
z
" transform="scale(0.015625)"/>
     <path id="DejaVuSans-Bold-427" d="M 3381 0 
L 3381 1781 
L 1750 1781 
Q 1156 1781 836 2147 
Q 516 2513 516 3234 
L 516 4666 
L 1719 4666 
L 1719 3806 
Q 1719 3069 1834 2880 
Q 1950 2691 2244 2691 
L 3381 2691 
L 3381 4666 
L 4584 4666 
L 4584 0 
L 3381 0 
z
" transform="scale(0.015625)"/>
     <path id="DejaVuSans-Bold-425" d="M 3188 2381 
L 4806 0 
L 3553 0 
L 2463 1594 
L 1381 0 
L 122 0 
L 1741 2381 
L 184 4666 
L 1441 4666 
L 2463 3163 
L 3481 4666 
L 4744 4666 
L 3188 2381 
z
" transform="scale(0.015625)"/>
     <path id="DejaVuSans-Bold-20" transform="scale(0.015625)"/>
     <path id="DejaVuSans-Bold-434" d="M 547 800 
Q 903 919 1053 1314 
Q 1203 1709 1203 2838 
L 1203 3500 
L 4228 3500 
L 4228 800 
L 4809 800 
L 4809 -884 
L 4009 -884 
L 4009 0 
L 1159 0 
L 1159 -884 
L 359 -884 
L 359 800 
L 547 800 
z
M 3109 2700 
L 2322 2700 
L 2322 2603 
Q 2322 1456 2063 800 
L 3109 800 
L 3109 2700 
z
" transform="scale(0.015625)"/>
     <path id="DejaVuSans-Bold-43b" d="M 353 0 
L 353 800 
Q 906 913 1031 1278 
Q 1125 1556 1125 2928 
L 1125 3500 
L 4150 3500 
L 4150 0 
L 3031 0 
L 3031 2700 
L 2244 2700 
L 2244 2584 
Q 2244 1213 2028 813 
Q 1591 0 353 0 
z
" transform="scale(0.015625)"/>
     <path id="DejaVuSans-Bold-44f" d="M 1528 2394 
Q 1528 2169 1651 2069 
Q 1775 1969 2059 1969 
L 2463 1969 
L 2463 2816 
L 2059 2816 
Q 1775 2816 1651 2719 
Q 1528 2622 1528 2394 
z
M 197 0 
L 1113 1497 
Q 847 1650 650 1917 
Q 453 2184 453 2516 
Q 453 3013 789 3256 
Q 1125 3500 1878 3500 
L 3581 3500 
L 3581 0 
L 2463 0 
L 2463 1278 
L 2069 1278 
L 1288 0 
L 197 0 
z
" transform="scale(0.015625)"/>
    </defs>
    <use xlink:href="#DejaVuSans-Bold-410" transform="translate(0 0.78125)"/>
    <use xlink:href="#DejaVuSans-Bold-427" transform="translate(77.392578 0.78125)"/>
    <use xlink:href="#DejaVuSans-Bold-425" transform="translate(158.203125 0.78125)"/>
    <use xlink:href="#DejaVuSans-Bold-20" transform="translate(235.302734 0.78125)"/>
    <use xlink:href="#DejaVuSans-Bold-434" transform="translate(270.117188 0.78125)"/>
    <use xlink:href="#DejaVuSans-Bold-43b" transform="translate(350.878906 0.78125)"/>
    <use xlink:href="#DejaVuSans-Bold-44f" transform="translate(424.121094 0.78125)"/>
    <use xlink:href="#DejaVuSans-Bold-20" transform="translate(488.330078 0.78125)"/>
    <use xlink:href="#DejaVuSans-30" transform="translate(523.144531 0.78125)"/>
    <use xlink:href="#DejaVuSans-2e" transform="translate(586.767578 0.78125)"/>
    <use xlink:href="#DejaVuSans-35" transform="translate(618.554688 0.78125)"/>
    <use xlink:href="#DejaVuSans-Oblique-55" transform="translate(682.177734 0.78125)"/>
    <use xlink:href="#DejaVuSans-Oblique-63" transform="translate(755.371094 -15.625) scale(0.7)"/>
    <use xlink:href="#DejaVuSans-30" transform="translate(793.857422 -15.625) scale(0.7)"/>
   </g>
  </g>
 </g>
 <defs>
  <clipPath id="pdbaa356fa4">
   <rect x="57.6" y="41.472" width="357.12" height="266.112"/>
  </clipPath>
 </defs>
</svg>
