<?xml version="1.0" encoding="utf-8" standalone="no"?>
<!DOCTYPE svg PUBLIC "-//W3C//DTD SVG 1.1//EN"
  "http://www.w3.org/Graphics/SVG/1.1/DTD/svg11.dtd">
<svg xmlns:xlink="http://www.w3.org/1999/xlink" width="460.8pt" height="345.6pt" viewBox="0 0 460.8 345.6" xmlns="http://www.w3.org/2000/svg" version="1.1">
 <metadata>
  <rdf:RDF xmlns:dc="http://purl.org/dc/elements/1.1/" xmlns:cc="http://creativecommons.org/ns#" xmlns:rdf="http://www.w3.org/1999/02/22-rdf-syntax-ns#">
   <cc:Work>
    <dc:type rdf:resource="http://purl.org/dc/dcmitype/StillImage"/>
    <dc:date>2024-09-15T15:47:59.481341</dc:date>
    <dc:format>image/svg+xml</dc:format>
    <dc:creator>
     <cc:Agent>
      <dc:title>Matplotlib v3.9.2, https://matplotlib.org/</dc:title>
     </cc:Agent>
    </dc:creator>
   </cc:Work>
  </rdf:RDF>
 </metadata>
 <defs>
  <style type="text/css">*{stroke-linejoin: round; stroke-linecap: butt}</style>
 </defs>
 <g id="figure_1">
  <g id="patch_1">
   <path d="M 0 345.6 
L 460.8 345.6 
L 460.8 0 
L 0 0 
z
" style="fill: #ffffff"/>
  </g>
  <g id="axes_1">
   <g id="patch_2">
    <path d="M 57.6 307.584 
L 414.72 307.584 
L 414.72 41.472 
L 57.6 41.472 
z
" style="fill: #ffffff"/>
   </g>
   <g id="matplotlib.axis_1">
    <g id="xtick_1">
     <g id="line2d_1">
      <path d="M 57.6 307.584 
L 57.6 41.472 
" clip-path="url(#p55f944d011)" style="fill: none; stroke: #b0b0b0; stroke-width: 0.2; stroke-linecap: square"/>
     </g>
     <g id="line2d_2">
      <defs>
       <path id="m7caacd79c9" d="M 0 0 
L 0 3.5 
" style="stroke: #000000; stroke-width: 0.8"/>
      </defs>
      <g>
       <use xlink:href="#m7caacd79c9" x="57.6" y="307.584" style="stroke: #000000; stroke-width: 0.8"/>
      </g>
     </g>
     <g id="text_1">
      <!-- 0.90 -->
      <g transform="translate(49.807031 319.902906) scale(0.07 -0.07)">
       <defs>
        <path id="DejaVuSans-30" d="M 2034 4250 
Q 1547 4250 1301 3770 
Q 1056 3291 1056 2328 
Q 1056 1369 1301 889 
Q 1547 409 2034 409 
Q 2525 409 2770 889 
Q 3016 1369 3016 2328 
Q 3016 3291 2770 3770 
Q 2525 4250 2034 4250 
z
M 2034 4750 
Q 2819 4750 3233 4129 
Q 3647 3509 3647 2328 
Q 3647 1150 3233 529 
Q 2819 -91 2034 -91 
Q 1250 -91 836 529 
Q 422 1150 422 2328 
Q 422 3509 836 4129 
Q 1250 4750 2034 4750 
z
" transform="scale(0.015625)"/>
        <path id="DejaVuSans-2e" d="M 684 794 
L 1344 794 
L 1344 0 
L 684 0 
L 684 794 
z
" transform="scale(0.015625)"/>
        <path id="DejaVuSans-39" d="M 703 97 
L 703 672 
Q 941 559 1184 500 
Q 1428 441 1663 441 
Q 2288 441 2617 861 
Q 2947 1281 2994 2138 
Q 2813 1869 2534 1725 
Q 2256 1581 1919 1581 
Q 1219 1581 811 2004 
Q 403 2428 403 3163 
Q 403 3881 828 4315 
Q 1253 4750 1959 4750 
Q 2769 4750 3195 4129 
Q 3622 3509 3622 2328 
Q 3622 1225 3098 567 
Q 2575 -91 1691 -91 
Q 1453 -91 1209 -44 
Q 966 3 703 97 
z
M 1959 2075 
Q 2384 2075 2632 2365 
Q 2881 2656 2881 3163 
Q 2881 3666 2632 3958 
Q 2384 4250 1959 4250 
Q 1534 4250 1286 3958 
Q 1038 3666 1038 3163 
Q 1038 2656 1286 2365 
Q 1534 2075 1959 2075 
z
" transform="scale(0.015625)"/>
       </defs>
       <use xlink:href="#DejaVuSans-30"/>
       <use xlink:href="#DejaVuSans-2e" x="63.623047"/>
       <use xlink:href="#DejaVuSans-39" x="95.410156"/>
       <use xlink:href="#DejaVuSans-30" x="159.033203"/>
      </g>
     </g>
    </g>
    <g id="xtick_2">
     <g id="line2d_3">
      <path d="M 108.617143 307.584 
L 108.617143 41.472 
" clip-path="url(#p55f944d011)" style="fill: none; stroke: #b0b0b0; stroke-width: 0.2; stroke-linecap: square"/>
     </g>
     <g id="line2d_4">
      <g>
       <use xlink:href="#m7caacd79c9" x="108.617143" y="307.584" style="stroke: #000000; stroke-width: 0.8"/>
      </g>
     </g>
     <g id="text_2">
      <!-- 0.93 -->
      <g transform="translate(100.824174 319.902906) scale(0.07 -0.07)">
       <defs>
        <path id="DejaVuSans-33" d="M 2597 2516 
Q 3050 2419 3304 2112 
Q 3559 1806 3559 1356 
Q 3559 666 3084 287 
Q 2609 -91 1734 -91 
Q 1441 -91 1130 -33 
Q 819 25 488 141 
L 488 750 
Q 750 597 1062 519 
Q 1375 441 1716 441 
Q 2309 441 2620 675 
Q 2931 909 2931 1356 
Q 2931 1769 2642 2001 
Q 2353 2234 1838 2234 
L 1294 2234 
L 1294 2753 
L 1863 2753 
Q 2328 2753 2575 2939 
Q 2822 3125 2822 3475 
Q 2822 3834 2567 4026 
Q 2313 4219 1838 4219 
Q 1578 4219 1281 4162 
Q 984 4106 628 3988 
L 628 4550 
Q 988 4650 1302 4700 
Q 1616 4750 1894 4750 
Q 2613 4750 3031 4423 
Q 3450 4097 3450 3541 
Q 3450 3153 3228 2886 
Q 3006 2619 2597 2516 
z
" transform="scale(0.015625)"/>
       </defs>
       <use xlink:href="#DejaVuSans-30"/>
       <use xlink:href="#DejaVuSans-2e" x="63.623047"/>
       <use xlink:href="#DejaVuSans-39" x="95.410156"/>
       <use xlink:href="#DejaVuSans-33" x="159.033203"/>
      </g>
     </g>
    </g>
    <g id="xtick_3">
     <g id="line2d_5">
      <path d="M 159.634286 307.584 
L 159.634286 41.472 
" clip-path="url(#p55f944d011)" style="fill: none; stroke: #b0b0b0; stroke-width: 0.2; stroke-linecap: square"/>
     </g>
     <g id="line2d_6">
      <g>
       <use xlink:href="#m7caacd79c9" x="159.634286" y="307.584" style="stroke: #000000; stroke-width: 0.8"/>
      </g>
     </g>
     <g id="text_3">
      <!-- 0.96 -->
      <g transform="translate(151.841317 319.902906) scale(0.07 -0.07)">
       <defs>
        <path id="DejaVuSans-36" d="M 2113 2584 
Q 1688 2584 1439 2293 
Q 1191 2003 1191 1497 
Q 1191 994 1439 701 
Q 1688 409 2113 409 
Q 2538 409 2786 701 
Q 3034 994 3034 1497 
Q 3034 2003 2786 2293 
Q 2538 2584 2113 2584 
z
M 3366 4563 
L 3366 3988 
Q 3128 4100 2886 4159 
Q 2644 4219 2406 4219 
Q 1781 4219 1451 3797 
Q 1122 3375 1075 2522 
Q 1259 2794 1537 2939 
Q 1816 3084 2150 3084 
Q 2853 3084 3261 2657 
Q 3669 2231 3669 1497 
Q 3669 778 3244 343 
Q 2819 -91 2113 -91 
Q 1303 -91 875 529 
Q 447 1150 447 2328 
Q 447 3434 972 4092 
Q 1497 4750 2381 4750 
Q 2619 4750 2861 4703 
Q 3103 4656 3366 4563 
z
" transform="scale(0.015625)"/>
       </defs>
       <use xlink:href="#DejaVuSans-30"/>
       <use xlink:href="#DejaVuSans-2e" x="63.623047"/>
       <use xlink:href="#DejaVuSans-39" x="95.410156"/>
       <use xlink:href="#DejaVuSans-36" x="159.033203"/>
      </g>
     </g>
    </g>
    <g id="xtick_4">
     <g id="line2d_7">
      <path d="M 210.651429 307.584 
L 210.651429 41.472 
" clip-path="url(#p55f944d011)" style="fill: none; stroke: #b0b0b0; stroke-width: 0.2; stroke-linecap: square"/>
     </g>
     <g id="line2d_8">
      <g>
       <use xlink:href="#m7caacd79c9" x="210.651429" y="307.584" style="stroke: #000000; stroke-width: 0.8"/>
      </g>
     </g>
     <g id="text_4">
      <!-- 0.99 -->
      <g transform="translate(202.85846 319.902906) scale(0.07 -0.07)">
       <use xlink:href="#DejaVuSans-30"/>
       <use xlink:href="#DejaVuSans-2e" x="63.623047"/>
       <use xlink:href="#DejaVuSans-39" x="95.410156"/>
       <use xlink:href="#DejaVuSans-39" x="159.033203"/>
      </g>
     </g>
    </g>
    <g id="xtick_5">
     <g id="line2d_9">
      <path d="M 261.668571 307.584 
L 261.668571 41.472 
" clip-path="url(#p55f944d011)" style="fill: none; stroke: #b0b0b0; stroke-width: 0.2; stroke-linecap: square"/>
     </g>
     <g id="line2d_10">
      <g>
       <use xlink:href="#m7caacd79c9" x="261.668571" y="307.584" style="stroke: #000000; stroke-width: 0.8"/>
      </g>
     </g>
     <g id="text_5">
      <!-- 1.02 -->
      <g transform="translate(253.875603 319.902906) scale(0.07 -0.07)">
       <defs>
        <path id="DejaVuSans-31" d="M 794 531 
L 1825 531 
L 1825 4091 
L 703 3866 
L 703 4441 
L 1819 4666 
L 2450 4666 
L 2450 531 
L 3481 531 
L 3481 0 
L 794 0 
L 794 531 
z
" transform="scale(0.015625)"/>
        <path id="DejaVuSans-32" d="M 1228 531 
L 3431 531 
L 3431 0 
L 469 0 
L 469 531 
Q 828 903 1448 1529 
Q 2069 2156 2228 2338 
Q 2531 2678 2651 2914 
Q 2772 3150 2772 3378 
Q 2772 3750 2511 3984 
Q 2250 4219 1831 4219 
Q 1534 4219 1204 4116 
Q 875 4013 500 3803 
L 500 4441 
Q 881 4594 1212 4672 
Q 1544 4750 1819 4750 
Q 2544 4750 2975 4387 
Q 3406 4025 3406 3419 
Q 3406 3131 3298 2873 
Q 3191 2616 2906 2266 
Q 2828 2175 2409 1742 
Q 1991 1309 1228 531 
z
" transform="scale(0.015625)"/>
       </defs>
       <use xlink:href="#DejaVuSans-31"/>
       <use xlink:href="#DejaVuSans-2e" x="63.623047"/>
       <use xlink:href="#DejaVuSans-30" x="95.410156"/>
       <use xlink:href="#DejaVuSans-32" x="159.033203"/>
      </g>
     </g>
    </g>
    <g id="xtick_6">
     <g id="line2d_11">
      <path d="M 312.685714 307.584 
L 312.685714 41.472 
" clip-path="url(#p55f944d011)" style="fill: none; stroke: #b0b0b0; stroke-width: 0.2; stroke-linecap: square"/>
     </g>
     <g id="line2d_12">
      <g>
       <use xlink:href="#m7caacd79c9" x="312.685714" y="307.584" style="stroke: #000000; stroke-width: 0.8"/>
      </g>
     </g>
     <g id="text_6">
      <!-- 1.05 -->
      <g transform="translate(304.892746 319.902906) scale(0.07 -0.07)">
       <defs>
        <path id="DejaVuSans-35" d="M 691 4666 
L 3169 4666 
L 3169 4134 
L 1269 4134 
L 1269 2991 
Q 1406 3038 1543 3061 
Q 1681 3084 1819 3084 
Q 2600 3084 3056 2656 
Q 3513 2228 3513 1497 
Q 3513 744 3044 326 
Q 2575 -91 1722 -91 
Q 1428 -91 1123 -41 
Q 819 9 494 109 
L 494 744 
Q 775 591 1075 516 
Q 1375 441 1709 441 
Q 2250 441 2565 725 
Q 2881 1009 2881 1497 
Q 2881 1984 2565 2268 
Q 2250 2553 1709 2553 
Q 1456 2553 1204 2497 
Q 953 2441 691 2322 
L 691 4666 
z
" transform="scale(0.015625)"/>
       </defs>
       <use xlink:href="#DejaVuSans-31"/>
       <use xlink:href="#DejaVuSans-2e" x="63.623047"/>
       <use xlink:href="#DejaVuSans-30" x="95.410156"/>
       <use xlink:href="#DejaVuSans-35" x="159.033203"/>
      </g>
     </g>
    </g>
    <g id="xtick_7">
     <g id="line2d_13">
      <path d="M 363.702857 307.584 
L 363.702857 41.472 
" clip-path="url(#p55f944d011)" style="fill: none; stroke: #b0b0b0; stroke-width: 0.2; stroke-linecap: square"/>
     </g>
     <g id="line2d_14">
      <g>
       <use xlink:href="#m7caacd79c9" x="363.702857" y="307.584" style="stroke: #000000; stroke-width: 0.8"/>
      </g>
     </g>
     <g id="text_7">
      <!-- 1.08 -->
      <g transform="translate(355.909888 319.902906) scale(0.07 -0.07)">
       <defs>
        <path id="DejaVuSans-38" d="M 2034 2216 
Q 1584 2216 1326 1975 
Q 1069 1734 1069 1313 
Q 1069 891 1326 650 
Q 1584 409 2034 409 
Q 2484 409 2743 651 
Q 3003 894 3003 1313 
Q 3003 1734 2745 1975 
Q 2488 2216 2034 2216 
z
M 1403 2484 
Q 997 2584 770 2862 
Q 544 3141 544 3541 
Q 544 4100 942 4425 
Q 1341 4750 2034 4750 
Q 2731 4750 3128 4425 
Q 3525 4100 3525 3541 
Q 3525 3141 3298 2862 
Q 3072 2584 2669 2484 
Q 3125 2378 3379 2068 
Q 3634 1759 3634 1313 
Q 3634 634 3220 271 
Q 2806 -91 2034 -91 
Q 1263 -91 848 271 
Q 434 634 434 1313 
Q 434 1759 690 2068 
Q 947 2378 1403 2484 
z
M 1172 3481 
Q 1172 3119 1398 2916 
Q 1625 2713 2034 2713 
Q 2441 2713 2670 2916 
Q 2900 3119 2900 3481 
Q 2900 3844 2670 4047 
Q 2441 4250 2034 4250 
Q 1625 4250 1398 4047 
Q 1172 3844 1172 3481 
z
" transform="scale(0.015625)"/>
       </defs>
       <use xlink:href="#DejaVuSans-31"/>
       <use xlink:href="#DejaVuSans-2e" x="63.623047"/>
       <use xlink:href="#DejaVuSans-30" x="95.410156"/>
       <use xlink:href="#DejaVuSans-38" x="159.033203"/>
      </g>
     </g>
    </g>
    <g id="xtick_8">
     <g id="line2d_15">
      <path d="M 414.72 307.584 
L 414.72 41.472 
" clip-path="url(#p55f944d011)" style="fill: none; stroke: #b0b0b0; stroke-width: 0.2; stroke-linecap: square"/>
     </g>
     <g id="line2d_16">
      <g>
       <use xlink:href="#m7caacd79c9" x="414.72" y="307.584" style="stroke: #000000; stroke-width: 0.8"/>
      </g>
     </g>
     <g id="text_8">
      <!-- 1.11 -->
      <g transform="translate(406.927031 319.902906) scale(0.07 -0.07)">
       <use xlink:href="#DejaVuSans-31"/>
       <use xlink:href="#DejaVuSans-2e" x="63.623047"/>
       <use xlink:href="#DejaVuSans-31" x="95.410156"/>
       <use xlink:href="#DejaVuSans-31" x="159.033203"/>
      </g>
     </g>
    </g>
    <g id="text_9">
     <!-- $\frac{f}{f_0}$ -->
     <g transform="translate(407.62 335.058687) scale(0.1 -0.1)">
      <defs>
       <path id="DejaVuSans-Oblique-66" d="M 3059 4863 
L 2969 4384 
L 2419 4384 
Q 2106 4384 1964 4261 
Q 1822 4138 1753 3809 
L 1691 3500 
L 2638 3500 
L 2553 3053 
L 1606 3053 
L 1013 0 
L 434 0 
L 1031 3053 
L 481 3053 
L 563 3500 
L 1113 3500 
L 1159 3744 
Q 1278 4363 1576 4613 
Q 1875 4863 2516 4863 
L 3059 4863 
z
" transform="scale(0.015625)"/>
      </defs>
      <use xlink:href="#DejaVuSans-Oblique-66" transform="translate(17 43.810938) scale(0.7)"/>
      <use xlink:href="#DejaVuSans-Oblique-66" transform="translate(0 -40.628125) scale(0.7)"/>
      <use xlink:href="#DejaVuSans-30" transform="translate(24.643555 -52.1125) scale(0.49)"/>
      <path d="M 0 18.810937 
L 0 25.060937 
L 57.73291 25.060937 
L 57.73291 18.810937 
L 0 18.810937 
z
"/>
     </g>
    </g>
   </g>
   <g id="matplotlib.axis_2">
    <g id="ytick_1">
     <g id="line2d_17">
      <path d="M 57.6 307.584 
L 414.72 307.584 
" clip-path="url(#p55f944d011)" style="fill: none; stroke: #b0b0b0; stroke-width: 0.2; stroke-linecap: square"/>
     </g>
     <g id="line2d_18">
      <defs>
       <path id="m3332776923" d="M 0 0 
L -3.5 0 
" style="stroke: #000000; stroke-width: 0.8"/>
      </defs>
      <g>
       <use xlink:href="#m3332776923" x="57.6" y="307.584" style="stroke: #000000; stroke-width: 0.8"/>
      </g>
     </g>
     <g id="text_10">
      <!-- 0.02 -->
      <g transform="translate(35.014062 310.243453) scale(0.07 -0.07)">
       <use xlink:href="#DejaVuSans-30"/>
       <use xlink:href="#DejaVuSans-2e" x="63.623047"/>
       <use xlink:href="#DejaVuSans-30" x="95.410156"/>
       <use xlink:href="#DejaVuSans-32" x="159.033203"/>
      </g>
     </g>
    </g>
    <g id="ytick_2">
     <g id="line2d_19">
      <path d="M 57.6 269.568 
L 414.72 269.568 
" clip-path="url(#p55f944d011)" style="fill: none; stroke: #b0b0b0; stroke-width: 0.2; stroke-linecap: square"/>
     </g>
     <g id="line2d_20">
      <g>
       <use xlink:href="#m3332776923" x="57.6" y="269.568" style="stroke: #000000; stroke-width: 0.8"/>
      </g>
     </g>
     <g id="text_11">
      <!-- 0.35 -->
      <g transform="translate(35.014062 272.227453) scale(0.07 -0.07)">
       <use xlink:href="#DejaVuSans-30"/>
       <use xlink:href="#DejaVuSans-2e" x="63.623047"/>
       <use xlink:href="#DejaVuSans-33" x="95.410156"/>
       <use xlink:href="#DejaVuSans-35" x="159.033203"/>
      </g>
     </g>
    </g>
    <g id="ytick_3">
     <g id="line2d_21">
      <path d="M 57.6 231.552 
L 414.72 231.552 
" clip-path="url(#p55f944d011)" style="fill: none; stroke: #b0b0b0; stroke-width: 0.2; stroke-linecap: square"/>
     </g>
     <g id="line2d_22">
      <g>
       <use xlink:href="#m3332776923" x="57.6" y="231.552" style="stroke: #000000; stroke-width: 0.8"/>
      </g>
     </g>
     <g id="text_12">
      <!-- 0.69 -->
      <g transform="translate(35.014062 234.211453) scale(0.07 -0.07)">
       <use xlink:href="#DejaVuSans-30"/>
       <use xlink:href="#DejaVuSans-2e" x="63.623047"/>
       <use xlink:href="#DejaVuSans-36" x="95.410156"/>
       <use xlink:href="#DejaVuSans-39" x="159.033203"/>
      </g>
     </g>
    </g>
    <g id="ytick_4">
     <g id="line2d_23">
      <path d="M 57.6 193.536 
L 414.72 193.536 
" clip-path="url(#p55f944d011)" style="fill: none; stroke: #b0b0b0; stroke-width: 0.2; stroke-linecap: square"/>
     </g>
     <g id="line2d_24">
      <g>
       <use xlink:href="#m3332776923" x="57.6" y="193.536" style="stroke: #000000; stroke-width: 0.8"/>
      </g>
     </g>
     <g id="text_13">
      <!-- 1.03 -->
      <g transform="translate(35.014062 196.195453) scale(0.07 -0.07)">
       <use xlink:href="#DejaVuSans-31"/>
       <use xlink:href="#DejaVuSans-2e" x="63.623047"/>
       <use xlink:href="#DejaVuSans-30" x="95.410156"/>
       <use xlink:href="#DejaVuSans-33" x="159.033203"/>
      </g>
     </g>
    </g>
    <g id="ytick_5">
     <g id="line2d_25">
      <path d="M 57.6 155.52 
L 414.72 155.52 
" clip-path="url(#p55f944d011)" style="fill: none; stroke: #b0b0b0; stroke-width: 0.2; stroke-linecap: square"/>
     </g>
     <g id="line2d_26">
      <g>
       <use xlink:href="#m3332776923" x="57.6" y="155.52" style="stroke: #000000; stroke-width: 0.8"/>
      </g>
     </g>
     <g id="text_14">
      <!-- 1.37 -->
      <g transform="translate(35.014062 158.179453) scale(0.07 -0.07)">
       <defs>
        <path id="DejaVuSans-37" d="M 525 4666 
L 3525 4666 
L 3525 4397 
L 1831 0 
L 1172 0 
L 2766 4134 
L 525 4134 
L 525 4666 
z
" transform="scale(0.015625)"/>
       </defs>
       <use xlink:href="#DejaVuSans-31"/>
       <use xlink:href="#DejaVuSans-2e" x="63.623047"/>
       <use xlink:href="#DejaVuSans-33" x="95.410156"/>
       <use xlink:href="#DejaVuSans-37" x="159.033203"/>
      </g>
     </g>
    </g>
    <g id="ytick_6">
     <g id="line2d_27">
      <path d="M 57.6 117.504 
L 414.72 117.504 
" clip-path="url(#p55f944d011)" style="fill: none; stroke: #b0b0b0; stroke-width: 0.2; stroke-linecap: square"/>
     </g>
     <g id="line2d_28">
      <g>
       <use xlink:href="#m3332776923" x="57.6" y="117.504" style="stroke: #000000; stroke-width: 0.8"/>
      </g>
     </g>
     <g id="text_15">
      <!-- 1.70 -->
      <g transform="translate(35.014062 120.163453) scale(0.07 -0.07)">
       <use xlink:href="#DejaVuSans-31"/>
       <use xlink:href="#DejaVuSans-2e" x="63.623047"/>
       <use xlink:href="#DejaVuSans-37" x="95.410156"/>
       <use xlink:href="#DejaVuSans-30" x="159.033203"/>
      </g>
     </g>
    </g>
    <g id="ytick_7">
     <g id="line2d_29">
      <path d="M 57.6 79.488 
L 414.72 79.488 
" clip-path="url(#p55f944d011)" style="fill: none; stroke: #b0b0b0; stroke-width: 0.2; stroke-linecap: square"/>
     </g>
     <g id="line2d_30">
      <g>
       <use xlink:href="#m3332776923" x="57.6" y="79.488" style="stroke: #000000; stroke-width: 0.8"/>
      </g>
     </g>
     <g id="text_16">
      <!-- 2.04 -->
      <g transform="translate(35.014062 82.147453) scale(0.07 -0.07)">
       <defs>
        <path id="DejaVuSans-34" d="M 2419 4116 
L 825 1625 
L 2419 1625 
L 2419 4116 
z
M 2253 4666 
L 3047 4666 
L 3047 1625 
L 3713 1625 
L 3713 1100 
L 3047 1100 
L 3047 0 
L 2419 0 
L 2419 1100 
L 313 1100 
L 313 1709 
L 2253 4666 
z
" transform="scale(0.015625)"/>
       </defs>
       <use xlink:href="#DejaVuSans-32"/>
       <use xlink:href="#DejaVuSans-2e" x="63.623047"/>
       <use xlink:href="#DejaVuSans-30" x="95.410156"/>
       <use xlink:href="#DejaVuSans-34" x="159.033203"/>
      </g>
     </g>
    </g>
    <g id="ytick_8">
     <g id="line2d_31">
      <path d="M 57.6 41.472 
L 414.72 41.472 
" clip-path="url(#p55f944d011)" style="fill: none; stroke: #b0b0b0; stroke-width: 0.2; stroke-linecap: square"/>
     </g>
     <g id="line2d_32">
      <g>
       <use xlink:href="#m3332776923" x="57.6" y="41.472" style="stroke: #000000; stroke-width: 0.8"/>
      </g>
     </g>
     <g id="text_17">
      <!-- 2.38 -->
      <g transform="translate(35.014062 44.131453) scale(0.07 -0.07)">
       <use xlink:href="#DejaVuSans-32"/>
       <use xlink:href="#DejaVuSans-2e" x="63.623047"/>
       <use xlink:href="#DejaVuSans-33" x="95.410156"/>
       <use xlink:href="#DejaVuSans-38" x="159.033203"/>
      </g>
     </g>
    </g>
    <g id="text_18">
     <!-- $\frac{\phi}{\phi_{0}}$ -->
     <g transform="translate(25.414062 50.672) rotate(-90) scale(0.1 -0.1)">
      <defs>
       <path id="DejaVuSans-Oblique-3d5" d="M 2991 4863 
L 2738 3572 
Q 3363 3572 3684 3094 
Q 4016 2606 3850 1747 
Q 3681 888 3159 400 
Q 2653 -78 2028 -78 
L 1784 -1331 
L 1213 -1331 
L 1456 -78 
Q 834 -78 509 400 
Q 178 888 347 1747 
Q 513 2606 1034 3094 
Q 1544 3572 2166 3572 
L 2419 4863 
L 2991 4863 
z
M 2128 434 
Q 2481 434 2784 756 
Q 3116 1116 3244 1747 
Q 3369 2372 3169 2738 
Q 2991 3059 2638 3059 
L 2128 434 
z
M 1556 434 
L 2066 3059 
Q 1716 3059 1413 2738 
Q 1072 2372 953 1747 
Q 834 1116 1028 756 
Q 1203 434 1556 434 
z
" transform="scale(0.015625)"/>
      </defs>
      <use xlink:href="#DejaVuSans-Oblique-3d5" transform="translate(17 58.810938) scale(0.7)"/>
      <use xlink:href="#DejaVuSans-Oblique-3d5" transform="translate(0 -40.185937) scale(0.7)"/>
      <use xlink:href="#DejaVuSans-30" transform="translate(46.176758 -51.670312) scale(0.49)"/>
      <path d="M 0 19.253125 
L 0 25.503125 
L 79.266113 25.503125 
L 79.266113 19.253125 
L 0 19.253125 
z
"/>
     </g>
    </g>
   </g>
   <g id="LineCollection_1">
    <path d="M 231.074865 196.885224 
L 231.566745 196.885224 
" clip-path="url(#p55f944d011)" style="fill: none; stroke: #008000; stroke-width: 0.5"/>
    <path d="M 186.190725 243.88247 
L 186.669908 243.88247 
" clip-path="url(#p55f944d011)" style="fill: none; stroke: #008000; stroke-width: 0.5"/>
    <path d="M 141.306585 274.081361 
L 141.77307 274.081361 
" clip-path="url(#p55f944d011)" style="fill: none; stroke: #008000; stroke-width: 0.5"/>
    <path d="M 96.422444 288.843924 
L 96.876233 288.843924 
" clip-path="url(#p55f944d011)" style="fill: none; stroke: #008000; stroke-width: 0.5"/>
    <path d="M 60.515132 296.109163 
L 60.958763 296.109163 
" clip-path="url(#p55f944d011)" style="fill: none; stroke: #008000; stroke-width: 0.5"/>
    <path d="M 275.959006 131.562497 
L 276.463583 131.562497 
" clip-path="url(#p55f944d011)" style="fill: none; stroke: #008000; stroke-width: 0.5"/>
    <path d="M 320.843146 110.039569 
L 321.36042 110.039569 
" clip-path="url(#p55f944d011)" style="fill: none; stroke: #008000; stroke-width: 0.5"/>
    <path d="M 365.727287 102.059158 
L 366.257257 102.059158 
" clip-path="url(#p55f944d011)" style="fill: none; stroke: #008000; stroke-width: 0.5"/>
    <path d="M 410.611427 95.365909 
L 411.154095 95.365909 
" clip-path="url(#p55f944d011)" style="fill: none; stroke: #008000; stroke-width: 0.5"/>
    <path d="M 210.428161 214.696965 
L 210.9142 214.696965 
" clip-path="url(#p55f944d011)" style="fill: none; stroke: #008000; stroke-width: 0.5"/>
    <path d="M 256.209984 151.819371 
L 256.708974 151.819371 
" clip-path="url(#p55f944d011)" style="fill: none; stroke: #008000; stroke-width: 0.5"/>
    <path d="M 164.646338 259.893962 
L 165.119426 259.893962 
" clip-path="url(#p55f944d011)" style="fill: none; stroke: #008000; stroke-width: 0.5"/>
    <path d="M 242.744742 166.841322 
L 243.239923 166.841322 
" clip-path="url(#p55f944d011)" style="fill: none; stroke: #008000; stroke-width: 0.5"/>
    <path d="M 197.860601 234.440101 
L 198.343085 234.440101 
" clip-path="url(#p55f944d011)" style="fill: none; stroke: #008000; stroke-width: 0.5"/>
    <path d="M 296.60571 118.019981 
L 297.116128 118.019981 
" clip-path="url(#p55f944d011)" style="fill: none; stroke: #008000; stroke-width: 0.5"/>
    <path d="M 237.62795 174.352297 
L 238.121683 174.352297 
" clip-path="url(#p55f944d011)" style="fill: none; stroke: #008000; stroke-width: 0.5"/>
    <path d="M 218.507306 204.396199 
L 218.995631 204.396199 
" clip-path="url(#p55f944d011)" style="fill: none; stroke: #008000; stroke-width: 0.5"/>
    <path d="M 235.563279 174.352297 
L 236.056429 174.352297 
" clip-path="url(#p55f944d011)" style="fill: none; stroke: #008000; stroke-width: 0.5"/>
    <path d="M 335.206071 110.039569 
L 335.727408 110.039569 
" clip-path="url(#p55f944d011)" style="fill: none; stroke: #008000; stroke-width: 0.5"/>
    <path d="M 350.466679 102.059158 
L 350.992333 102.059158 
" clip-path="url(#p55f944d011)" style="fill: none; stroke: #008000; stroke-width: 0.5"/>
    <path d="M 126.045977 281.17506 
L 126.508146 281.17506 
" clip-path="url(#p55f944d011)" style="fill: none; stroke: #008000; stroke-width: 0.5"/>
    <path d="M 117.069149 288.268759 
L 117.528778 288.268759 
" clip-path="url(#p55f944d011)" style="fill: none; stroke: #008000; stroke-width: 0.5"/>
    <path d="M 77.571105 295.745901 
L 78.019561 295.745901 
" clip-path="url(#p55f944d011)" style="fill: none; stroke: #008000; stroke-width: 0.5"/>
    <path d="M 386.373991 95.365909 
L 386.909803 95.365909 
" clip-path="url(#p55f944d011)" style="fill: none; stroke: #008000; stroke-width: 0.5"/>
    <path d="M 404.327648 96.738883 
L 404.868538 96.738883 
" clip-path="url(#p55f944d011)" style="fill: none; stroke: #008000; stroke-width: 0.5"/>
    <path d="M 175.418531 258.475223 
L 175.894667 258.475223 
" clip-path="url(#p55f944d011)" style="fill: none; stroke: #008000; stroke-width: 0.5"/>
    <path d="M 204.144381 219.41815 
L 204.628643 219.41815 
" clip-path="url(#p55f944d011)" style="fill: none; stroke: #008000; stroke-width: 0.5"/>
    <path d="M 153.874144 273.067975 
L 154.344185 273.067975 
" clip-path="url(#p55f944d011)" style="fill: none; stroke: #008000; stroke-width: 0.5"/>
    <path d="M 266.623105 139.301078 
L 267.12504 139.301078 
" clip-path="url(#p55f944d011)" style="fill: none; stroke: #008000; stroke-width: 0.5"/>
    <path d="M 285.294907 123.823916 
L 285.802125 123.823916 
" clip-path="url(#p55f944d011)" style="fill: none; stroke: #008000; stroke-width: 0.5"/>
    <path d="M 307.467672 118.019981 
L 307.981162 118.019981 
" clip-path="url(#p55f944d011)" style="fill: none; stroke: #008000; stroke-width: 0.5"/>
   </g>
   <g id="LineCollection_2">
    <path d="M 231.320805 202.574362 
L 231.320805 191.196085 
" clip-path="url(#p55f944d011)" style="fill: none; stroke: #008000; stroke-width: 0.5"/>
    <path d="M 186.430316 249.103341 
L 186.430316 238.661599 
" clip-path="url(#p55f944d011)" style="fill: none; stroke: #008000; stroke-width: 0.5"/>
    <path d="M 141.539827 279.044471 
L 141.539827 269.118251 
" clip-path="url(#p55f944d011)" style="fill: none; stroke: #008000; stroke-width: 0.5"/>
    <path d="M 96.649339 293.642679 
L 96.649339 284.045168 
" clip-path="url(#p55f944d011)" style="fill: none; stroke: #008000; stroke-width: 0.5"/>
    <path d="M 60.736947 300.772798 
L 60.736947 291.445528 
" clip-path="url(#p55f944d011)" style="fill: none; stroke: #008000; stroke-width: 0.5"/>
    <path d="M 276.211294 138.099352 
L 276.211294 125.025642 
" clip-path="url(#p55f944d011)" style="fill: none; stroke: #008000; stroke-width: 0.5"/>
    <path d="M 321.101783 117.057642 
L 321.101783 103.021497 
" clip-path="url(#p55f944d011)" style="fill: none; stroke: #008000; stroke-width: 0.5"/>
    <path d="M 365.992272 109.184931 
L 365.992272 94.933385 
" clip-path="url(#p55f944d011)" style="fill: none; stroke: #008000; stroke-width: 0.5"/>
    <path d="M 410.882761 102.816804 
L 410.882761 87.915015 
" clip-path="url(#p55f944d011)" style="fill: none; stroke: #008000; stroke-width: 0.5"/>
    <path d="M 210.67118 220.090864 
L 210.67118 209.303067 
" clip-path="url(#p55f944d011)" style="fill: none; stroke: #008000; stroke-width: 0.5"/>
    <path d="M 256.459479 157.937267 
L 256.459479 145.701474 
" clip-path="url(#p55f944d011)" style="fill: none; stroke: #008000; stroke-width: 0.5"/>
    <path d="M 164.882882 264.901954 
L 164.882882 254.885971 
" clip-path="url(#p55f944d011)" style="fill: none; stroke: #008000; stroke-width: 0.5"/>
    <path d="M 242.992332 172.804014 
L 242.992332 160.878629 
" clip-path="url(#p55f944d011)" style="fill: none; stroke: #008000; stroke-width: 0.5"/>
    <path d="M 198.101843 239.86566 
L 198.101843 229.014542 
" clip-path="url(#p55f944d011)" style="fill: none; stroke: #008000; stroke-width: 0.5"/>
    <path d="M 296.860919 124.932996 
L 296.860919 111.106965 
" clip-path="url(#p55f944d011)" style="fill: none; stroke: #008000; stroke-width: 0.5"/>
    <path d="M 237.874817 180.241825 
L 237.874817 168.462769 
" clip-path="url(#p55f944d011)" style="fill: none; stroke: #008000; stroke-width: 0.5"/>
    <path d="M 218.751468 210.025286 
L 218.751468 198.767112 
" clip-path="url(#p55f944d011)" style="fill: none; stroke: #008000; stroke-width: 0.5"/>
    <path d="M 235.809854 180.241825 
L 235.809854 168.462769 
" clip-path="url(#p55f944d011)" style="fill: none; stroke: #008000; stroke-width: 0.5"/>
    <path d="M 335.46674 117.057642 
L 335.46674 103.021497 
" clip-path="url(#p55f944d011)" style="fill: none; stroke: #008000; stroke-width: 0.5"/>
    <path d="M 350.729506 109.184931 
L 350.729506 94.933385 
" clip-path="url(#p55f944d011)" style="fill: none; stroke: #008000; stroke-width: 0.5"/>
    <path d="M 126.277061 286.121234 
L 126.277061 276.228886 
" clip-path="url(#p55f944d011)" style="fill: none; stroke: #008000; stroke-width: 0.5"/>
    <path d="M 117.298963 293.20172 
L 117.298963 283.335797 
" clip-path="url(#p55f944d011)" style="fill: none; stroke: #008000; stroke-width: 0.5"/>
    <path d="M 77.795333 300.535943 
L 77.795333 290.955859 
" clip-path="url(#p55f944d011)" style="fill: none; stroke: #008000; stroke-width: 0.5"/>
    <path d="M 386.641897 102.816804 
L 386.641897 87.915015 
" clip-path="url(#p55f944d011)" style="fill: none; stroke: #008000; stroke-width: 0.5"/>
    <path d="M 404.598093 104.417799 
L 404.598093 89.059968 
" clip-path="url(#p55f944d011)" style="fill: none; stroke: #008000; stroke-width: 0.5"/>
    <path d="M 175.656599 263.631736 
L 175.656599 253.31871 
" clip-path="url(#p55f944d011)" style="fill: none; stroke: #008000; stroke-width: 0.5"/>
    <path d="M 204.386512 224.937924 
L 204.386512 213.898376 
" clip-path="url(#p55f944d011)" style="fill: none; stroke: #008000; stroke-width: 0.5"/>
    <path d="M 154.109164 278.175687 
L 154.109164 267.960263 
" clip-path="url(#p55f944d011)" style="fill: none; stroke: #008000; stroke-width: 0.5"/>
    <path d="M 266.874073 145.74639 
L 266.874073 132.855766 
" clip-path="url(#p55f944d011)" style="fill: none; stroke: #008000; stroke-width: 0.5"/>
    <path d="M 285.548516 130.455034 
L 285.548516 117.192799 
" clip-path="url(#p55f944d011)" style="fill: none; stroke: #008000; stroke-width: 0.5"/>
    <path d="M 307.724417 124.932996 
L 307.724417 111.106965 
" clip-path="url(#p55f944d011)" style="fill: none; stroke: #008000; stroke-width: 0.5"/>
   </g>
   <g id="LineCollection_3">
    <path d="M 231.074865 196.885224 
L 231.566745 196.885224 
" clip-path="url(#p55f944d011)" style="fill: none; stroke: #0000ff; stroke-width: 0.5"/>
    <path d="M 222.782965 204.932697 
L 223.272499 204.932697 
" clip-path="url(#p55f944d011)" style="fill: none; stroke: #0000ff; stroke-width: 0.5"/>
    <path d="M 214.491064 215.997974 
L 214.978252 215.997974 
" clip-path="url(#p55f944d011)" style="fill: none; stroke: #0000ff; stroke-width: 0.5"/>
    <path d="M 206.199163 231.589954 
L 206.684006 231.589954 
" clip-path="url(#p55f944d011)" style="fill: none; stroke: #0000ff; stroke-width: 0.5"/>
    <path d="M 197.907262 239.385944 
L 198.389759 239.385944 
" clip-path="url(#p55f944d011)" style="fill: none; stroke: #0000ff; stroke-width: 0.5"/>
    <path d="M 189.615361 247.181934 
L 190.095513 247.181934 
" clip-path="url(#p55f944d011)" style="fill: none; stroke: #0000ff; stroke-width: 0.5"/>
    <path d="M 181.323461 254.977925 
L 181.801266 254.977925 
" clip-path="url(#p55f944d011)" style="fill: none; stroke: #0000ff; stroke-width: 0.5"/>
    <path d="M 173.03156 264.191368 
L 173.50702 264.191368 
" clip-path="url(#p55f944d011)" style="fill: none; stroke: #0000ff; stroke-width: 0.5"/>
    <path d="M 164.739659 271.751116 
L 165.212774 271.751116 
" clip-path="url(#p55f944d011)" style="fill: none; stroke: #0000ff; stroke-width: 0.5"/>
    <path d="M 148.155857 279.310864 
L 148.624281 279.310864 
" clip-path="url(#p55f944d011)" style="fill: none; stroke: #0000ff; stroke-width: 0.5"/>
    <path d="M 125.767725 287.537648 
L 126.229815 287.537648 
" clip-path="url(#p55f944d011)" style="fill: none; stroke: #0000ff; stroke-width: 0.5"/>
    <path d="M 114.988254 294.875051 
L 115.447295 294.875051 
" clip-path="url(#p55f944d011)" style="fill: none; stroke: #0000ff; stroke-width: 0.5"/>
    <path d="M 98.404452 294.875051 
L 98.858802 294.875051 
" clip-path="url(#p55f944d011)" style="fill: none; stroke: #0000ff; stroke-width: 0.5"/>
    <path d="M 81.820651 302.212454 
L 82.270309 302.212454 
" clip-path="url(#p55f944d011)" style="fill: none; stroke: #0000ff; stroke-width: 0.5"/>
    <path d="M 73.52875 302.422094 
L 73.976063 302.422094 
" clip-path="url(#p55f944d011)" style="fill: none; stroke: #0000ff; stroke-width: 0.5"/>
    <path d="M 247.658667 164.695329 
L 248.155238 164.695329 
" clip-path="url(#p55f944d011)" style="fill: none; stroke: #0000ff; stroke-width: 0.5"/>
    <path d="M 264.242469 143.235399 
L 264.743731 143.235399 
" clip-path="url(#p55f944d011)" style="fill: none; stroke: #0000ff; stroke-width: 0.5"/>
    <path d="M 280.82627 134.919676 
L 281.332224 134.919676 
" clip-path="url(#p55f944d011)" style="fill: none; stroke: #0000ff; stroke-width: 0.5"/>
    <path d="M 297.410072 126.603953 
L 297.920717 126.603953 
" clip-path="url(#p55f944d011)" style="fill: none; stroke: #0000ff; stroke-width: 0.5"/>
    <path d="M 313.993874 118.28823 
L 314.50921 118.28823 
" clip-path="url(#p55f944d011)" style="fill: none; stroke: #0000ff; stroke-width: 0.5"/>
    <path d="M 330.577675 111.693001 
L 331.097703 111.693001 
" clip-path="url(#p55f944d011)" style="fill: none; stroke: #0000ff; stroke-width: 0.5"/>
    <path d="M 347.161477 103.090529 
L 347.686195 103.090529 
" clip-path="url(#p55f944d011)" style="fill: none; stroke: #0000ff; stroke-width: 0.5"/>
    <path d="M 396.912882 95.716982 
L 397.451674 95.716982 
" clip-path="url(#p55f944d011)" style="fill: none; stroke: #0000ff; stroke-width: 0.5"/>
    <path d="M 236.879196 180.790276 
L 237.372718 180.790276 
" clip-path="url(#p55f944d011)" style="fill: none; stroke: #0000ff; stroke-width: 0.5"/>
    <path d="M 241.025146 172.742802 
L 241.519841 172.742802 
" clip-path="url(#p55f944d011)" style="fill: none; stroke: #0000ff; stroke-width: 0.5"/>
    <path d="M 258.438138 156.647855 
L 258.937758 156.647855 
" clip-path="url(#p55f944d011)" style="fill: none; stroke: #0000ff; stroke-width: 0.5"/>
    <path d="M 134.059626 283.090738 
L 134.524062 283.090738 
" clip-path="url(#p55f944d011)" style="fill: none; stroke: #0000ff; stroke-width: 0.5"/>
    <path d="M 363.745278 107.391765 
L 364.274688 107.391765 
" clip-path="url(#p55f944d011)" style="fill: none; stroke: #0000ff; stroke-width: 0.5"/>
    <path d="M 377.01232 103.845132 
L 377.545483 103.845132 
" clip-path="url(#p55f944d011)" style="fill: none; stroke: #0000ff; stroke-width: 0.5"/>
   </g>
   <g id="LineCollection_4">
    <path d="M 231.320805 203.149209 
L 231.320805 190.621238 
" clip-path="url(#p55f944d011)" style="fill: none; stroke: #0000ff; stroke-width: 0.5"/>
    <path d="M 223.027732 211.123163 
L 223.027732 198.742232 
" clip-path="url(#p55f944d011)" style="fill: none; stroke: #0000ff; stroke-width: 0.5"/>
    <path d="M 214.734658 221.904457 
L 214.734658 210.091491 
" clip-path="url(#p55f944d011)" style="fill: none; stroke: #0000ff; stroke-width: 0.5"/>
    <path d="M 206.441584 237.384117 
L 206.441584 225.795791 
" clip-path="url(#p55f944d011)" style="fill: none; stroke: #0000ff; stroke-width: 0.5"/>
    <path d="M 198.148511 245.130926 
L 198.148511 233.640962 
" clip-path="url(#p55f944d011)" style="fill: none; stroke: #0000ff; stroke-width: 0.5"/>
    <path d="M 189.855437 252.882553 
L 189.855437 241.481316 
" clip-path="url(#p55f944d011)" style="fill: none; stroke: #0000ff; stroke-width: 0.5"/>
    <path d="M 181.562363 260.63911 
L 181.562363 249.316739 
" clip-path="url(#p55f944d011)" style="fill: none; stroke: #0000ff; stroke-width: 0.5"/>
    <path d="M 173.26929 269.642113 
L 173.26929 258.740623 
" clip-path="url(#p55f944d011)" style="fill: none; stroke: #0000ff; stroke-width: 0.5"/>
    <path d="M 164.976216 277.175147 
L 164.976216 266.327084 
" clip-path="url(#p55f944d011)" style="fill: none; stroke: #0000ff; stroke-width: 0.5"/>
    <path d="M 148.390069 284.71294 
L 148.390069 273.908787 
" clip-path="url(#p55f944d011)" style="fill: none; stroke: #0000ff; stroke-width: 0.5"/>
    <path d="M 125.99877 292.762965 
L 125.99877 282.312332 
" clip-path="url(#p55f944d011)" style="fill: none; stroke: #0000ff; stroke-width: 0.5"/>
    <path d="M 115.217774 300.089142 
L 115.217774 289.66096 
" clip-path="url(#p55f944d011)" style="fill: none; stroke: #0000ff; stroke-width: 0.5"/>
    <path d="M 98.631627 300.089142 
L 98.631627 289.66096 
" clip-path="url(#p55f944d011)" style="fill: none; stroke: #0000ff; stroke-width: 0.5"/>
    <path d="M 82.04548 307.419798 
L 82.04548 297.005109 
" clip-path="url(#p55f944d011)" style="fill: none; stroke: #0000ff; stroke-width: 0.5"/>
    <path d="M 73.752406 307.480534 
L 73.752406 297.363653 
" clip-path="url(#p55f944d011)" style="fill: none; stroke: #0000ff; stroke-width: 0.5"/>
    <path d="M 247.906953 171.296723 
L 247.906953 158.093934 
" clip-path="url(#p55f944d011)" style="fill: none; stroke: #0000ff; stroke-width: 0.5"/>
    <path d="M 264.4931 150.325242 
L 264.4931 136.145555 
" clip-path="url(#p55f944d011)" style="fill: none; stroke: #0000ff; stroke-width: 0.5"/>
    <path d="M 281.079247 142.120453 
L 281.079247 127.718899 
" clip-path="url(#p55f944d011)" style="fill: none; stroke: #0000ff; stroke-width: 0.5"/>
    <path d="M 297.665394 133.919268 
L 297.665394 119.288638 
" clip-path="url(#p55f944d011)" style="fill: none; stroke: #0000ff; stroke-width: 0.5"/>
    <path d="M 314.251542 125.72152 
L 314.251542 110.85494 
" clip-path="url(#p55f944d011)" style="fill: none; stroke: #0000ff; stroke-width: 0.5"/>
    <path d="M 330.837689 119.481823 
L 330.837689 103.90418 
" clip-path="url(#p55f944d011)" style="fill: none; stroke: #0000ff; stroke-width: 0.5"/>
    <path d="M 347.423836 111.011829 
L 347.423836 95.16923 
" clip-path="url(#p55f944d011)" style="fill: none; stroke: #0000ff; stroke-width: 0.5"/>
    <path d="M 397.182278 104.041534 
L 397.182278 87.39243 
" clip-path="url(#p55f944d011)" style="fill: none; stroke: #0000ff; stroke-width: 0.5"/>
    <path d="M 237.125957 187.214629 
L 237.125957 174.365923 
" clip-path="url(#p55f944d011)" style="fill: none; stroke: #0000ff; stroke-width: 0.5"/>
    <path d="M 241.272494 179.253673 
L 241.272494 166.231931 
" clip-path="url(#p55f944d011)" style="fill: none; stroke: #0000ff; stroke-width: 0.5"/>
    <path d="M 258.687948 163.343614 
L 258.687948 149.952096 
" clip-path="url(#p55f944d011)" style="fill: none; stroke: #0000ff; stroke-width: 0.5"/>
    <path d="M 134.291844 288.48364 
L 134.291844 277.697835 
" clip-path="url(#p55f944d011)" style="fill: none; stroke: #0000ff; stroke-width: 0.5"/>
    <path d="M 364.009983 115.2464 
L 364.009983 99.53713 
" clip-path="url(#p55f944d011)" style="fill: none; stroke: #0000ff; stroke-width: 0.5"/>
    <path d="M 377.278901 111.893439 
L 377.278901 95.796825 
" clip-path="url(#p55f944d011)" style="fill: none; stroke: #0000ff; stroke-width: 0.5"/>
   </g>
   <g id="LineCollection_5">
    <path d="M 219.964248 196.885224 
L 220.452985 196.885224 
" clip-path="url(#p55f944d011)" style="fill: none; stroke: #ff0000; stroke-width: 0.5"/>
    <path d="M 208.853631 230.02188 
L 209.339225 230.02188 
" clip-path="url(#p55f944d011)" style="fill: none; stroke: #ff0000; stroke-width: 0.5"/>
    <path d="M 197.743014 243.276543 
L 198.225464 243.276543 
" clip-path="url(#p55f944d011)" style="fill: none; stroke: #ff0000; stroke-width: 0.5"/>
    <path d="M 186.632396 258.941144 
L 187.111704 258.941144 
" clip-path="url(#p55f944d011)" style="fill: none; stroke: #ff0000; stroke-width: 0.5"/>
    <path d="M 175.521779 271.593322 
L 175.997944 271.593322 
" clip-path="url(#p55f944d011)" style="fill: none; stroke: #ff0000; stroke-width: 0.5"/>
    <path d="M 164.411162 277.919411 
L 164.884184 277.919411 
" clip-path="url(#p55f944d011)" style="fill: none; stroke: #ff0000; stroke-width: 0.5"/>
    <path d="M 153.300545 284.2455 
L 153.770423 284.2455 
" clip-path="url(#p55f944d011)" style="fill: none; stroke: #ff0000; stroke-width: 0.5"/>
    <path d="M 142.189927 284.807819 
L 142.656663 284.807819 
" clip-path="url(#p55f944d011)" style="fill: none; stroke: #ff0000; stroke-width: 0.5"/>
    <path d="M 131.07931 290.993328 
L 131.542903 290.993328 
" clip-path="url(#p55f944d011)" style="fill: none; stroke: #ff0000; stroke-width: 0.5"/>
    <path d="M 231.074865 170.375898 
L 231.566745 170.375898 
" clip-path="url(#p55f944d011)" style="fill: none; stroke: #ff0000; stroke-width: 0.5"/>
    <path d="M 242.185483 150.493904 
L 242.680505 150.493904 
" clip-path="url(#p55f944d011)" style="fill: none; stroke: #ff0000; stroke-width: 0.5"/>
    <path d="M 253.2961 130.61191 
L 253.794266 130.61191 
" clip-path="url(#p55f944d011)" style="fill: none; stroke: #ff0000; stroke-width: 0.5"/>
    <path d="M 264.406717 110.729916 
L 264.908026 110.729916 
" clip-path="url(#p55f944d011)" style="fill: none; stroke: #ff0000; stroke-width: 0.5"/>
    <path d="M 275.517334 97.475254 
L 276.021786 97.475254 
" clip-path="url(#p55f944d011)" style="fill: none; stroke: #ff0000; stroke-width: 0.5"/>
    <path d="M 286.627952 90.847922 
L 287.135546 90.847922 
" clip-path="url(#p55f944d011)" style="fill: none; stroke: #ff0000; stroke-width: 0.5"/>
    <path d="M 297.738569 85.513729 
L 298.249307 85.513729 
" clip-path="url(#p55f944d011)" style="fill: none; stroke: #ff0000; stroke-width: 0.5"/>
    <path d="M 308.849186 78.724755 
L 309.363067 78.724755 
" clip-path="url(#p55f944d011)" style="fill: none; stroke: #ff0000; stroke-width: 0.5"/>
    <path d="M 319.959803 71.935782 
L 320.476827 71.935782 
" clip-path="url(#p55f944d011)" style="fill: none; stroke: #ff0000; stroke-width: 0.5"/>
    <path d="M 342.181038 65.99543 
L 342.704348 65.99543 
" clip-path="url(#p55f944d011)" style="fill: none; stroke: #ff0000; stroke-width: 0.5"/>
    <path d="M 216.019979 205.978539 
L 216.5076 205.978539 
" clip-path="url(#p55f944d011)" style="fill: none; stroke: #ff0000; stroke-width: 0.5"/>
    <path d="M 224.964026 186.558917 
L 225.454177 186.558917 
" clip-path="url(#p55f944d011)" style="fill: none; stroke: #ff0000; stroke-width: 0.5"/>
    <path d="M 236.630174 160.666087 
L 237.123625 160.666087 
" clip-path="url(#p55f944d011)" style="fill: none; stroke: #ff0000; stroke-width: 0.5"/>
    <path d="M 248.296322 137.239242 
L 248.793074 137.239242 
" clip-path="url(#p55f944d011)" style="fill: none; stroke: #ff0000; stroke-width: 0.5"/>
    <path d="M 259.96247 117.357248 
L 260.462522 117.357248 
" clip-path="url(#p55f944d011)" style="fill: none; stroke: #ff0000; stroke-width: 0.5"/>
    <path d="M 333.070332 72.954128 
L 333.591064 72.954128 
" clip-path="url(#p55f944d011)" style="fill: none; stroke: #ff0000; stroke-width: 0.5"/>
    <path d="M 212.909006 210.139886 
L 213.395747 210.139886 
" clip-path="url(#p55f944d011)" style="fill: none; stroke: #ff0000; stroke-width: 0.5"/>
    <path d="M 192.298811 244.817783 
L 192.779722 244.817783 
" clip-path="url(#p55f944d011)" style="fill: none; stroke: #ff0000; stroke-width: 0.5"/>
   </g>
   <g id="LineCollection_6">
    <path d="M 220.208617 205.976678 
L 220.208617 187.793769 
" clip-path="url(#p55f944d011)" style="fill: none; stroke: #ff0000; stroke-width: 0.5"/>
    <path d="M 209.096428 238.786399 
L 209.096428 221.257361 
" clip-path="url(#p55f944d011)" style="fill: none; stroke: #ff0000; stroke-width: 0.5"/>
    <path d="M 197.984239 251.939414 
L 197.984239 234.613672 
" clip-path="url(#p55f944d011)" style="fill: none; stroke: #ff0000; stroke-width: 0.5"/>
    <path d="M 186.87205 267.117262 
L 186.87205 250.765027 
" clip-path="url(#p55f944d011)" style="fill: none; stroke: #ff0000; stroke-width: 0.5"/>
    <path d="M 175.759861 279.712005 
L 175.759861 263.474639 
" clip-path="url(#p55f944d011)" style="fill: none; stroke: #ff0000; stroke-width: 0.5"/>
    <path d="M 164.647673 286.015419 
L 164.647673 269.823403 
" clip-path="url(#p55f944d011)" style="fill: none; stroke: #ff0000; stroke-width: 0.5"/>
    <path d="M 153.535484 292.322908 
L 153.535484 276.168092 
" clip-path="url(#p55f944d011)" style="fill: none; stroke: #ff0000; stroke-width: 0.5"/>
    <path d="M 142.423295 292.704307 
L 142.423295 276.911332 
" clip-path="url(#p55f944d011)" style="fill: none; stroke: #ff0000; stroke-width: 0.5"/>
    <path d="M 131.311106 298.876263 
L 131.311106 283.110394 
" clip-path="url(#p55f944d011)" style="fill: none; stroke: #ff0000; stroke-width: 0.5"/>
    <path d="M 231.320805 179.7979 
L 231.320805 160.953896 
" clip-path="url(#p55f944d011)" style="fill: none; stroke: #ff0000; stroke-width: 0.5"/>
    <path d="M 242.432994 160.20005 
L 242.432994 140.787758 
" clip-path="url(#p55f944d011)" style="fill: none; stroke: #ff0000; stroke-width: 0.5"/>
    <path d="M 253.545183 140.630349 
L 253.545183 120.593472 
" clip-path="url(#p55f944d011)" style="fill: none; stroke: #ff0000; stroke-width: 0.5"/>
    <path d="M 264.657372 121.086249 
L 264.657372 100.373583 
" clip-path="url(#p55f944d011)" style="fill: none; stroke: #ff0000; stroke-width: 0.5"/>
    <path d="M 275.76956 108.069871 
L 275.76956 86.880636 
" clip-path="url(#p55f944d011)" style="fill: none; stroke: #ff0000; stroke-width: 0.5"/>
    <path d="M 286.881749 101.565331 
L 286.881749 80.130514 
" clip-path="url(#p55f944d011)" style="fill: none; stroke: #ff0000; stroke-width: 0.5"/>
    <path d="M 297.993938 96.595512 
L 297.993938 74.431946 
" clip-path="url(#p55f944d011)" style="fill: none; stroke: #ff0000; stroke-width: 0.5"/>
    <path d="M 309.106127 89.939759 
L 309.106127 67.509751 
" clip-path="url(#p55f944d011)" style="fill: none; stroke: #ff0000; stroke-width: 0.5"/>
    <path d="M 320.218315 83.286349 
L 320.218315 60.585214 
" clip-path="url(#p55f944d011)" style="fill: none; stroke: #ff0000; stroke-width: 0.5"/>
    <path d="M 342.442693 77.753248 
L 342.442693 54.237612 
" clip-path="url(#p55f944d011)" style="fill: none; stroke: #ff0000; stroke-width: 0.5"/>
    <path d="M 216.26379 214.76121 
L 216.26379 197.195868 
" clip-path="url(#p55f944d011)" style="fill: none; stroke: #ff0000; stroke-width: 0.5"/>
    <path d="M 225.209101 195.557967 
L 225.209101 177.559866 
" clip-path="url(#p55f944d011)" style="fill: none; stroke: #ff0000; stroke-width: 0.5"/>
    <path d="M 236.8769 170.000919 
L 236.8769 151.331256 
" clip-path="url(#p55f944d011)" style="fill: none; stroke: #ff0000; stroke-width: 0.5"/>
    <path d="M 248.544698 147.150614 
L 248.544698 127.327869 
" clip-path="url(#p55f944d011)" style="fill: none; stroke: #ff0000; stroke-width: 0.5"/>
    <path d="M 260.212496 127.598257 
L 260.212496 107.116238 
" clip-path="url(#p55f944d011)" style="fill: none; stroke: #ff0000; stroke-width: 0.5"/>
    <path d="M 333.330698 84.567467 
L 333.330698 61.340789 
" clip-path="url(#p55f944d011)" style="fill: none; stroke: #ff0000; stroke-width: 0.5"/>
    <path d="M 213.152377 219.088511 
L 213.152377 201.191262 
" clip-path="url(#p55f944d011)" style="fill: none; stroke: #ff0000; stroke-width: 0.5"/>
    <path d="M 192.539267 253.268751 
L 192.539267 236.366814 
" clip-path="url(#p55f944d011)" style="fill: none; stroke: #ff0000; stroke-width: 0.5"/>
   </g>
   <g id="line2d_33">
    <path d="M 60.736947 297.339854 
L 77.795333 294.39896 
L 96.649339 290.363948 
L 117.298963 284.618491 
L 126.277061 281.534851 
L 141.539827 275.195084 
L 154.109164 268.63499 
L 164.882882 261.76226 
L 175.656599 253.458447 
L 186.430316 243.461644 
L 198.101843 230.528497 
L 204.386512 222.680035 
L 210.67118 214.305382 
L 218.751468 202.992678 
L 231.320805 185.096943 
L 235.809854 178.891586 
L 237.874817 176.103339 
L 242.992332 169.416349 
L 256.459479 153.666961 
L 266.874073 143.48868 
L 276.211294 135.769185 
L 285.548516 129.214874 
L 296.860919 122.581748 
L 307.724417 117.307562 
L 321.101783 111.968981 
L 335.46674 107.328545 
L 350.729506 103.330624 
L 365.992272 100.056967 
L 386.641897 96.48225 
L 404.598093 93.968922 
L 410.882761 93.192694 
" clip-path="url(#p55f944d011)" style="fill: none; stroke: #008000; stroke-width: 0.5; stroke-linecap: square"/>
   </g>
   <g id="line2d_34">
    <path d="M 73.752406 300.064072 
L 82.04548 298.657793 
L 98.631627 295.362434 
L 115.217774 291.229744 
L 125.99877 287.943552 
L 134.291844 285.003713 
L 148.390069 278.954286 
L 164.976216 269.549206 
L 173.26929 263.608684 
L 181.562363 256.63301 
L 189.855437 248.465635 
L 198.148511 238.994344 
L 206.441584 228.216286 
L 214.734658 216.315078 
L 223.027732 203.705043 
L 231.320805 190.982704 
L 237.125957 182.350786 
L 241.272494 176.443638 
L 247.906953 167.574644 
L 258.687948 154.919986 
L 264.4931 149.028011 
L 281.079247 135.371575 
L 297.665394 125.441619 
L 314.251542 118.107827 
L 330.837689 112.557134 
L 347.423836 108.248619 
L 364.009983 104.825929 
L 377.278901 102.562755 
L 397.182278 99.760858 
" clip-path="url(#p55f944d011)" style="fill: none; stroke: #0000ff; stroke-width: 0.5; stroke-linecap: square"/>
   </g>
   <g id="line2d_35">
    <path d="M 131.311106 289.676636 
L 142.423295 285.92175 
L 153.535484 281.231493 
L 164.647673 275.246002 
L 175.759861 267.428338 
L 186.87205 256.98483 
L 192.539267 250.304322 
L 197.984239 242.819955 
L 209.096428 223.754609 
L 213.152377 215.457227 
L 216.26379 208.642258 
L 220.208617 199.527837 
L 225.209101 187.449537 
L 231.320805 172.472748 
L 236.8769 159.306902 
L 242.432994 147.099107 
L 248.544698 135.130982 
L 253.545183 126.558549 
L 260.212496 116.756403 
L 264.657372 111.151362 
L 275.76956 99.804637 
L 286.881749 91.356304 
L 297.993938 84.929509 
L 309.106127 79.924886 
L 320.218315 75.940953 
L 333.330698 72.188492 
L 342.442693 70.034873 
" clip-path="url(#p55f944d011)" style="fill: none; stroke: #ff0000; stroke-width: 0.5; stroke-linecap: square"/>
   </g>
   <g id="line2d_36">
    <defs>
     <path id="m8fe8e6e841" d="M 0 1.5 
C 0.397805 1.5 0.77937 1.341951 1.06066 1.06066 
C 1.341951 0.77937 1.5 0.397805 1.5 0 
C 1.5 -0.397805 1.341951 -0.77937 1.06066 -1.06066 
C 0.77937 -1.341951 0.397805 -1.5 0 -1.5 
C -0.397805 -1.5 -0.77937 -1.341951 -1.06066 -1.06066 
C -1.341951 -0.77937 -1.5 -0.397805 -1.5 0 
C -1.5 0.397805 -1.341951 0.77937 -1.06066 1.06066 
C -0.77937 1.341951 -0.397805 1.5 0 1.5 
z
" style="stroke: #008000"/>
    </defs>
    <g clip-path="url(#p55f944d011)">
     <use xlink:href="#m8fe8e6e841" x="231.320805" y="196.885224" style="fill: #008000; stroke: #008000"/>
     <use xlink:href="#m8fe8e6e841" x="186.430316" y="243.88247" style="fill: #008000; stroke: #008000"/>
     <use xlink:href="#m8fe8e6e841" x="141.539827" y="274.081361" style="fill: #008000; stroke: #008000"/>
     <use xlink:href="#m8fe8e6e841" x="96.649339" y="288.843924" style="fill: #008000; stroke: #008000"/>
     <use xlink:href="#m8fe8e6e841" x="60.736947" y="296.109163" style="fill: #008000; stroke: #008000"/>
     <use xlink:href="#m8fe8e6e841" x="276.211294" y="131.562497" style="fill: #008000; stroke: #008000"/>
     <use xlink:href="#m8fe8e6e841" x="321.101783" y="110.039569" style="fill: #008000; stroke: #008000"/>
     <use xlink:href="#m8fe8e6e841" x="365.992272" y="102.059158" style="fill: #008000; stroke: #008000"/>
     <use xlink:href="#m8fe8e6e841" x="410.882761" y="95.365909" style="fill: #008000; stroke: #008000"/>
     <use xlink:href="#m8fe8e6e841" x="210.67118" y="214.696965" style="fill: #008000; stroke: #008000"/>
     <use xlink:href="#m8fe8e6e841" x="256.459479" y="151.819371" style="fill: #008000; stroke: #008000"/>
     <use xlink:href="#m8fe8e6e841" x="164.882882" y="259.893962" style="fill: #008000; stroke: #008000"/>
     <use xlink:href="#m8fe8e6e841" x="242.992332" y="166.841322" style="fill: #008000; stroke: #008000"/>
     <use xlink:href="#m8fe8e6e841" x="198.101843" y="234.440101" style="fill: #008000; stroke: #008000"/>
     <use xlink:href="#m8fe8e6e841" x="296.860919" y="118.019981" style="fill: #008000; stroke: #008000"/>
     <use xlink:href="#m8fe8e6e841" x="237.874817" y="174.352297" style="fill: #008000; stroke: #008000"/>
     <use xlink:href="#m8fe8e6e841" x="218.751468" y="204.396199" style="fill: #008000; stroke: #008000"/>
     <use xlink:href="#m8fe8e6e841" x="235.809854" y="174.352297" style="fill: #008000; stroke: #008000"/>
     <use xlink:href="#m8fe8e6e841" x="335.46674" y="110.039569" style="fill: #008000; stroke: #008000"/>
     <use xlink:href="#m8fe8e6e841" x="350.729506" y="102.059158" style="fill: #008000; stroke: #008000"/>
     <use xlink:href="#m8fe8e6e841" x="126.277061" y="281.17506" style="fill: #008000; stroke: #008000"/>
     <use xlink:href="#m8fe8e6e841" x="117.298963" y="288.268759" style="fill: #008000; stroke: #008000"/>
     <use xlink:href="#m8fe8e6e841" x="77.795333" y="295.745901" style="fill: #008000; stroke: #008000"/>
     <use xlink:href="#m8fe8e6e841" x="386.641897" y="95.365909" style="fill: #008000; stroke: #008000"/>
     <use xlink:href="#m8fe8e6e841" x="404.598093" y="96.738883" style="fill: #008000; stroke: #008000"/>
     <use xlink:href="#m8fe8e6e841" x="175.656599" y="258.475223" style="fill: #008000; stroke: #008000"/>
     <use xlink:href="#m8fe8e6e841" x="204.386512" y="219.41815" style="fill: #008000; stroke: #008000"/>
     <use xlink:href="#m8fe8e6e841" x="154.109164" y="273.067975" style="fill: #008000; stroke: #008000"/>
     <use xlink:href="#m8fe8e6e841" x="266.874073" y="139.301078" style="fill: #008000; stroke: #008000"/>
     <use xlink:href="#m8fe8e6e841" x="285.548516" y="123.823916" style="fill: #008000; stroke: #008000"/>
     <use xlink:href="#m8fe8e6e841" x="307.724417" y="118.019981" style="fill: #008000; stroke: #008000"/>
    </g>
   </g>
   <g id="line2d_37">
    <defs>
     <path id="me4dc0da869" d="M 0 1.5 
C 0.397805 1.5 0.77937 1.341951 1.06066 1.06066 
C 1.341951 0.77937 1.5 0.397805 1.5 0 
C 1.5 -0.397805 1.341951 -0.77937 1.06066 -1.06066 
C 0.77937 -1.341951 0.397805 -1.5 0 -1.5 
C -0.397805 -1.5 -0.77937 -1.341951 -1.06066 -1.06066 
C -1.341951 -0.77937 -1.5 -0.397805 -1.5 0 
C -1.5 0.397805 -1.341951 0.77937 -1.06066 1.06066 
C -0.77937 1.341951 -0.397805 1.5 0 1.5 
z
" style="stroke: #0000ff"/>
    </defs>
    <g clip-path="url(#p55f944d011)">
     <use xlink:href="#me4dc0da869" x="231.320805" y="196.885224" style="fill: #0000ff; stroke: #0000ff"/>
     <use xlink:href="#me4dc0da869" x="223.027732" y="204.932697" style="fill: #0000ff; stroke: #0000ff"/>
     <use xlink:href="#me4dc0da869" x="214.734658" y="215.997974" style="fill: #0000ff; stroke: #0000ff"/>
     <use xlink:href="#me4dc0da869" x="206.441584" y="231.589954" style="fill: #0000ff; stroke: #0000ff"/>
     <use xlink:href="#me4dc0da869" x="198.148511" y="239.385944" style="fill: #0000ff; stroke: #0000ff"/>
     <use xlink:href="#me4dc0da869" x="189.855437" y="247.181934" style="fill: #0000ff; stroke: #0000ff"/>
     <use xlink:href="#me4dc0da869" x="181.562363" y="254.977925" style="fill: #0000ff; stroke: #0000ff"/>
     <use xlink:href="#me4dc0da869" x="173.26929" y="264.191368" style="fill: #0000ff; stroke: #0000ff"/>
     <use xlink:href="#me4dc0da869" x="164.976216" y="271.751116" style="fill: #0000ff; stroke: #0000ff"/>
     <use xlink:href="#me4dc0da869" x="148.390069" y="279.310864" style="fill: #0000ff; stroke: #0000ff"/>
     <use xlink:href="#me4dc0da869" x="125.99877" y="287.537648" style="fill: #0000ff; stroke: #0000ff"/>
     <use xlink:href="#me4dc0da869" x="115.217774" y="294.875051" style="fill: #0000ff; stroke: #0000ff"/>
     <use xlink:href="#me4dc0da869" x="98.631627" y="294.875051" style="fill: #0000ff; stroke: #0000ff"/>
     <use xlink:href="#me4dc0da869" x="82.04548" y="302.212454" style="fill: #0000ff; stroke: #0000ff"/>
     <use xlink:href="#me4dc0da869" x="73.752406" y="302.422094" style="fill: #0000ff; stroke: #0000ff"/>
     <use xlink:href="#me4dc0da869" x="247.906953" y="164.695329" style="fill: #0000ff; stroke: #0000ff"/>
     <use xlink:href="#me4dc0da869" x="264.4931" y="143.235399" style="fill: #0000ff; stroke: #0000ff"/>
     <use xlink:href="#me4dc0da869" x="281.079247" y="134.919676" style="fill: #0000ff; stroke: #0000ff"/>
     <use xlink:href="#me4dc0da869" x="297.665394" y="126.603953" style="fill: #0000ff; stroke: #0000ff"/>
     <use xlink:href="#me4dc0da869" x="314.251542" y="118.28823" style="fill: #0000ff; stroke: #0000ff"/>
     <use xlink:href="#me4dc0da869" x="330.837689" y="111.693001" style="fill: #0000ff; stroke: #0000ff"/>
     <use xlink:href="#me4dc0da869" x="347.423836" y="103.090529" style="fill: #0000ff; stroke: #0000ff"/>
     <use xlink:href="#me4dc0da869" x="397.182278" y="95.716982" style="fill: #0000ff; stroke: #0000ff"/>
     <use xlink:href="#me4dc0da869" x="237.125957" y="180.790276" style="fill: #0000ff; stroke: #0000ff"/>
     <use xlink:href="#me4dc0da869" x="241.272494" y="172.742802" style="fill: #0000ff; stroke: #0000ff"/>
     <use xlink:href="#me4dc0da869" x="258.687948" y="156.647855" style="fill: #0000ff; stroke: #0000ff"/>
     <use xlink:href="#me4dc0da869" x="134.291844" y="283.090738" style="fill: #0000ff; stroke: #0000ff"/>
     <use xlink:href="#me4dc0da869" x="364.009983" y="107.391765" style="fill: #0000ff; stroke: #0000ff"/>
     <use xlink:href="#me4dc0da869" x="377.278901" y="103.845132" style="fill: #0000ff; stroke: #0000ff"/>
    </g>
   </g>
   <g id="line2d_38">
    <defs>
     <path id="mec772e212a" d="M 0 1.5 
C 0.397805 1.5 0.77937 1.341951 1.06066 1.06066 
C 1.341951 0.77937 1.5 0.397805 1.5 0 
C 1.5 -0.397805 1.341951 -0.77937 1.06066 -1.06066 
C 0.77937 -1.341951 0.397805 -1.5 0 -1.5 
C -0.397805 -1.5 -0.77937 -1.341951 -1.06066 -1.06066 
C -1.341951 -0.77937 -1.5 -0.397805 -1.5 0 
C -1.5 0.397805 -1.341951 0.77937 -1.06066 1.06066 
C -0.77937 1.341951 -0.397805 1.5 0 1.5 
z
" style="stroke: #ff0000"/>
    </defs>
    <g clip-path="url(#p55f944d011)">
     <use xlink:href="#mec772e212a" x="220.208617" y="196.885224" style="fill: #ff0000; stroke: #ff0000"/>
     <use xlink:href="#mec772e212a" x="209.096428" y="230.02188" style="fill: #ff0000; stroke: #ff0000"/>
     <use xlink:href="#mec772e212a" x="197.984239" y="243.276543" style="fill: #ff0000; stroke: #ff0000"/>
     <use xlink:href="#mec772e212a" x="186.87205" y="258.941144" style="fill: #ff0000; stroke: #ff0000"/>
     <use xlink:href="#mec772e212a" x="175.759861" y="271.593322" style="fill: #ff0000; stroke: #ff0000"/>
     <use xlink:href="#mec772e212a" x="164.647673" y="277.919411" style="fill: #ff0000; stroke: #ff0000"/>
     <use xlink:href="#mec772e212a" x="153.535484" y="284.2455" style="fill: #ff0000; stroke: #ff0000"/>
     <use xlink:href="#mec772e212a" x="142.423295" y="284.807819" style="fill: #ff0000; stroke: #ff0000"/>
     <use xlink:href="#mec772e212a" x="131.311106" y="290.993328" style="fill: #ff0000; stroke: #ff0000"/>
     <use xlink:href="#mec772e212a" x="231.320805" y="170.375898" style="fill: #ff0000; stroke: #ff0000"/>
     <use xlink:href="#mec772e212a" x="242.432994" y="150.493904" style="fill: #ff0000; stroke: #ff0000"/>
     <use xlink:href="#mec772e212a" x="253.545183" y="130.61191" style="fill: #ff0000; stroke: #ff0000"/>
     <use xlink:href="#mec772e212a" x="264.657372" y="110.729916" style="fill: #ff0000; stroke: #ff0000"/>
     <use xlink:href="#mec772e212a" x="275.76956" y="97.475254" style="fill: #ff0000; stroke: #ff0000"/>
     <use xlink:href="#mec772e212a" x="286.881749" y="90.847922" style="fill: #ff0000; stroke: #ff0000"/>
     <use xlink:href="#mec772e212a" x="297.993938" y="85.513729" style="fill: #ff0000; stroke: #ff0000"/>
     <use xlink:href="#mec772e212a" x="309.106127" y="78.724755" style="fill: #ff0000; stroke: #ff0000"/>
     <use xlink:href="#mec772e212a" x="320.218315" y="71.935782" style="fill: #ff0000; stroke: #ff0000"/>
     <use xlink:href="#mec772e212a" x="342.442693" y="65.99543" style="fill: #ff0000; stroke: #ff0000"/>
     <use xlink:href="#mec772e212a" x="216.26379" y="205.978539" style="fill: #ff0000; stroke: #ff0000"/>
     <use xlink:href="#mec772e212a" x="225.209101" y="186.558917" style="fill: #ff0000; stroke: #ff0000"/>
     <use xlink:href="#mec772e212a" x="236.8769" y="160.666087" style="fill: #ff0000; stroke: #ff0000"/>
     <use xlink:href="#mec772e212a" x="248.544698" y="137.239242" style="fill: #ff0000; stroke: #ff0000"/>
     <use xlink:href="#mec772e212a" x="260.212496" y="117.357248" style="fill: #ff0000; stroke: #ff0000"/>
     <use xlink:href="#mec772e212a" x="333.330698" y="72.954128" style="fill: #ff0000; stroke: #ff0000"/>
     <use xlink:href="#mec772e212a" x="213.152377" y="210.139886" style="fill: #ff0000; stroke: #ff0000"/>
     <use xlink:href="#mec772e212a" x="192.539267" y="244.817783" style="fill: #ff0000; stroke: #ff0000"/>
    </g>
   </g>
   <g id="patch_3">
    <path d="M 57.6 307.584 
L 57.6 41.472 
" style="fill: none; stroke: #000000; stroke-width: 0.8; stroke-linejoin: miter; stroke-linecap: square"/>
   </g>
   <g id="patch_4">
    <path d="M 414.72 307.584 
L 414.72 41.472 
" style="fill: none; stroke: #000000; stroke-width: 0.8; stroke-linejoin: miter; stroke-linecap: square"/>
   </g>
   <g id="patch_5">
    <path d="M 57.6 307.584 
L 414.72 307.584 
" style="fill: none; stroke: #000000; stroke-width: 0.8; stroke-linejoin: miter; stroke-linecap: square"/>
   </g>
   <g id="patch_6">
    <path d="M 57.6 41.472 
L 414.72 41.472 
" style="fill: none; stroke: #000000; stroke-width: 0.8; stroke-linejoin: miter; stroke-linecap: square"/>
   </g>
   <g id="legend_1">
    <g id="patch_7">
     <path d="M 284.82 302.584 
L 407.72 302.584 
Q 409.72 302.584 409.72 300.584 
L 409.72 213.449625 
Q 409.72 211.449625 407.72 211.449625 
L 284.82 211.449625 
Q 282.82 211.449625 282.82 213.449625 
L 282.82 300.584 
Q 282.82 302.584 284.82 302.584 
z
" style="fill: #ffffff; opacity: 0.8; stroke: #cccccc; stroke-linejoin: miter"/>
    </g>
    <g id="line2d_39">
     <path d="M 286.82 219.549625 
L 296.82 219.549625 
L 306.82 219.549625 
" style="fill: none; stroke: #008000; stroke-width: 0.5; stroke-linecap: square"/>
    </g>
    <g id="text_19">
     <!-- $C_5$, approximation -->
     <g transform="translate(314.82 223.049625) scale(0.1 -0.1)">
      <defs>
       <path id="DejaVuSans-Oblique-43" d="M 4447 4306 
L 4319 3641 
Q 4019 3944 3683 4091 
Q 3347 4238 2956 4238 
Q 2422 4238 2017 3981 
Q 1613 3725 1319 3200 
Q 1131 2863 1032 2486 
Q 934 2109 934 1728 
Q 934 1091 1264 756 
Q 1594 422 2222 422 
Q 2656 422 3056 561 
Q 3456 700 3834 978 
L 3688 231 
Q 3316 72 2936 -9 
Q 2556 -91 2175 -91 
Q 1278 -91 773 396 
Q 269 884 269 1753 
Q 269 2309 461 2846 
Q 653 3384 1013 3828 
Q 1394 4300 1883 4525 
Q 2372 4750 3022 4750 
Q 3422 4750 3780 4639 
Q 4138 4528 4447 4306 
z
" transform="scale(0.015625)"/>
       <path id="DejaVuSans-2c" d="M 750 794 
L 1409 794 
L 1409 256 
L 897 -744 
L 494 -744 
L 750 256 
L 750 794 
z
" transform="scale(0.015625)"/>
       <path id="DejaVuSans-20" transform="scale(0.015625)"/>
       <path id="DejaVuSans-61" d="M 2194 1759 
Q 1497 1759 1228 1600 
Q 959 1441 959 1056 
Q 959 750 1161 570 
Q 1363 391 1709 391 
Q 2188 391 2477 730 
Q 2766 1069 2766 1631 
L 2766 1759 
L 2194 1759 
z
M 3341 1997 
L 3341 0 
L 2766 0 
L 2766 531 
Q 2569 213 2275 61 
Q 1981 -91 1556 -91 
Q 1019 -91 701 211 
Q 384 513 384 1019 
Q 384 1609 779 1909 
Q 1175 2209 1959 2209 
L 2766 2209 
L 2766 2266 
Q 2766 2663 2505 2880 
Q 2244 3097 1772 3097 
Q 1472 3097 1187 3025 
Q 903 2953 641 2809 
L 641 3341 
Q 956 3463 1253 3523 
Q 1550 3584 1831 3584 
Q 2591 3584 2966 3190 
Q 3341 2797 3341 1997 
z
" transform="scale(0.015625)"/>
       <path id="DejaVuSans-70" d="M 1159 525 
L 1159 -1331 
L 581 -1331 
L 581 3500 
L 1159 3500 
L 1159 2969 
Q 1341 3281 1617 3432 
Q 1894 3584 2278 3584 
Q 2916 3584 3314 3078 
Q 3713 2572 3713 1747 
Q 3713 922 3314 415 
Q 2916 -91 2278 -91 
Q 1894 -91 1617 61 
Q 1341 213 1159 525 
z
M 3116 1747 
Q 3116 2381 2855 2742 
Q 2594 3103 2138 3103 
Q 1681 3103 1420 2742 
Q 1159 2381 1159 1747 
Q 1159 1113 1420 752 
Q 1681 391 2138 391 
Q 2594 391 2855 752 
Q 3116 1113 3116 1747 
z
" transform="scale(0.015625)"/>
       <path id="DejaVuSans-72" d="M 2631 2963 
Q 2534 3019 2420 3045 
Q 2306 3072 2169 3072 
Q 1681 3072 1420 2755 
Q 1159 2438 1159 1844 
L 1159 0 
L 581 0 
L 581 3500 
L 1159 3500 
L 1159 2956 
Q 1341 3275 1631 3429 
Q 1922 3584 2338 3584 
Q 2397 3584 2469 3576 
Q 2541 3569 2628 3553 
L 2631 2963 
z
" transform="scale(0.015625)"/>
       <path id="DejaVuSans-6f" d="M 1959 3097 
Q 1497 3097 1228 2736 
Q 959 2375 959 1747 
Q 959 1119 1226 758 
Q 1494 397 1959 397 
Q 2419 397 2687 759 
Q 2956 1122 2956 1747 
Q 2956 2369 2687 2733 
Q 2419 3097 1959 3097 
z
M 1959 3584 
Q 2709 3584 3137 3096 
Q 3566 2609 3566 1747 
Q 3566 888 3137 398 
Q 2709 -91 1959 -91 
Q 1206 -91 779 398 
Q 353 888 353 1747 
Q 353 2609 779 3096 
Q 1206 3584 1959 3584 
z
" transform="scale(0.015625)"/>
       <path id="DejaVuSans-78" d="M 3513 3500 
L 2247 1797 
L 3578 0 
L 2900 0 
L 1881 1375 
L 863 0 
L 184 0 
L 1544 1831 
L 300 3500 
L 978 3500 
L 1906 2253 
L 2834 3500 
L 3513 3500 
z
" transform="scale(0.015625)"/>
       <path id="DejaVuSans-69" d="M 603 3500 
L 1178 3500 
L 1178 0 
L 603 0 
L 603 3500 
z
M 603 4863 
L 1178 4863 
L 1178 4134 
L 603 4134 
L 603 4863 
z
" transform="scale(0.015625)"/>
       <path id="DejaVuSans-6d" d="M 3328 2828 
Q 3544 3216 3844 3400 
Q 4144 3584 4550 3584 
Q 5097 3584 5394 3201 
Q 5691 2819 5691 2113 
L 5691 0 
L 5113 0 
L 5113 2094 
Q 5113 2597 4934 2840 
Q 4756 3084 4391 3084 
Q 3944 3084 3684 2787 
Q 3425 2491 3425 1978 
L 3425 0 
L 2847 0 
L 2847 2094 
Q 2847 2600 2669 2842 
Q 2491 3084 2119 3084 
Q 1678 3084 1418 2786 
Q 1159 2488 1159 1978 
L 1159 0 
L 581 0 
L 581 3500 
L 1159 3500 
L 1159 2956 
Q 1356 3278 1631 3431 
Q 1906 3584 2284 3584 
Q 2666 3584 2933 3390 
Q 3200 3197 3328 2828 
z
" transform="scale(0.015625)"/>
       <path id="DejaVuSans-74" d="M 1172 4494 
L 1172 3500 
L 2356 3500 
L 2356 3053 
L 1172 3053 
L 1172 1153 
Q 1172 725 1289 603 
Q 1406 481 1766 481 
L 2356 481 
L 2356 0 
L 1766 0 
Q 1100 0 847 248 
Q 594 497 594 1153 
L 594 3053 
L 172 3053 
L 172 3500 
L 594 3500 
L 594 4494 
L 1172 4494 
z
" transform="scale(0.015625)"/>
       <path id="DejaVuSans-6e" d="M 3513 2113 
L 3513 0 
L 2938 0 
L 2938 2094 
Q 2938 2591 2744 2837 
Q 2550 3084 2163 3084 
Q 1697 3084 1428 2787 
Q 1159 2491 1159 1978 
L 1159 0 
L 581 0 
L 581 3500 
L 1159 3500 
L 1159 2956 
Q 1366 3272 1645 3428 
Q 1925 3584 2291 3584 
Q 2894 3584 3203 3211 
Q 3513 2838 3513 2113 
z
" transform="scale(0.015625)"/>
      </defs>
      <use xlink:href="#DejaVuSans-Oblique-43" transform="translate(0 0.015625)"/>
      <use xlink:href="#DejaVuSans-35" transform="translate(69.824219 -16.390625) scale(0.7)"/>
      <use xlink:href="#DejaVuSans-2c" transform="translate(117.094727 0.015625)"/>
      <use xlink:href="#DejaVuSans-20" transform="translate(148.881836 0.015625)"/>
      <use xlink:href="#DejaVuSans-61" transform="translate(180.668945 0.015625)"/>
      <use xlink:href="#DejaVuSans-70" transform="translate(241.948242 0.015625)"/>
      <use xlink:href="#DejaVuSans-70" transform="translate(305.424805 0.015625)"/>
      <use xlink:href="#DejaVuSans-72" transform="translate(368.901367 0.015625)"/>
      <use xlink:href="#DejaVuSans-6f" transform="translate(410.014648 0.015625)"/>
      <use xlink:href="#DejaVuSans-78" transform="translate(471.196289 0.015625)"/>
      <use xlink:href="#DejaVuSans-69" transform="translate(530.375977 0.015625)"/>
      <use xlink:href="#DejaVuSans-6d" transform="translate(558.15918 0.015625)"/>
      <use xlink:href="#DejaVuSans-61" transform="translate(655.571289 0.015625)"/>
      <use xlink:href="#DejaVuSans-74" transform="translate(716.850586 0.015625)"/>
      <use xlink:href="#DejaVuSans-69" transform="translate(756.05957 0.015625)"/>
      <use xlink:href="#DejaVuSans-6f" transform="translate(783.842773 0.015625)"/>
      <use xlink:href="#DejaVuSans-6e" transform="translate(845.024414 0.015625)"/>
     </g>
    </g>
    <g id="line2d_40">
     <path d="M 286.82 234.249625 
L 296.82 234.249625 
L 306.82 234.249625 
" style="fill: none; stroke: #0000ff; stroke-width: 0.5; stroke-linecap: square"/>
    </g>
    <g id="text_20">
     <!-- $C_4$, approximation -->
     <g transform="translate(314.82 237.749625) scale(0.1 -0.1)">
      <use xlink:href="#DejaVuSans-Oblique-43" transform="translate(0 0.015625)"/>
      <use xlink:href="#DejaVuSans-34" transform="translate(69.824219 -16.390625) scale(0.7)"/>
      <use xlink:href="#DejaVuSans-2c" transform="translate(117.094727 0.015625)"/>
      <use xlink:href="#DejaVuSans-20" transform="translate(148.881836 0.015625)"/>
      <use xlink:href="#DejaVuSans-61" transform="translate(180.668945 0.015625)"/>
      <use xlink:href="#DejaVuSans-70" transform="translate(241.948242 0.015625)"/>
      <use xlink:href="#DejaVuSans-70" transform="translate(305.424805 0.015625)"/>
      <use xlink:href="#DejaVuSans-72" transform="translate(368.901367 0.015625)"/>
      <use xlink:href="#DejaVuSans-6f" transform="translate(410.014648 0.015625)"/>
      <use xlink:href="#DejaVuSans-78" transform="translate(471.196289 0.015625)"/>
      <use xlink:href="#DejaVuSans-69" transform="translate(530.375977 0.015625)"/>
      <use xlink:href="#DejaVuSans-6d" transform="translate(558.15918 0.015625)"/>
      <use xlink:href="#DejaVuSans-61" transform="translate(655.571289 0.015625)"/>
      <use xlink:href="#DejaVuSans-74" transform="translate(716.850586 0.015625)"/>
      <use xlink:href="#DejaVuSans-69" transform="translate(756.05957 0.015625)"/>
      <use xlink:href="#DejaVuSans-6f" transform="translate(783.842773 0.015625)"/>
      <use xlink:href="#DejaVuSans-6e" transform="translate(845.024414 0.015625)"/>
     </g>
    </g>
    <g id="line2d_41">
     <path d="M 286.82 248.949625 
L 296.82 248.949625 
L 306.82 248.949625 
" style="fill: none; stroke: #ff0000; stroke-width: 0.5; stroke-linecap: square"/>
    </g>
    <g id="text_21">
     <!-- $C_1$, approximation -->
     <g transform="translate(314.82 252.449625) scale(0.1 -0.1)">
      <use xlink:href="#DejaVuSans-Oblique-43" transform="translate(0 0.015625)"/>
      <use xlink:href="#DejaVuSans-31" transform="translate(69.824219 -16.390625) scale(0.7)"/>
      <use xlink:href="#DejaVuSans-2c" transform="translate(117.094727 0.015625)"/>
      <use xlink:href="#DejaVuSans-20" transform="translate(148.881836 0.015625)"/>
      <use xlink:href="#DejaVuSans-61" transform="translate(180.668945 0.015625)"/>
      <use xlink:href="#DejaVuSans-70" transform="translate(241.948242 0.015625)"/>
      <use xlink:href="#DejaVuSans-70" transform="translate(305.424805 0.015625)"/>
      <use xlink:href="#DejaVuSans-72" transform="translate(368.901367 0.015625)"/>
      <use xlink:href="#DejaVuSans-6f" transform="translate(410.014648 0.015625)"/>
      <use xlink:href="#DejaVuSans-78" transform="translate(471.196289 0.015625)"/>
      <use xlink:href="#DejaVuSans-69" transform="translate(530.375977 0.015625)"/>
      <use xlink:href="#DejaVuSans-6d" transform="translate(558.15918 0.015625)"/>
      <use xlink:href="#DejaVuSans-61" transform="translate(655.571289 0.015625)"/>
      <use xlink:href="#DejaVuSans-74" transform="translate(716.850586 0.015625)"/>
      <use xlink:href="#DejaVuSans-69" transform="translate(756.05957 0.015625)"/>
      <use xlink:href="#DejaVuSans-6f" transform="translate(783.842773 0.015625)"/>
      <use xlink:href="#DejaVuSans-6e" transform="translate(845.024414 0.015625)"/>
     </g>
    </g>
    <g id="LineCollection_7">
     <path d="M 291.82 263.648062 
L 301.82 263.648062 
" style="fill: none; stroke: #008000; stroke-width: 0.5"/>
    </g>
    <g id="LineCollection_8">
     <path d="M 296.82 268.648062 
L 296.82 258.648062 
" style="fill: none; stroke: #008000; stroke-width: 0.5"/>
    </g>
    <g id="line2d_42"/>
    <g id="line2d_43">
     <g>
      <use xlink:href="#m8fe8e6e841" x="296.82" y="263.648062" style="fill: #008000; stroke: #008000"/>
     </g>
    </g>
    <g id="text_22">
     <!-- $C_5$=67.4  -->
     <g transform="translate(314.82 267.148062) scale(0.1 -0.1)">
      <defs>
       <path id="DejaVuSans-3d" d="M 678 2906 
L 4684 2906 
L 4684 2381 
L 678 2381 
L 678 2906 
z
M 678 1631 
L 4684 1631 
L 4684 1100 
L 678 1100 
L 678 1631 
z
" transform="scale(0.015625)"/>
       <path id="DejaVuSans-43d" d="M 581 3500 
L 1159 3500 
L 1159 2072 
L 3025 2072 
L 3025 3500 
L 3603 3500 
L 3603 0 
L 3025 0 
L 3025 1613 
L 1159 1613 
L 1159 0 
L 581 0 
L 581 3500 
z
" transform="scale(0.015625)"/>
       <path id="DejaVuSans-424" d="M 2441 3706 
Q 1763 3644 1403 3325 
Q 1044 3006 1044 2391 
Q 1044 1775 1403 1458 
Q 1763 1141 2441 1078 
L 2441 3706 
z
M 3075 1078 
Q 3753 1141 4109 1458 
Q 4466 1775 4466 2391 
Q 4466 3006 4109 3325 
Q 3753 3644 3075 3706 
L 3075 1078 
z
M 2441 556 
Q 1450 628 914 1095 
Q 378 1563 378 2391 
Q 378 3219 914 3689 
Q 1450 4159 2441 4231 
L 2441 4666 
L 3075 4666 
L 3075 4231 
Q 4066 4159 4598 3692 
Q 5131 3225 5131 2391 
Q 5131 1563 4598 1095 
Q 4066 628 3075 556 
L 3075 0 
L 2441 0 
L 2441 556 
z
" transform="scale(0.015625)"/>
      </defs>
      <use xlink:href="#DejaVuSans-Oblique-43" transform="translate(0 0.78125)"/>
      <use xlink:href="#DejaVuSans-35" transform="translate(69.824219 -15.625) scale(0.7)"/>
      <use xlink:href="#DejaVuSans-3d" transform="translate(117.094727 0.78125)"/>
      <use xlink:href="#DejaVuSans-36" transform="translate(200.883789 0.78125)"/>
      <use xlink:href="#DejaVuSans-37" transform="translate(264.506836 0.78125)"/>
      <use xlink:href="#DejaVuSans-2e" transform="translate(328.129883 0.78125)"/>
      <use xlink:href="#DejaVuSans-34" transform="translate(359.916992 0.78125)"/>
      <use xlink:href="#DejaVuSans-20" transform="translate(423.540039 0.78125)"/>
      <use xlink:href="#DejaVuSans-43d" transform="translate(455.327148 0.78125)"/>
      <use xlink:href="#DejaVuSans-424" transform="translate(520.708008 0.78125)"/>
     </g>
    </g>
    <g id="LineCollection_9">
     <path d="M 291.82 278.326187 
L 301.82 278.326187 
" style="fill: none; stroke: #0000ff; stroke-width: 0.5"/>
    </g>
    <g id="LineCollection_10">
     <path d="M 296.82 283.326187 
L 296.82 273.326187 
" style="fill: none; stroke: #0000ff; stroke-width: 0.5"/>
    </g>
    <g id="line2d_44"/>
    <g id="line2d_45">
     <g>
      <use xlink:href="#me4dc0da869" x="296.82" y="278.326187" style="fill: #0000ff; stroke: #0000ff"/>
     </g>
    </g>
    <g id="text_23">
     <!-- $C_4$=57.2  -->
     <g transform="translate(314.82 281.826187) scale(0.1 -0.1)">
      <use xlink:href="#DejaVuSans-Oblique-43" transform="translate(0 0.78125)"/>
      <use xlink:href="#DejaVuSans-34" transform="translate(69.824219 -15.625) scale(0.7)"/>
      <use xlink:href="#DejaVuSans-3d" transform="translate(117.094727 0.78125)"/>
      <use xlink:href="#DejaVuSans-35" transform="translate(200.883789 0.78125)"/>
      <use xlink:href="#DejaVuSans-37" transform="translate(257.256836 0.78125)"/>
      <use xlink:href="#DejaVuSans-2e" transform="translate(320.879883 0.78125)"/>
      <use xlink:href="#DejaVuSans-32" transform="translate(347.166992 0.78125)"/>
      <use xlink:href="#DejaVuSans-20" transform="translate(410.790039 0.78125)"/>
      <use xlink:href="#DejaVuSans-43d" transform="translate(442.577148 0.78125)"/>
      <use xlink:href="#DejaVuSans-424" transform="translate(507.958008 0.78125)"/>
     </g>
    </g>
    <g id="LineCollection_11">
     <path d="M 291.82 293.004312 
L 301.82 293.004312 
" style="fill: none; stroke: #ff0000; stroke-width: 0.5"/>
    </g>
    <g id="LineCollection_12">
     <path d="M 296.82 298.004312 
L 296.82 288.004312 
" style="fill: none; stroke: #ff0000; stroke-width: 0.5"/>
    </g>
    <g id="line2d_46"/>
    <g id="line2d_47">
     <g>
      <use xlink:href="#mec772e212a" x="296.82" y="293.004312" style="fill: #ff0000; stroke: #ff0000"/>
     </g>
    </g>
    <g id="text_24">
     <!-- $C_1$=25  -->
     <g transform="translate(314.82 296.504312) scale(0.1 -0.1)">
      <use xlink:href="#DejaVuSans-Oblique-43" transform="translate(0 0.78125)"/>
      <use xlink:href="#DejaVuSans-31" transform="translate(69.824219 -15.625) scale(0.7)"/>
      <use xlink:href="#DejaVuSans-3d" transform="translate(117.094727 0.78125)"/>
      <use xlink:href="#DejaVuSans-32" transform="translate(200.883789 0.78125)"/>
      <use xlink:href="#DejaVuSans-35" transform="translate(264.506836 0.78125)"/>
      <use xlink:href="#DejaVuSans-20" transform="translate(328.129883 0.78125)"/>
      <use xlink:href="#DejaVuSans-43d" transform="translate(359.916992 0.78125)"/>
      <use xlink:href="#DejaVuSans-424" transform="translate(425.297852 0.78125)"/>
     </g>
    </g>
   </g>
  </g>
  <g id="text_25">
   <!--   $0.3U_{c0}$ -->
   <g transform="translate(169.99 17.549812) scale(0.14 -0.14)">
    <defs>
     <path id="DejaVuSans-Bold-424" d="M 1563 2378 
Q 1563 1909 1805 1700 
Q 2047 1491 2572 1447 
L 2572 3313 
Q 2047 3269 1805 3058 
Q 1563 2847 1563 2378 
z
M 4784 2378 
Q 4784 2847 4542 3058 
Q 4300 3269 3775 3313 
L 3775 1447 
Q 4300 1491 4542 1700 
Q 4784 1909 4784 2378 
z
M 2572 4666 
L 3775 4666 
L 3775 4203 
Q 4922 4109 5473 3681 
Q 6025 3253 6025 2378 
Q 6025 1503 5473 1076 
Q 4922 650 3775 556 
L 3775 0 
L 2572 0 
L 2572 556 
Q 1425 650 872 1076 
Q 319 1503 319 2378 
Q 319 3253 872 3681 
Q 1425 4109 2572 4203 
L 2572 4666 
z
" transform="scale(0.015625)"/>
     <path id="DejaVuSans-Bold-427" d="M 3381 0 
L 3381 1781 
L 1750 1781 
Q 1156 1781 836 2147 
Q 516 2513 516 3234 
L 516 4666 
L 1719 4666 
L 1719 3806 
Q 1719 3069 1834 2880 
Q 1950 2691 2244 2691 
L 3381 2691 
L 3381 4666 
L 4584 4666 
L 4584 0 
L 3381 0 
z
" transform="scale(0.015625)"/>
     <path id="DejaVuSans-Bold-425" d="M 3188 2381 
L 4806 0 
L 3553 0 
L 2463 1594 
L 1381 0 
L 122 0 
L 1741 2381 
L 184 4666 
L 1441 4666 
L 2463 3163 
L 3481 4666 
L 4744 4666 
L 3188 2381 
z
" transform="scale(0.015625)"/>
     <path id="DejaVuSans-Bold-20" transform="scale(0.015625)"/>
     <path id="DejaVuSans-Bold-434" d="M 547 800 
Q 903 919 1053 1314 
Q 1203 1709 1203 2838 
L 1203 3500 
L 4228 3500 
L 4228 800 
L 4809 800 
L 4809 -884 
L 4009 -884 
L 4009 0 
L 1159 0 
L 1159 -884 
L 359 -884 
L 359 800 
L 547 800 
z
M 3109 2700 
L 2322 2700 
L 2322 2603 
Q 2322 1456 2063 800 
L 3109 800 
L 3109 2700 
z
" transform="scale(0.015625)"/>
     <path id="DejaVuSans-Bold-43b" d="M 353 0 
L 353 800 
Q 906 913 1031 1278 
Q 1125 1556 1125 2928 
L 1125 3500 
L 4150 3500 
L 4150 0 
L 3031 0 
L 3031 2700 
L 2244 2700 
L 2244 2584 
Q 2244 1213 2028 813 
Q 1591 0 353 0 
z
" transform="scale(0.015625)"/>
     <path id="DejaVuSans-Bold-44f" d="M 1528 2394 
Q 1528 2169 1651 2069 
Q 1775 1969 2059 1969 
L 2463 1969 
L 2463 2816 
L 2059 2816 
Q 1775 2816 1651 2719 
Q 1528 2622 1528 2394 
z
M 197 0 
L 1113 1497 
Q 847 1650 650 1917 
Q 453 2184 453 2516 
Q 453 3013 789 3256 
Q 1125 3500 1878 3500 
L 3581 3500 
L 3581 0 
L 2463 0 
L 2463 1278 
L 2069 1278 
L 1288 0 
L 197 0 
z
" transform="scale(0.015625)"/>
     <path id="DejaVuSans-Oblique-55" d="M 991 4666 
L 1625 4666 
L 1075 1831 
Q 1041 1641 1027 1517 
Q 1013 1394 1013 1300 
Q 1013 869 1253 645 
Q 1494 422 1959 422 
Q 2563 422 2898 753 
Q 3234 1084 3378 1831 
L 3928 4666 
L 4563 4666 
L 4000 1753 
Q 3816 809 3300 359 
Q 2784 -91 1888 -91 
Q 1188 -91 780 261 
Q 372 613 372 1216 
Q 372 1325 387 1461 
Q 403 1597 434 1753 
L 991 4666 
z
" transform="scale(0.015625)"/>
     <path id="DejaVuSans-Oblique-63" d="M 3431 3366 
L 3316 2797 
Q 3109 2947 2876 3022 
Q 2644 3097 2394 3097 
Q 2119 3097 1870 3000 
Q 1622 2903 1453 2725 
Q 1184 2453 1037 2087 
Q 891 1722 891 1331 
Q 891 859 1127 628 
Q 1363 397 1844 397 
Q 2081 397 2348 469 
Q 2616 541 2906 684 
L 2797 116 
Q 2547 13 2283 -39 
Q 2019 -91 1741 -91 
Q 1044 -91 669 257 
Q 294 606 294 1253 
Q 294 1797 489 2255 
Q 684 2713 1069 3078 
Q 1331 3328 1684 3456 
Q 2038 3584 2456 3584 
Q 2700 3584 2940 3529 
Q 3181 3475 3431 3366 
z
" transform="scale(0.015625)"/>
    </defs>
    <use xlink:href="#DejaVuSans-Bold-424" transform="translate(0 0.78125)"/>
    <use xlink:href="#DejaVuSans-Bold-427" transform="translate(99.169922 0.78125)"/>
    <use xlink:href="#DejaVuSans-Bold-425" transform="translate(179.980469 0.78125)"/>
    <use xlink:href="#DejaVuSans-Bold-20" transform="translate(257.080078 0.78125)"/>
    <use xlink:href="#DejaVuSans-Bold-434" transform="translate(291.894531 0.78125)"/>
    <use xlink:href="#DejaVuSans-Bold-43b" transform="translate(372.65625 0.78125)"/>
    <use xlink:href="#DejaVuSans-Bold-44f" transform="translate(445.898438 0.78125)"/>
    <use xlink:href="#DejaVuSans-Bold-20" transform="translate(510.107422 0.78125)"/>
    <use xlink:href="#DejaVuSans-30" transform="translate(544.921875 0.78125)"/>
    <use xlink:href="#DejaVuSans-2e" transform="translate(608.544922 0.78125)"/>
    <use xlink:href="#DejaVuSans-33" transform="translate(640.332031 0.78125)"/>
    <use xlink:href="#DejaVuSans-Oblique-55" transform="translate(703.955078 0.78125)"/>
    <use xlink:href="#DejaVuSans-Oblique-63" transform="translate(777.148438 -15.625) scale(0.7)"/>
    <use xlink:href="#DejaVuSans-30" transform="translate(815.634766 -15.625) scale(0.7)"/>
   </g>
  </g>
 </g>
 <defs>
  <clipPath id="p55f944d011">
   <rect x="57.6" y="41.472" width="357.12" height="266.112"/>
  </clipPath>
 </defs>
</svg>
